<mxfile host="65bd71144e">
    <diagram id="HIP3nbAZw_EuaXWnEj3U" name="Page-1">
        <mxGraphModel dx="766" dy="661" grid="1" gridSize="10" guides="1" tooltips="1" connect="1" arrows="1" fold="1" page="1" pageScale="1" pageWidth="850" pageHeight="1100" math="0" shadow="0">
            <root>
                <mxCell id="0"/>
                <mxCell id="1" parent="0"/>
                <mxCell id="7" value="http://ics2o.mths.ca" style="swimlane;whiteSpace=wrap;html=1;" parent="1" vertex="1">
                    <mxGeometry x="40" y="40" width="760" height="523" as="geometry"/>
                </mxCell>
                <mxCell id="8" value="" style="shape=image;verticalLabelPosition=bottom;labelBackgroundColor=default;verticalAlign=top;aspect=fixed;imageAspect=0;image=data:image/png,iVBORw0KGgoAAAANSUhEUgAAAfoAAAHtCAYAAADxxrxqAAAAAXNSR0IArs4c6QAAIABJREFUeF7svQeAXVW1Pv7t026Zkkx6ISGBEEKHQKSDRAwCIlUMCBgU9CcPBcGCoKIUQR6iIk/hPR/YUUFBQR8KEqWLCqGYhPTe67R772n7///WPmfmzmQCMW0yk3NwnMzMuaesfc7+9lrrW99SyLbMApkFMgtkFsgskFmg11pA9do7y24ss0BmgcwCmQUyC2QWQAb02UOQWSCzQGaBzAKZBXqxBTKg78WDm91aZoHMApkFMgtkFsiAPnsGMgtkFsgskFkgs0AvtkAG9L14cLNb2z0soLXme2wDcABYgKTk1Jo1a5RlWYobLdHU1GTx53K5bDuOY1cqFSuOY53P5+N8Ph9FURTz5/r6ep1u/HnAgAEaAL/i5CtUSkW7h3Wzu8ws0PMtkAF9zx/D7A56oQUS8C7MmzfP9X3faWlpUWEY2k1NTbmWlpbaUqlUFwRB/3Xr1vULgqDQ3Nxc09TUVNPa2sp9nVKpZAdBYPEzYRhaBPVyuczvbqVS8crlci6KIse2be04ju95XlAoFALP8yICfy6Xi1zX5VfM78VikV9BsVj0a2trS/X19aVcLtdUV1e3rlAoNOZyuea+ffu22rZdqa2tDfv37x/5vh+OHDmyopRq7YVDlN1SZoEeY4EM6HvMUGUX2hstoLV2li9f3nfu3LnFBQsWFJYuXTp46dKlB6xatWr0+vXr61taWvLlctltbm62S6USATxXLpcF6MMw7GdZVkMcx17i0Ys3b1n8Jpu831pr+eLPiXOf/mx2Ukq+qvaTj6W/S77LARLPXrx7y7Ja4jhe73leU01NTXOhUGgtFAqVQqEQFovFsFAo+HV1daV+/fqtHTly5Jzhw4fPHT58+Oo99tijefTo0Rv79u3blEUGeuNTnd3TrmaBDOh3tRHJrqdXWkBrbb/88st9582bV7dkyZL6mTNn7rVgwYKjVq1atV+lUhnQ1NSUb2pqckulUjGKor4AapMwfIra6bva1TvbHe9xCvydx6v692nIP7Qsq8l13cZisViqq6uTqIDneavGjBnz5p577jltzJgx80ePHt209957r9pnn30ae+VDkN1UZoFuskB3TBDddKvZaTML7BgLpDnyOXPm2P369csxhD579uwhb7zxxuA333xz0PTp04+cMWPG0c3NzUMBSMgcgGtZlqO1tpLPV1+ceN70zKOoZ6fCO0UQ2hYBSRRBIgNxHIe2bYdMETCN0KdPn9kHH3zwXw444IB/HXLIIavHjBmzZPTo0WsHDx7cAiAEECml+D3bMgtkFtgCC2RAvwVGynbJLFBtAYbbV65cmVu9enXtmjVrhi5cuHD4W2+9NWjWrFkNM2bM2Gf+/PlHlkqlMQR1pZRNMGeE3HGI70AYGoxKQ+PpsbsKq/cmy7/T/dm2TdRnCkEiAeQHxHHMlU65vr7+1dGjR7986KGHrjrkkEPWjR49ekW/fv0WDR48eFVdXV3r4MGDS0opkgWzLbNAZoFOFsiAPnskMgtsgQVWrVpVO3PmzLrXX3991Jw5c8bPmjVrzxkzZgyaP3/+fgD2BlBMWO9kvwvr3fM8+L4PAhhBLgV4eur84s9pPj3JoXfInW/BZe3yu6Tg3vlCq0HfdV0B+NQ+tBftwd8lm0QCCPxhGMZa68iyrOb6+voZY8eOnT1u3Dh6/dP32WefNw466KDlBxxwwEalVGmXN052gZkFdpIFMqDfSYbOTtOzLDB79ux6euivvvrqiNdff/2kGTNmjFu+fHnDunXrhsZxPNK27booigTUE7BWBCYCGAGe/w6CYBOvvStPvivL8Jg8Vk8P3XcB2l0+CJ0XBNULga6IglUHiW3bjrTWawuFwuJhw4atGTly5LKDDz74hUMPPXTaoYceuvrggw9eqpTaHKegZz2Y2dVmFtgKC2RAvxVGyz7SuyzA0Pry5cvzzKk/9dRTw1566aVj5s2bd87GjRsbWLYGgOS4vOd5lu/7baS4zmBcFXoWA/HnFKirPffUe+ff21xWw4rvzHzvXYauYvinCx7agAui1CbvFN5PDcLP8YsRk2qv3/M8HQRBqLUm+a+ptraWDP9p48ePf/y4446bc8ghh8w99NBDm8gNyMC/1z1e2Q1txgIZ0GePxm5nATLgV65cmV+5cmXD3/72twOee+65sX/+859PWbFixXEACszBx3Es4fcUjKs9a+baCUxdedsEdP6df9ucN955QbDbDUCnG+68YCLYp3bn90qlIp+oTnlUH6IL0JdoSLpwYu5ea808QNDQ0DB//Pjxj5566qnTjzrqqLf22muvBUOHDm3Nav1396ewd99/BvS9e3yzu0vdPa29pUuX1r3xxhvDX5n2yrv+8pe/jHx12rTD16xafTRg10FHtmTWtak9T2vL03B8tSFT75PAw7+zbF2pdu+9o9FNdZxh0QvFvM17tW2FqKuAcrzpL9/uReXe5tIFDpPTJ/nt5INK+IAWLIQibydaetxXM6qgATs0B4kABrnbKvETKbxNr6h6j86P2dtz4trC9Bbr+9sr84nN/BJIrtosZc4V61jusXphYItNzc7pNXYeO/7cKd/PT4SO48yfMGHC84cdftjC40549zMH77///MGDB68fMGBAc+btZ1NHb7JABvS9aTSze9nEAm++/OaQF//x4qjnX3z+3W9Mf2Pc7Lmz9mpsahoPhRxiWNCWAiwl6CJvQ0eUIcZUA0/1z/wkQYbfk8h72/nbQdeCgvFQYx3Kl0F+JvcJTnYiLpvCVEfU4rFl9+TPPJr5uDaAnVwxodD8TGY/z0iyOi/O7GRpFzYcWCiBsQqf+G4XYFdyiBAAhRYjoFsCnNDo6Sr5cCzHDZJzCeZq/s81N6G5MuIX/5//tduwQ1WBVaW3k/4zOVZbD00OgQYc2kaAHbDJU6DgDy/XUgiSRVC6uEn1fvmBVJ+3DfGrFj5dTXSaZzAXHzmeM3fUnqNm7n/A/ssPH3/o8xNPPOHv48YdsnzgwIEM82dbZoEebYEM6Hv08GUX35UFVs9cXffgnx7c6/e/feyUWXNmn7pq9YqBLa3lPUSExqAXkTdBxuQVEKDvwhPVBGQHtmUlnjg98khAiFsK9vREbbqXUj5njkMv38jQpxvJelo8+yg9QJU7bjsEMwN2UbIekCMS+HgdqZB98rMsLiTBAFjJ7YTJdRGzeYs8jPjydNgjA+BWHliTlueHLlAIgTqiKgBGyXkMqVZvP778LcXwKi9c9k2/qgcjNWUSJajCf7OXXLuCcrjGitNVivw+vc/qwxlETngMCf+B4yCLji6iIowCSKVDh+jIpuNru9QqiHkccxcakW2rVUMGDV46dPiQWe+dOOnXZ5x11ptHH330QqUU1zvZllmgx1kgA/oeN2TZBXcAAIOk7rx58wrPPPPi2Ecfffzo5158YfLatSvHAH4toPNpSN52FSJfQ8UuFLzEV00RLfXok6MLeFiw6blarO9OfWein0FhObOExO3E5a7ScCFgEcg0AYfePMMH7YDvKJbcaVhxJOjS2bnlAsLmqS0gXwAKBYALAf7e9YD6OqC+CAzoC9QVgb79gD79gfr+Lhoa6jCwTw1qahT6Dy4ijkM4qg55tw+s0MO8xRrX3foknn2Vlf7AsNNHYeDEIajUhgL0DDpEoY0YCo3NjQhDH63lEoKWFuiNTUBzBFC6hjy4Dcl3/pum4RfhsGyiA22/4+/bnHon+T0NSPXeJGfimAiCjniAmO48IIJBBOjEevT4XVcWUFHkA14Su+f4MHIhwygB/mRtYcL9bVGDdAjSXEfVIsFuD9dI8sJWdmTZdoub81r2GTv2ifefccajp59+5lsjRhyyZOhQ+JloTzYX9RQLZEDfU0Yqu84OFtBaF998883+0/7xxrg/PfXUAf/3xB/fs2btmuMB1NBfh4oUbHp8VTM5/8kcNBy4CdBHAtqbE1ljTttNgvmc+JWArR8QxWJYZNXHNiyHYBUj5u8VvXaDUfTCGSiQpUASY07xhX+zNVBwDWj3bwDq+wDFIlBTCzQ0AH0aHIweNQhDhzdg1F6DMWhgPRyX3ifd7pDSerD8MhwVwrIr0KqMgOirIrg6gOUEUHYFUcQvDVvnYcU1WLx8AKZc8Rr+Oh1AH2CPD49E/cQBWOM2inerLA8BHNgew/Pi5ELFGm4EFIMYbqigwjysCPAcW+6TiQHENuLWCM1rm7Bh1QaU15XgNwaIWjWiZl++0KIBtrjhIoC3QQxPowtpZCB1vNPcBEeehqfQkCyszCJMDJ020esUWWjnLHDfTou4dNaTNAEXceYumX5g/l9q+KvyNbYROmINf1hbV7fgkMMO/sP7Tj/1zROOP/blg/c7eHHfvn1bMm8/m6B2ZQtkQL8rj052bZ3B3Zk/f37/J598cv+nnnrq+GnT3jhozuw5RwMYBKVty1EW87mgmFr6ZFsO268YUAgjKEnM01ftuHWO/qZYI76hYIuFmC68uPEmuKwU2fdhcqwY9IFzLhPvgWASo92uSZmDWNF/IDB6NDB6L2BAfyCfAwY1AMOGeBiz1ygMHToY+YKLWPtQCGDZMYJKKzQqIGlcIZQoAPPvBCOlNXJwTFifRDUdIbIM2c9hTb+OEegS3DxXFYFJekc5LFs5EhdcOhsvzgWCIjD4goGoec8AbKhvMd6y7aDZDxFJrjwG0+sSNokVipGGSwJfXJBcf+QEiJjKSMLvLhdRyoGnbNjaRlyJkf6O5/dbKti4fiPWrV6D8gYCvw2ULGBDC7AKwDq0LwQYJUgJAsk4WJYNyYzIOMdwlBHbMTUSSZglHVx66AzLV423MBvagJ6MBy5mDKshlgVfksLhI0P6ROc1oCEisKFP0K9f/38eeOABf584ceIbp5122guHH374ooy9n01au6IFMqDfFUclu6ZNLPDss8/u9cgjj7z3scceO2X+/PljwzDcC7By9LNZEk2vMw3RMl9NHBCnLGGbm6ncgKQtrvamqeXNccUNW95gPP/tOCavy/VEkVFo5r7pxSfEPe4zdh/g4APzGD9+DPK5MurrYwwc5GLYsCL6D/CQzxO4m+GiGYhLcsEC1FGAWEewGOq3LHgu2fxBez0+gT4tHYsVLN5frKBii8o95iIY3ydA0QiSW68Ali8/KsfB8hV74rwPz8ULswHUA8M/MgyFk/thdX4jgsiXyDu/csUCVMRrMYeytIYnwEnuQQ4hNAIm/50YLo0ufq+CZlRAR7IAyTk5+VnHXKQoOIojZpQBnciDF+aQizwETT6aV21EuN6Hw7RAk0bcGGLl3JWIlicpgjR7kq7K0jRBOnBSQJAwI2Uf8yCkOX8TIKj27jlgBHuTOOEzJDyNdNHABYBrpkgdmAeGpmdChxESebosiUesGTRo0IwTTzzx72efffbDxx577NwRI0ZwyZJtmQV2CQtkQL9LDEN2EV1ZYPHixYU//vGPez/22GNnTp069bympqY9XNdtYJ/1tBGMIbzRU08876p5vCv+WDU3jLO2pPjlLejEtk/AxLMdASr+JyF4AnuSMs45QNEDBvYHDj4IOP7EHA48cE/06WMjnwtRyMdo6FNEzolhqRA69hGHgeTMuUogRri2ho4IwoakJ6w6Ygf3IUSXfbiuguW6BmXEc+aqg4AuMXMDbuyTQ7fWCo09eJFynTmznxMgjGPYtod5S4bgoo8vwksE+hww4MPDUfveflhf12gOS3legjVLAuVcXESZkLml6M7a8CX1YcPT5CEYoR8pHUyu27IUHLkhE2HgNUlZIlMbCX+B9Yw61Mg5rqmb5/VrS8LpCC2gVcPf4MMLHOQDF5W1FSybtRTBnCZgDcA1koT/Uy5ADLjmFB3APaUHtGUCqme96ipBroucpGYhSEr/zF2bx1MWAJ1KLJSGY7GdgdZRFJVc11227777zjz33HN/fPrppz83YcKElVmpXja/dbcFMqDv7hHIzt9mgaT5S+6f//znwN/85jcn//a3v508ffp0ith4lmVZFLHpXMPeVtuWhJcJk6Z1TDv3K/23QLmtENIbk5WBU7VTVdlbUkfOHLoU3yWOcUM/oK4e6N8fOOwwD8cesw9OPGYYHGctLOXDcUqwnDJs5st1C5Qui0eZhr4ZBrZZy87zSk479T5TF1WSxe3sfxM+MCEDfqU0+7Tg3IoRxqHgvKN5TAtaBUnkIjUCUwGAdkhKs+B4Rcxe0A+XfHI+XppBeSBg4IUjUTupP9bUrEEUhbBc5qkZLTBUOZ5X0haWRqxihJaDiuVCxxa8yDL310FhNok6qFgiEabSgKmOhDUvwM+r0bJw4CIg5AKC6xXBei4BbLmnHHKwKhr5yEU+sOGVbLi+5roFdsnFW88vQOuqVoTLm4CNMCRBUihSdE+/V+dmqv9Ns4nNq2oV08dDmSdJFioJLZ9RE6kS4AiSsR90jO0nJYWaRL18Pr/sfe9730/POuusv5x99tmv1tXVsT7fqP9kW2aBnWiBDOh3orGzU3VtAQL8ihUr+k+dOvXQRx555F1Tp06dtGbNmqOUUm4XLVw7HqT6CU4AmaHYvO3Bj5g/Z8CevrOpBzfhfXq4BFBO0skMbzPUbMKzDMMz1d6nDhg7Bhi1B7DnCOCQg2px3NH7o3//HCrlDbCVDxVVYKmK5M/B6quqfwv/ro1pzhMzVJxccFtKgYuN5HdtO1ez0d7mqREPMwEabQiB5hqSBUMKYAy1K9rAg1IFLFwxGBde/i/8LQH6oReMQu0pDVhTux6h8iX8z7I0lwsDRgGSCgQhHCp+WajYLiKG4TUXFsZLb98M+G+6Ge8/3cwCyITLWf8vvDxGWZQsAQwPIiEt2kxlxIAn18PzadixCysowkMROeVgw8pGLJ6xEPGyJmAtgGUAVidVAQn4i7evbTm+ycu3Vd+3XZekRhISp+FQpkw/IzlkPmP+HTBisfkhkmRDLpdbN27cuCfe//73v3TGGWc8d+SRRy5QSjVm80FmgZ1lgQzod5als/N0aYFXXnll4NNPP33iQw89dOq0adOOqVQq7AQnFDZKyaYdzTZrPjqaHl1B3c7BE488KXuTiVlKpSA0cWiE4mnzBAbUJZXNz9jAXqOAoyZ42HdsAwYPVDj6XaMxeKCFotcCFW2Ao0qoVDYCYQW5ujroChcISUJA6vCJJKa+u60srEMtfXInAsIEfuOJy9ZWx785tkBnK3QklrVHA9KStGR/pjfagL4WC5cPxoUff90AfR4YeuFeCdCvhW+FQkJj1MNhcSE9b1YOSIrDJMnpdRPojZMfiNpeNcin/zZqfOn9pv9un3IM0CdefhJslyAHx6zDzGTsSviXBZXYmIsyhVy+FqWSDxU7yFnM9xdQy0aCG2M0LWpEafFGBCsqaJq7GljK3H/i7bexLVlGkVyjzTiCjSg0v3BtI2UsVX8ynIYHkgI7UxMVpive5t1O1BPlY47jtAwcOPAfxx577LTJkyf//Nxzz52tlGIcItsyC+xQC2RAv0PNmx28KwtQa/7JJ58c/Pvf/37io48+eu6aNWsObWlp2YO9223bVtXtXKukS7s2ZlqAXp1r5Z4EEduDZq5XgJbkN4KSkazlr3IukNMEduDdEx2MGzcEI0cUMGx4DWoKIRy3DO23wlYh4jIXB5GUkxmmHz145sW7iAl3EN6pvjACVBVQyXWKhE2KJB2/b0HDNSkKExgxHnDbsVhp0MYgjw0bnwx91GHhiqG48PI32jz6wReORc0pfbCmdi1CFUA7TG8AriJhLslykLQmokKR2M63DFvdiQPxsNvwvGpGqVYO6GqtI0duW+gkIkMdPGydBDvaoyBmAWDspVWMIKog1DFyuTwc5SBgWF958JwCUI5RVDVwKmT1+4hZ7reyCavnLkU0MzAeP0P96TpFCIzGlmT3xx30idNFXEKjIF0i3f9tXvMO6oDtawR/+PDh/xo1atTfpkyZ8quTTz75pdGjRzPmkG2ZBXaIBTKg3yFmzQ7a2QJJCN59/PHH9/vJT35y2p///OeL1q5dO8TzvD6+70uEVFjZiRef5uK31JJSRZdgrptXiEKNOGiXpy0kkW3idL8G4KCDgA+eOQ7HHDwAfWtb0LefB2U3I4rXIVaN0FELPM9M5mTXi9+tCG4Ux2F+XUOHMbvemEvcRFWv3YNtSxckIBZboTDYTYg9KbDv7Bemx6v2ijcpCmxfRMjuEvI2qQCy8GWzAkS2D02Almuvw+Jlw9tD9xTduXAM6k7pg7U1axFxIWKbqgJyCQTok2swZYmRePRhwrK3dZQAvTlf51iEAfj2aabj35PrTVMciqV8PEd1cWOa2TCFkWlY3wB+LGTGmFEF5UgUoOIHLEKE7ToiVETFBCdUsHyNQmChNvbgtEYIN7bAbXKx+MVlaJnbBKxIAJ+npkOf1virvNTvK9H+JbEw6QmQ5vSrXfwuHtZqoCfhUNT6WHvJJZ5t+4VCYf2YMWOevuiii374oQ996J977LHHRqVScYAtffqz/TILvL0FMqDPnpAdaoGkBWy/p5566uAf/vCH7506deontNb1rsssOBRblHa1MeTpum5b57LNXSQFbVKxE06koeTdQ/H56LETpPtQFGY4sOeewFln5nD66Ych5zUDpUbU2HVAU5MJ6zukbVOUpQIdtEI5BBGj5mIZ0RSEQr5ih7qcuSRx6wwwpdHt9oYxxsNuD0Mbr5CeqAlZV/u8ne6wDeCFNbipx564yLGkI0ytO/cjCMv1yUk1IpbVWYGsJ4SEr+uxeNkIXHhZkqOvJdCPRP2kvlhfs5YFc1K+QGU8erVtRMJE954qsOJJE1jb1hnMmVdHLpJ/J4z86hY5Ug5oLCr5fh5LlgIdcvfJoiEBc3Or3DfhL5K4xyUXy/c4XIEhJMKxpXWBkTowOZk4jITFb1EwCDbytislify9HdtwYxee76FxeSOWvbEUmFkGViblfAzz8/EMTXqFKQwBesTwPC57tEQQ3mnrqkUxP1PVxpig3zpy5MhnJ0+e/KspU6a8OHbs2MVKKcYbsi2zwDZbIAP6bTZhdoDNWWD27Nlkz5/4u9/97uTnn3/+ZAB7ep5nV/V0b+sSZ0qwDDtbyruM1/O2Gx9eTt6ORU1zA+6c3wnwBI4jjgAO2t/FhMOH4cQTxmDQgAosaxX8yhJUSq3oW6T35pnSNHrmUWDqvflvAhDXIiIYT11YU0QtQjWsweL87wdSU8+TtU33bV66wFcVSBuvX2BNwC0B+g4AWX276atZDfLGuzbhenq3CflOgJI/G9Y6j881C7eI5Xb05pMUh4U6LFq6Bz582Qy8OFPU/zHwwhHoM6kP1hfXQ5NcRzJeRE6DAXqS7+QAVOAj8hHo2bkv6SrXYZCS+zG8hfZogEB7G6mv/RMxIwgpystn2hcCZi8D8Gle3kRHjB0J9FTpcyxHNARIuJT2wHFgavaFcMmSQqrfxab8j10GKSQkKRyjwmD5QI1Vi352P1iNNtbPWYfVM1fBX+5D/6vR5PWNGGK7pG9KE3inh7SLv/N60nLEarC3LEvHcewPHDjw2TPPPPP5Sy655KHjjz+eIjwsJMy2zAJbbYEM6LfadNkHN2eBGTNm9H/kkUdO/NnPfnbmjBkzTorjeJhUiLMva7KlE136c6dcZoc2sZs7TwoLedfgMEPto0cB7z8NOHC/Ghx60DDsPaIBKmqEDlug/WY4oteaxFsJgrGPyIraesiL3jn7zfsUqWGNO/HeNSx9aZGWaONLL1cqr1XX4Sezf9tNVoF1h5uoCmALW75qeydCXhuJLwW/RD825uomBX8jWMONwEbPOa0hs1HE4mXDcNFlb+GZt0QwGIPp0b+3Aetq1olHzyY+Fbrr1BCQcHl6HxqOZoUBCXkp92FzDPvknjZJaWzqAZvr49aZaJH8NvmIWQ+0T1ni4UsKgR56YGQFHFIINaIwRByztE+ZhUvMKADHzEk8flv2tcqxEDUZueHCjZUGNV4N8tqDW7LQsrQR6+auR+Nrq4G5iXIfQ/sBF5R5VErvnFpPPfpqvklbq16S/lwXvm8IgJ7nSU1+EAT+kCFDXjj55JOfPf/88393xhln/Csrzcvm3K21QAb0W2u57HObWGD27Nm5n/70p+/5+c9+cencOXPepaGHEjalICtVI03m6rQemV3GWJcs+JVyrqqPnHqISZi7zeejsAvLwEmoywGnvg/44HlHYPhQH/uMyUPFK2HpDQJMFpP1IibjAUFsvqhPLxq1ZVQQmmZ2JMtLLxV67pyAmZ9NwIdt4QieImIfm9I88Z6Zt6e3m5ZptTPCOxios+fe5vm3N3Ux+3fuovdOpXa8aF5jQuoTGzKenaKjKSVL+QDUsV+8bDAuumwOnkk8+iEXjETdpP5YW7tWQtPaYUTFgrbNIoRAT2Bnft6JffLSk/a6JjXRFnZP76kDuHeVb5ckQntVgpTtdfw5/Xsa6pd1VRujz5wzskwqnZr8FAgi2AuBUBYhBuRDKvuJt5/w++2EaUD5XGbw+VxwEWBz4CNThskmQGx7xDr+0EVNWAO30UG0PMDaWeuw6pUlwPwkrE98Tkl56SOQ1OG3R3nSRY+Sa6IAU7qlE7DrUU5ZIQhS4X9Gtij5GDf1699v4XtOnvjwZZd9/Jcnn3zyrGzqySzw71ogA/p/12LZ/h3xS2t7wYIFdT/96U+P+MH/3Hf1kkVLTvCsQpEzN2lb7BMXoGy6o5tYe3t/d+XAFuW1pMZdgLNKvIRgQE+VVWD8XFQRUhz7lQ8aBOw1ErhsioPjjtkbDf2K0HErHKcs35UqwRIVtiBhpXcaOAlFm/K0NE/ccY8UwKq8zLaSuao9k5x4RxpaCmRb8rB05cVuaXld6qi3e8QpqKtE1EVohFKyZjZ664uWk3U/B8+zvK4IDLlwJIqnGKAXvXfbkqICEtxk6aHSMH0MJ6mbF2Lf5hYvXbX77fjUVA2y4RK0K9Z09XNy7Z2CAeLRV0UBCOGtBmRdAAAgAElEQVRyj12kzatZ/x0+02aYNK1ifiHcBK3gaBL6bDiBAzuwxNO3QxvLFy3HhteXAX+HyenTsU+kFPjdLFuYZkkzOFwgMrdSJcyULM9Etl8kHMyCzbJcScXEXKQi0vmcg9aK77s5teID55z9vY998oonDjn+PXOGAqVMdW9L3rFsnwzos2dgqyxAFv1bby0e+thjj0x44Ic/OH/6v9441XNVH0Sw2GudHeKkJlkgnqVqAJ1ilm21qZBpRxxkogqnaMejR9OmeiMTp2jI0wFXpiPp4YcCE8YDHzhjAiaM74+4Mg1efQVobTX583weqLBbW5CosXV+xDuDaNfh4q0ySnd8SMC2PQoQJeBsJ1K0Ur5GD1dEaYyG76Llg3HBZfNMjr5ggL7wvv5YTY+enHXq5UvFgiOMei7QqIbH8xiBHIJSAvTvCOrdYZQtPye7JHRcg3R8XuIwlLROzvJMnj+M4Lns1afgNNnou74Ba15fgWWvzQcWUPU+Ye1LPl9BRXabkl5XUsuUUWZXXqP+y+hWkhKxHFENZJwmjkx6QNlKh5EO3aI3/YwPnPPoJz7+8ccOO/DAtwYNGpTl8Ld8yHfLPTOg3y2Hfdtueu7cuX0eeuihdz/44C8++Ppr004EMJSkZOkfUu2VS8lXEqFNHDV+E6/cygnokxRlNkN2kxS6RFMDmeQYPB4xAjjxRMrO2ph08gEY2GAh72o0Ny5DfV0MhC0ol8pwXbZW9RAHJGNpKOrDb5bU9/Z54W2z0E78dAb022jsjkCf9jVsowQy7E/RHNE7ICgbjzznecizdK+i4ekc4sBD49ISVr66FHh9owF9at9VAE/WrlQSBHymf/ici7RuZHoOpUkM1ygdt9EQuLiStACFfIx8cs6xUAlLzDAF9Q11/5z03lP+dP7kCx85++yzZymGsbIts0AXFsiAPnssttgCWuv8D37ww0P/67++e/G0adNOUcAopsrzOU+1VMoSr8zXWvDDGDFzl6mOeFJBR914VgibPDsDrbbMY07egwUfQSUQnhy9dzaL2WMYcPFFw3HQgbU44ogG1NRshOeVUW5cLsI1zPv7rSUhVQkJIGn6YpjxnXXkO99mBvSZR58sMKsejc5AT1Z8pcIQui3Nd8hUSBn8ZPd7OdM7wVa1KKp65FoK0CtCNE1fjcbpa1D+5wbTdCdtuZt0wLO50JXS0pSbQPnB5ELSxbJwKC3kvSLYmzeOTB+DROGHSwZ+tQwdNuy1iRMnPnz11Vc/cvjhh7Ms751r/rb4rc927A0WyIC+N4ziDr4HhumfeuqpEXffffdFf/jDHy5VSg0Pwzjv2J6KpJ6LYWEieJWYCK+JIeMUT5PmMMzHS5MYyrKyWEvY4WQ+08sH+tYCBx0AXPzhAo49ZgSGDmLIviwlblFoNOUV+7UrHzZDzHbOnEPyn6YvunR6Y7a5UjElVr15yzz6bRrdDpV9mzkSnymHjXbkGTPd/USzQccoJykSN7bhxDZUpJC3C+LloyVGuLQVi56dDvwj8fAJ+mQQ8nVx8kkrZSEEJPl788JQ2Em8+6paBKG4SHmgWQnYlgM/rkjLIQDrGxoaFl5zzTVf+NKXvjQ1E93Zpsei1304A/peN6Tb74YoVTtnzpx+3/72t4/7n//5n2/7vj/MsiybXeQ8Lw/fD5FniVEQCNDnCzkpE2JZU/WmHA86YRNLP3hpzcoOZ9QTB2oKQE0ROHw8cPWnj8S++yh4aiHqalqBqNGUS1XYLYyF74whxIiDVtPWFQ78Co9pJmJ686ZOOTJefso+335m2bWOlAH9No3HOwF9WgYnNQes0Y+M1oPLVr1xhJjVGyzeEGZghJiLUCoLao2oHGNgrg/q/RpYS3ws+tt8bPx7oyHvEfBFjIdr0kSvgZK7rPtPFr503o3uguE9CllfIgJ20phHw6ZccaLNn8vldKVSaT7ooIMevO6663526qmnvtbQ0NCYefjb9Ij0ig9nQN8rhnH73gQ9+JkzZ/abOnXqUXfffff5M2fOfD+ABtbBc7JLN8FREuWouhrbCIVWb5Lxyo6lj7qAsOUiijxJ4BPYo6hZVGTraoERg4ATjwfOPWcvHHroEDh6FRw0wlMBIr8Eh147VwSBn0QNYpn06MLYLsVu6AiFsFljx41efRQhJGmqkG93i7aviXado2VAv01jsbkgd1tDQZYWSqtdJQtI8bD54McaQRjD8goI+HfpfxCBOSuSRl2Gp1i2x2R6S4SCXYcGtz/CZSGWvboALW+sBhYndfmk0iWFBwyKiUhjcldcYJSp/WgqGRMt/gTwGchPRKa4u0SzjOhOVFdXN3vSpEm/v+66635+xBFHTM9q8LfpMenxH86AvscP4fa9AUrW/vKXv9z/vvvu+9Rf/vKX47XW+7DZTNou1vM88do52bH+PU0rmn8Z2VRNidK4Iphv8vGmko3fCfScRPfdHzjjtDxOO2kYDj2wAZa9EXG4HnG4AYWCh8rGEnKFWsBn7TpV2li7XgLyBHfTHS4MTUhVJjjHQRQkTHvXRcxrZAi/amGyfS21ixwtA/ptGoh3AvpUpbFasZHPm4A+3wHNhYCG5SiI2FLS5IeMeS4QYhJTHBcxqx98C/WqHv1VHYJlLVg7fQVW/30ZME8D66s8/AqBnqwAclgYK5P2gYalGiYtiHnX1BZg6WNSSlktOuU4jg7D0G9oaHjhkksuefTyyy//1YEHHkhF/2zbDS2QAf1uOOibu2Uq2t18883nP/744xeXSqXDgyBw2WmmusFMKicqIXJlJXMPc/QFaXmipR96YFySpFsqlesYpiTI778fcP75wCknH4ARQ20UsAYWWmUlwIYmZOtJUxP5d7WCHD17c+XVde8dNdZ3w8HMgH6bBv2daGtdd91LQ+pkmfiSXjfCPoZgaqSIjSSxRNul1a+GHVtwtQ1PvjzkYhfReh/BsgqWPDcPeDkG2LSWIk0Bw2Q2FLsOUvBJcXFRtW6VLk5GoYeRMoJ8F50eEwlIrBk3btzTV1555f3nnXfeC0OGDMk09Lfpqel5H86AvueN2Xa/Yq118b/+67+OuOuuu66eN2/eRAB1JkJJj8XkvLl1pT+vYMFz8/ADqqUZ7fVirYPW1hAsac8x6l4B9h8DTLlkIM56/zgM7t8KHa2Aa7UwrpkUF3Xuy05iX7tKmNEtTeOXEqjc7nbokQfMgH6bhm1bgF709pSR3qW4DjsHEugJ8hQZonKf5PjjCDa9foIy2/2yvM6iIJOFnFaoKedQ21KL0pwWzP3rfESvsOESH3cXaGWpqAPFDnoJl56RqkAU/ZIFcad3IeUV8N1NukHqXC4XBkGw/n3ve9/37rjjjvsOOOCA1Rlhb5senR714Qzoe9Rwbd+L1Vo7b7755tBbb73t4oce+uUntdbDPM+zyuy9Tppb0jI2PWs6gchExdCkyHm5SWw+EI9DBD58I3RD5vB++wIXTnbxoXMmYGh/wG9eDhVthOf6xvOvBm9Rqks7mpGWXCUVGvPI9GISsOdEJ64UFwRbAvqbE8bZks9uX7tv16NlQL9t5uxK3a8Ldb3Us69+Wkx7IVNFYlroSv1IexMePt1ptUnSQ5lywtyXCwFOvoVQiafvx5BOirVxHdZPX42VT04HXgXA/H2rEY1yVR4VzQW12WzHlpI7Ek+rt2qgr9bZT8h64YgRI6Zef/31/3v++ec/0b9/f1b7Z1svt0AG9L18gDd3e6tXr6574IEHJt1//4/Omz171tlRFHjVYXo22mAL2Wqw57+Zd2wL5cvT48IpuAgrrQLyBTaCi4GjjgDefXw9Lp1yFGqLq5Gz1wHhBjjS3J2g6xtXn3rqaRe0VL2N3cnaGrG0y5GKyhu/CPqphK3NsOY7d7rbXMOUHh8ZyIB+297gbQL6jnK74rMnz7JJQ8Xt/RsSME4XAhJwl/5KCgG99RoXUahRaaxgiNsfA1pqUHprI5Y8Nx/lNyvAuiSIFSQtChkZkAhae8l8dYqts1HS/H0+n0e5XOZ6ZdnkyZPvu+KKK353/PHHz1SsV822XmuBDOh77dB2fWMk27388stjvvWtb13461//+sIgiEY7juOkIiD01NPWmSmjVwRoktK16snEzXnSCCaKfORswNHAHkOBKz5eg5NOGIj9xtYgbFmFnMNSN9YI0YP3RfKWDGXpI99W5m78IwHyDl3MOCUmfpRkHAn0bFfHxD/VdUqAzFHvJGWbefSZBO6m70S17j3/alrpkg7SMdLTnqs3O0iPJG3AWp69Nlp8OqXyDzFCpp8sbQiq5KEk0QIuhslGIW5zAW2zrC5mRzxX1p6RbyEfF+A0OWictR7rps4H3kyEd1iH38z4lpGYNg2hzHm7AnsePyUVJsx8nlP7vr9x7733fu3SSy/9zg033PCHjJnfe8EgA/reO7Zd3tndd9994te//vVvrFixYhyAehNcNBOFdPmi8HanrZrNy8oiM2kYbyUnPwN1BeDjlw3B+eeOxdBB69G/3wagdRkFuoFKZAhGrgO4LEGiB24UcoRolPYtl9mUXnvnXHzaFiydVLkYSMRDLc56PF4G9LROpnW/5S+0gXITcm/Lf/8bQG+Q1UyhKRmPYfi0xFTS6AgQUfdBHlcD9CwgsdMmNoUcmpqaUKsc1HguSqWSAe9iHn6oUZ9vANZrDA77oulf67D4NzOAeUmZHcP6CeG1q7tOSwKruTXpIp77syVuGIZaKbVk0qRJP7r++ut/cPzxxy/acgtme/YUC2RA31NGahuuk7n4qVOn7nvvvfee96tf/eoaku3y+bwyuXirQ3ieIXtuQVCRPtmi8+04Vf2yHQRBKDo0NTmgoQBMmgh89nNHYdjQCIXcGtjYiKC1EZ5Fqp5jCu3jEHFQhrY07JwrXki5HCDvslOXkfo0E2fnVUaVZyX5e3pT9JCSFH2bV5V+bnOAn3n0mUff8dmqBnqz2Ny8R59+kp65QLZ0PeT61RyFAG/FCrZm04f2olOJW8lzmywI5Bk3+Xlu5aiMQqEABBFiP0TO9cT7D3QMO++hqbUFdYV62BUHNeUCGkr1WP7qAqx4ar4BfAa0Wkw9fVdbmnrL5XIi5ZsAfNv7LPcthTU6HDRo0BtXX331zVdeeeWzdXV16zKhnW2YdHexj2ZAv4sNyPa+nHXr1vX59a9/feyNN37tC8uWLzkKGq70jkk9lyQkz6pdTlysC5bYIWOYyU7S3jvxQjwRxzFiN8dMAD59+QE45qg+cPOrEQbLEYfNyHkU/WC9O+uK2X4ucWOYe49NsJGsY8dyoUMJ2Bug54HTrY1gZ1rJGs+LuXszcaYzpR2RvVz9GGdAb4An4S1k3eve9pVKSXTv5NG/PdCzqx+B3oItolEE+6Qtc5ICMO+WFqa9AD2BXxYAkdGkoFIkS/CUI5XzERn1roXYNsI8ZN6zVW5tUEQ/VYvSkiYse3khyk83mfw91+z07qUCwGhcdF40yykTsr5oXCRVNXzPHdtDFJISiKUfOPPMR6+77rrvH3300WxknG29wAIZ0PeCQdzcLcx8ZeawG2782iemPjv1vHUb1u4rKhwRs4JmI0s+xQPTUjZVtgNUzrTkFOJcwLIgsoIBLwYmHAZ8+EO1OO+cw+FYy6CsDVCKAjls/mEAxtS3V4NuO4hX43I7l6gT0FffVNVT2rl3fFuOtBeP49veWkbG2+aR55P5Tomfrk5ies6YFbOJBrQ/qPx5czX4bdGrTtUiXXXMlTa6VekBV7uymHAiC0U/h2B+BQtfXAC8VAY2JFksgn7yuomIX8rZq1aEliwZI22U3WU7XAdKU56H7Jk4HDNu7B8//ekrv3PR5Iv+3q9fP1b3Z1sPtkAG9D148DZ36aJu978/2f/LN91846Ily0+uxFEfIFSO6yAM2ztZphMLBTfoV1OqltMWu3JJyRqj+BHAntmU5exXBD531QCc/t6RGDOK7sNyIG5JyHC90JA94ZYyoO8Jo7RdrzEl3rmhg9qwBjUtebTOK2H+H98AXkt09IUDaCMmP6bTLG875OKkETujJy1CWEzT2Q5V/nTFr+jaupqZ75t0ym/vuPFr39nroIOo0J9tPdQCGdD30IHb3GW/9dZbA+6449ZzH/zFLz7uB9FBYQCHCULHdZO2mDGspOyHK32LLzjFPkS+M5RKNzKOHXL0Ag0vaToz6b3AV244FoMHllGXa5Je8DmX+yVKdr3Mjj3mdjKg7zFDtb0uNAV6O3ZgBw6KTh62HyHf6mDFi0uw7vdrjI5+yYKj85IyiK3ARB8S+Wjpba8chNo3Ef+8hzhgNQzJtQo6jKSWIFJo3u/Aff/vui9df+8l51/yQsbM316juHOPkwH9zrX3Djub1tp74onfjfvqzV+76m8vvfJh2MpjP0tFZjv1sZO0NrWxlUUdbha3JQRhort0qAklUs/qN/aFJ6N+/32Aa64eg3POGYuNG19FXW0ZYbAR+RwbxsTQ0tBjh91WduB3skAG9O9kod79d23JAp79IeyWCP3DfqhZU8SsP8xB44urgLVk1pJYQzQ3eXtyYwyHMELeUWgJWRlASQyyC02qwNZKSLgVdsZjOz3HWnvp5ZfdcusXv/rzoUOHrs9U9XrWY5UBfc8ary6vdu3stfX3/vib533z+9/96Lp1TUeqfMHWlZDx+KRThskhkohDR524LxtJctqCUywibGlm7w3plU2AHzEE+NB5Dq74xHEoeCuRs9bDKwQIyuvg5jSihOvF3P7WZTh7geF3hVvIgH5XGIVuuQbm7wOrgkKhBn6Tj6KVh61tqbGvrRQQLQix4Nf/AhYCWMOpwGXbqfZrldp+Xzi3nBvkOxf6LIllaB8WXNtDELJ3BcUAguZDjhz/wxu/9pVfnX3yGf9QShkJzWzb5S2QAf0uP0Sbv0Dm4v/5wj9Hf/m6z13y5LNTL4sUhmhpwm5JxyxQcUtFyHkKAbvAGcfe4D93E0/ehPP4oxMDRRt4zwnAJy8/DMce2R9RMAs5ZyMcKwBshvYY7+exOCvQKciAvlsfoQzou9X83XlyAn3sxqJgmbeKKJUqsF0LdbU1CJrLqC0VUb+2Dkv/ugCNU1cD7F0nVSoedJi8y4rOuiHvSdo+XQdoC7ZbQCxEfM4ZLPdzdRS3lop9iq9d/f8uv+fWm655RKkR7aSf7jRGdu63tUAG9D30AdFa2z//0Y+O/epNX7564YIlJwWx0wfKoQK9qM3piAp0VUIgqZoXmfYSnSsKwKucLyVubD4zfBDwlS/WY9JJozF0oEJYWg0eUSTvwvUol8rI13gmvMcvWVMkgN9D7djjLzsD+h4/hFt9A5otatn7xkEQ+QLyLF8V4C94Uu7nBRYaKn3hTy9hwZNzgZf99lI8Em1jW7TyKVvFR4l9dNirQqoI4CDn1KIUBlDSDpqVNQHrAOP+AwqLJ5747h/ccsvN9+277xGMF2TbLmyBDOh34cHZ3KXNnz8//8ADD5x566033x1r3U86xqqc0qLKFZpGL2yNKSl40zObcXzLthCyhEaicp7oaToKqM0nojdXHYYDxvooeqtQbl6LvOdAx66QeSJVgit9MvlhFwhMP25YnBV6eGOYHvgMtF1yBvQ9efS26dqlE17kQDMf58YIU5VJW8l7HusQtq2QCzz0DxuQW+Vh5QvLsfbpJca7J26XqEXpInKoUUE9axPyy/MYId0G5vNYjWMkfR1bIYrKQtSzbZT33X//J26//T+/ftppp01TaouaTmzTPWcf3joLZEC/dXbrlk/Ri3/99deH3n777ec9+OCDX7Ecu28cR0pib0KioSCHubQ052bCbg48O48gCpDPufArzRJ1p7DNyGHANZ+uwdlnHYja3Ho44TrYugXQJcFzLgpSFTApw6EDT635MGdOJE1lMqDvlgdCBjeJuyZjkEngdttIdMuJjV5FKsGbpOZEWMpcDrXtHUm8hyiGDur9OkQLfSx4ej6iZ3zTHc9P6me5bo91W3do041Pjm4ORj6P/MT+E/xuw1dR1Keh76s33XTTjR/60IeeHThwYFO3GCI76dtaIAP6HvKAUMb2N7/5zZE333zzx6dNm3Y6gH5sgGXlLZNHYwhPURGLr58Cg3HE/EIhh1KJgTlX1uYKFXlZiwXgjNOBT35sf+y7N1Bb24igsgqelN6RTR9DeZsBek4ucQL0AjAZ0HfbY5QBfbeZvvtPbLxsgr2dtHGW36QNbqRBlZkLQl2GFUeoV7WoKRcRLAhQmlXGyj8uMqV4JNey5J5UnITC4/NgQtg1a3kGDpzYaG4YKj4/ErEyN3Zdd/pHPvKR+7/85S8/NGLEiKXdb5vsCqotkAF9D3getNbqzjvvPOmOO+64efXq1Ye7rutFUaREQ9u47HBt1slz5Z0j/kOjAjuvEPqGK6O0jRwDcdp48R+/XOGiyePRr7YV0E1A2AqtWqHygWhjsapGPHirYCzEDnEM7VVvDB2KatfW6Ir1AMP3hEvMgL4njNIOukZCbtpdlsQcls3lxPOWKJwVIFQVWfYzqG5HQEHlkXNZWx9BtbgI5lhY9uRM4J8+QF+8AnjagbaZ9yf6hwmsJ0592sdHm3A+SXoS0necOAzDFYcddtjzd99992ez5jg7aMi38rAZ0G+l4XbWx1atWlV7/fXXn/WTn/zka0EQ7Ol5nlUul6u0No2SZcRaWXrtVhFBTClLAjOTcLEQ8Emaz1vAsROA228+DvuPa4WjliFuXCda23ByktuPVYs0nIPF/DxzgMzlMxLA5T5ffOpzU4DD1ORSfSsNH+4sm2TnqbJABvS78eNAVztZkTOOFxPo+b7a0hI3siIBe3m9Ixt2yH0UIhUgdEKJAvTTg1FYk8OiJ2ei8ek1wOqkFW5oCRlPM89fFbGTFL6Qf6QOT5wCRhKZIpA/WVYwdOjQP99yyy1fmDJlyptZY5xd4/HMgH7XGIdNroL5+Oeff37clVdeefWsWbPOb21tra/eiZ3lGF4n7VbJq2hCalS1CmNKWbqwucgPS5K3H9CP+vTAddcehqK7EjlVQtzaBCtX0978Ig6lgYbtOrBcDR1XoKTRDEP1nkn8SzeuEDEJfyT4Sfe4zKPvtscoA/puM313nzht8MT3m93zKHIjaMvaG+nymAAyGHlLAnPalMY6nDUI1tylRWGQGorWWS2Y94vXgNnGs2dnPPbZs5UyC4dUGKs6iBex+7QrTH85FjtmKRXX19fPvOqqq7517bXXPlJfX0/ZnmzrRgtkQN+Nxt/cqVkf/9xzzx126aWX3jhnzpxJbB3tuq7iqpltY9ONg+cpF5FuV7mLKGsnTHoLfplEHOCwQ4Gr/mMYTj1lMBzMhh03w+UswLB8pBEHASzHBty8zA5Uu9PUwlDGGwBFOHQBYCc0kdijd5+E8rPQffc+QRnQd6/9u/Hs1U11nEhJpSvfTUOejSGd+WJTdcMkXyqdweCcywodHSGyKvL3gmpAv6g/grkVzPvzTODFFtMkhwGDtCte2v3OaOnI5joOgkoorXZLpZKJDhoSYKyUWvyxj33swW9/+9vfrq2tzbTyu/FZyYC+G42/uVM//PDDB1977bXfWLhw4UTHcdwwDKs6zrHuVUuozKXLHsfQImJjiydPp9tj9C4APAs450zgqisPxiH7Wyg1zUJNrQJKrYBTK9rWKq+lBpc1t6JvzxBcEBkSDtl7MlG4iOHC0uxwxemFq/ek2Fa8/Myj77bHKAP6bjP9rnLiNipslRZ1eyc9LV62lOAZd9+0oqZjH4dwC6ZlLsV2LN/CoPxgFBs9LHluPhqfWgksA7DRrOulw530p2RqMNHUrpK/zufzKJfLcjwCfiSdc1A57bTT7r///vu/NmTIkFW7is12t+vIgH4XG/Ef//jH+11zzTX3rVmz5mhFyemk95QI3vE9JRu+qnwuLaPLeTkEfkVaz3Jl378P8MUvDMMZpw7D4AGNsMIlcD2KZdDjZx28QwYfAqciNXMq1LCZBkgni3T2ULaU58XC1ecFsYyP+Xk/EcvJgL5bH6EM6LvV/N19cuk9L9570jJXUmmm3I5+fBibWnouxk00UMGiopZt5pMwqggnh7r2dB50qFBv16OwMY9wbgmLfjkdWJJI6PqAwwgiFbd4RObmJYKozeKBv2OTLNbzi6yugqssrbVuPf74Y39yz7333bT//vsv726b7Y7nz4B+Fxl1NqW55Wu3nfb1275+o++XD9IqlJLWtMWk5eURV8qGYc8QWiJXGbkKsc/6eRdFK4AdAwfuB9xy0zi8a0KNEO4ctQEWyL5N0FvK4wqSc9cqkHy7TAzirctyosoqdO0lGy/f5YGRP3NFv7WdvHcRo/eGy8iAvjeM4na5h/Tt3TS+JjH9Tc6xSVGsaN+bCh07clFTKaB+QwFv/f4V4LkAWAejqifZwbxpax2XDPue5F1R4krLbZk4IIOfdUC2LiMqjZ9w2EP33PuDW8aPHz83I+ltlyHf4oNkQL/FptpxO27YsKHh+i985WPfv+97V1uwh2krUgyr8d1UrgUdGEBVUidPFqw449KcRnrLKKCGi/QA+MCp7DY3Afvu04JCbpVI1wpjvgN+M+eeN79LmPQ77u6yI+9QC2RAv0PN29sP3nlxQBIfC+MjZcENbfSP61HfmsPCp2ag8Yn1ADPtzNtXmMazwTY5DOWbQl8NO+cgCioJ4c9kAJNNk/C/x+gRU7/93XtvOfP005/p7bbdle4vA/puHo3ls5cPvPb6a6775cMPXR5rVaul2XQsevUUvAv8EHnPRVAhWNuwLAchQ2yyXg6RswLx7mtrgKs+rXD5pe9CXWE1bL0GrmqFxZx7ypwnqS7RthLc50JClgqZ4E03PwZbf/oM6Lfedrv9Jxlfp1w2o3mmOZUVO22qejSPHSvYvkJ/9Efj9LVY9utZwCxD03GbHYRwJezoWBUEsXEoeKSclUMlZh1/DJVT0FTfiUnntXVdbd2/7rfmlQwAACAASURBVPrut26eMmXKw5lnv3Mewgzod46duzzLa8+/NuhzX/rCTX+e+tQlMcK8SNLDgldThN9CbcpEctY0jJQyupBaVIl7nsuFcHxg9Ajg89cPwDln7wNEs5G3m+A3V1DwSNarDsOz3o65dsPK5Uue9ZLvxgdge5w6A/rtYcXd9BhpHT4Z+I7U4bO2PinSkzmiEpfhOB5U4KJv1Bf5pTZm/+F1RH9tBVrpI+QNeZcVOlTOo/MgExQXARANfeNIsOzOTkjCVlyJ/WXfuPO2Wz9/7XU/UoqK+9m2Iy2QAf2OtO7bHPv5558f9Okrr771zdfeuCCMw2KMUNkea+Bl5Zuo0jFXZoCZjNdYYD6AnYtF2p4r55MmAF/6/J44ZHwOeW8twtJaUb9zvIZE/54FsSYNYBDeSUDeaNQrkc7MWPPd9Bhs+2kzoN92G+62RyAJKJTIHsm2VmzDjh0h89ok2TGyWLTRHJYQaRsF1GJApQHeSo3Ff52Fxj+uB9YnnB36EyzbI+ZrU5fDX3GRELIlrseGWMZFsVhrH0ZxznFWf+ozn7nt9jvu+O8M7HfsQ5gB/Y617yZHZ438M888s+9ll1120+zZsz/AvlM5L6fKPlXs2jkzJMUyTW/DE5DnVyRLaHanA/J9gFPfC3z1moOw9x4l+P4iFPOm4DVqpehNn6RMLgnPpdU1/DDDdSpIiHXSh2onWyE73XazQAb0282Uu9+BCPQmux4nSne26OZT0z6GtiK0Bi3I1dXAty34zSFqdQ2GOAMRLW/Fumkrsfr3KwAq2xv9LBHZYQmeV/BQKZfhOjkE9PgtBbvoISq1iCNTly+iVGqlfE/piv/4j2/ccsstdzc0NLByP9t2gAUyoN8BRn27Q/7pT386YsqUKV9atWrV6Roh3ykhu9On5uo38H0jbMFS14RDRylKhu0dVJCzgXwNcN4FwK03n4CcPw95pxUIA3mJbC9pNsNVAmNppiethNIkJy8EXNbA06NP9CwzoN/JT8F2PF0G9NvRmLv7oZImOdINr4q3w/bWZP5qC3m3AB1ZiCsh6sMaRDObsfjh+cBb9OhJKnLEnbftGBE9eSkFZgqR/4phO0Yul9Qh1tprHbH8zv/oRz96+1133fWdvn37MkaQbdvZAhnQb2eDvt3hHn744cOuuOKKOzdu3HhCpULaqmGuWHwPfMbPzK/M0jh9SUzei+E0wvWQAcCVn6rFZR8/CCqahXzcDPgVOG69oeHzAFErQNEcvk0ic8kGFMzPkwTA1QM9+lRhL6uD34mPwPY/VQb029+mu9MRE7VLU3rLMjn2u0jJvnQMSNDTcC2XVD1UfD8h2LnIw0Pf5jxqVuTx5q9eR/w330jnag+ohALqKdjnlIeIFUNKwU+VPMXO1O5Q5CC3XHDBBXfdeeed9wwdOpSK+9m2HS2QAf12NObbHepHP/rR0Z///Oe/tmrVqonUsTdL3YSiKivoHOKIUnSOlM4F0Qbx6lMY9hSw997AV27oh1NOHgY3XglXtwr4Swc5aRvLMD0FqiV+Zr5kJZ0zQC+K+GTZmly9uYa0Hn4nGSI7zfa1QAb029eeu9nRJDevY9jadMsgAS+wyRiyxEGnvgaZ9zkGCKndwUijYiySRF4LXtnCUG84SvMqmPfEDODZspHO5YcpzEVBnrapjh68laQKWH0fwbZsEfKxbVtHUbTuAx/4wH/fdddd3x4zZkymorcdn8UM6LejMbs6FHPyjzzyyPHnnHPOLQCONPLQibiEisThDgN669SSz4k+tWNR0apRWtVQ1Mp1gMMPoQjOwTjs4AAFezmCpg3I1xQpbSXtKWUVLVF6gnwV0BMIpKVkgutJpAAR6+gZKjCkvGzroRbIgL6HDlz3X7b48Mo0vHGlOZaZQojRPrlzSSSReftcGBstfVHF1ggsdrE0ZXTljT4GFgcht9LGvN9MR/hClU4+eUbkGyVTDFOQZAZQQpckfCp9cj4Uwh7dD8dpOumkk37w/e9//xsZ2G+/ZyQD+u1ny02OpLV27r333jM++clP3ux53n6+77fR2yU/FRv1qJxbg9aAISzm0emdR/LS1bgtgsHvmQjc892j0LdmJTy0wo6aYMVGulZbpnkF+1C3dZFrE8ExQjuJOqXx6CVnz38yesBVd+bR78BHYMcfOgP6HW/jXnqG6qY49NpNPb3h8pi/cb4w3j6lr0WNk2qaXAxQ/pbevR+htrYWQViC53soNNVh+V8XwX9stejk22zTEWlx7umTcLNcG3HFzEOOQy9ftzXrYlfOIAjCY4455sEHHnjgi/vuuy+pftm2jRbIgH4bDfh2H7/zzjsvvuGGG75aqVRGyfPtukZPuq0pjYc4ovSNg6BNOpKqdxpWFIpgDpvSfOvOk5H3/oWiuwExnXWuriVSHyCyzcra5jJcelJXheTTevm2i+SLm/zQVl5PsN+BRsgOvWMtkAH9jrVvLz562uZWbjER02K5LT13SRkS3BG2K2uKpj573TP8bhkHw7JQ8pvh5k0jG11yMKjcD+pvrZj38AxgIVDw8ig1l8WvYMNMzmFgWa/00TV19lVePTxPSvLCI4444sff+973vn7EEUfM7cXDsFNuLZvid5CZv/Od75z52c9+9rtBEAxXSjo7tJ2pvZUjQd1DSFCnpG0UIm+zz3yAvAdcdCFww3UT0Ld2JaxgnShG24Ui4pYWWPkiIr8EFs1rFUn3G7Mi7zik7E0tr63k5NO+1PTiyZrhltXR76BHYOccNgP6nWPnXnkWatvTUSBwk47HfD2jg4AXM2AYS6OrtPVtaMWIlI2QgJ5ob8R+jEIxh8DyUfZLyFsW6lALd2UO7iIbc382zSjpMTLPKSgtsBegZ+y+ozJnsVhEayvLiGVrOemkk37+3e9+95YDDzxwUa8cgp10UxnQ7wBD33PPPe/9whe+cHtLS8shRFLbbiOctIWoCPYmb2VJ+CqOfDjMlQGoLwJTPgJcc83xqMnPRcHZKIz6SnMJuYIrNP1SSwmFPvWIQtbfh+xNZbx1mfjTonkTmueLnAJ9GyGP5XVtK/lMMGcHPAY755AZ0O8cO/fis5hcfXu+nvOIx07V9OwlXB9L3p45e6OFn8hnc1HAnDtZ9HaEmJU8uiIFPUVdh/7BQNjTNaY/8DKwmPr4SW97Tk8kAWglnfWiKOjg0UtbXa3huq4OgqDxhBNO+J9f/vKXd2Rs/K1/CDOg33rbbfJJsukfeuihE6dMmXJba2vr4ZZl2fISaN32IBuAjyXMJUDPonkrhh3GyClgYB/g/33MwmevmQgdzQL0Gli6FbZj2sT6lQBeoRYgeYU9n0XilkE0htj4ViZhuMSDF+p+wqZtb2DDN5hhfC4AsvK67fgI7PxDZUC/823eS84opXPy/DCKbhRvjDS2qZmnE8JQvfH4zZaG8vkX7mO7RbS0lIRi53oWAl2BZ1v0bhA3xhiIIXBX5DD9vpfEs1ckHW8I4CYhe0nbJ45Qx7nRsPdYeue6bmnSpEn3/PznP7+jvr5+bS8x/069jQzot5O5tdbqd7/73fEfvuDDtze3NpNd3+Ymi8Yzwd52EEa+vDS2y/7QiVKOBgoK2GMA8KlPFHD5lCNg6Xmw1TrYeQt+SwvcHKBsW4Qr+B7alJb0WZbCGECn5jQC4CykT+rz5AVm7XwqX5XeNHtXZ978dnoEuucwGdB3j917wVlNjbzR7tAiokWv3HB+hJtHkS2p/TGgL4I32uTs+V263JETZLkSiRQJDx1AIxAin8vSuZKFAXownIV5zPrF34F/BNL9ziOXWBx8S6L5+UIOpVJnyXsLlnLY815DqeCSj3z4rm/+5ze/PnDgwKZeYP6degsZ0G8ncz/xxBOHnH/eB79baa0cE8SBTaILnWkdW3AUS98Sz1sBvg7amshZIZC3gKGDgOs/1w8XnDMGSi9APhfAb94Az82b8LtVkZcvLXFRSc19e2lcpxI5AkCH0U3/Xr1fBvLbafi77zAZ0Hef7XvBmdsX+olgTtWcYQruuFXPE4R949/LYkAWBMZhMBGCtPV1hNgKTSObEjDIHga9IMK8X08D/qaBZiAXGKB37BwqEeP6MVxXIQjM8ZXyEGsbtsfWtyUNFbZ++jNX3vSdO2/8vlIZ2P87j18G9P+OtTaz72N/emyfyy+5/JtrVq09zdaxHerIlKfIUtkS+dqcVUAYV0QkgmEyKw/EAZDTwNB+wDduG433n7oHbD0Lnr0epUYfhYY+QCtXzoY8F1umllVy8THr7hn2z9rMboch7LmHyIC+545dD7/ydta+6ZdBoLdj4/kzekiSMIV1HMuFLlvoU6pHYTG7380AnvOl+10OHsKAanwaDE6GCci7bMfNBjnKRUxSYN5BFJY04nj1tdd+5vY777jr+0qpcg834U67/Azot9HUzz775MhzP3TB7etWNZ4ThWGOgS4y6JXloByEUCJcbyOOHFiWQhz7yHlA6IdwFTBsMHDf9w7AMUcPRKVlOhpqmgBdAvgIC5AXkzQ6PXquf5OOcwR6WfbybTByudm2G1ogA/rdcNB3lVs2XH3ZNMvynMSzZwQyFAW9wAqMKE/soo/qiwHlBpTfasScp/4F/VIFaCQjn/1t27t28pCOlPuRYsw0QKKtx2fdiOivueubX7/uM5/5/E+Uyia/LXkaMqDfEit1sQ9z8q+88uLeF15yyS3zZs89Nw49hyS7ukIerSWTQmLoXhaotLJNJToNhBUBeE8De48Cbr99Hxx9VBGeswYe1kNFrdA+4NQVgWZfPieRARVIKIy1rdLbOUqAnsp26cu2lfeSfawHWyAD+h48eD370im+JY6HRNrJQ0rC9xLWj+UrcIFS4COXr4ETOHAbLQzzBiNY2IiZ//ca8Exk2Php23oJUDIKKnx+RKwmYiWeRAqM00ROvgW/9J277/x///Ef1/5cqbbGHT3boDvw6jOg30rjzpgxY9SUKRd/7eW//WMyZW0t5JQISEi5aIwIDNObchRhnVDLlgpREVDvAnsOBv7ztkNw0kQuAObA1q2Ig5KUmopSjpSfsOONLcQWdpwzHn2SDqhWtsuAfitHsRd8LAP6XjCIPfMWNgf06d0w1Rg5QGgDfqxBTl1ee6i3a+C1As4Kjbm/nQn8wwc2JmBfMiV7ymHZnS+H8jxLZMJNjy4HOmbuP469nN16373/O3nKlCm/75kW3HlXnQH9Vth61apVtZMnT7576tNPX1jwcl7FDxSJI6HmOlRJ6F7HrWDlm1tQKFPukYtR9pFnuL4v8OD9J+Dg/Vlm9xa0Xi0LALfAbjYacQuV7zxZvfJzDIOJR5+Q8UyOvkrCdivuIftIL7FABvS9ZCB75m2kktpWm1BXKsplOEohK348G35MbhKQc1zoSgArjDHY6g9ngY23Hn8DeMbk7FExUQGpEqJXI+XC9JUMITDSMXKFPColWQTEtbXF6Q888MAnPvjBD77QMy24c646A/p/086slT/rrLNuffzxxz+lNAo6Nk94LK3mbGi2dPRcBH6rAHtb/SlB3wJGDQfuvnMfnDChCFctgZIaecatHMDnw+tIXanUybP5fFyGqNtJKMyw7tvq3zdh1v+bN5Pt3vMtkAF9zx/DHnwHKenYCHCa2c7MUUafI4oZ3VSwc4xMavhsqc1UO2W7y8AwZyjKb5Ux/w8LgJdajGcfGFB3XRthHElPkELOQ7lsPHxujlNEIOL5QbDHHsOevv/++6+bNGnStB5syh166RnQ/xvmZZOaq6666qP33HPPV+M4HmJBSbd3Cj1wxQpLSa27jkIo24EOQ2k5q6kUZQMD+gJ3f2csJh5fh5w9D1a0XsrvlJtH1FyB7eVZIA8EFS59ocstUJ4yrHtuqcSt1MknJS/CyP83biLbtXdZIAP63jWePehuDMizCU6aYE+FuNqdEUc5bFIjcyRTmCHr8CnZTa+HPOIWjZHenojnaEz/7evACyUpx3PgIvJNiZHFMH5I9U+zlnAdF2UGOXlAFWito2Ds2LGPPvjggzeMHz9+LkV2epAZd8qlZhCxhWbWWnv33HPPGZ/61KduBTA2l8upSsX0WhYHnM86nXoBZko8mubNHiy4cYQRA4GbvzoSH3j/cFh6DmxrgzSlkaUCc/EdhGsSdarkeSW3VXTqKU6RqtmZ+H3WfW4Lx6/X7pYBfa8d2l39xkxFvWmiJelFlg4n5b5U3JPa+tgG29ym+h+cs9rK8lSMHFyEjREG1e4BvUhj1s/+AfwjBpoAJ3JhKcvojpABZSsoMvQlbOAiirmAYO4+1mTfT5gw4Re/+tWvbhw1atT8Xd12O/v6MqDfAouTYf/www8fd9lll91RLpffValUxJ0WnWaRoOUq0zYd6Pgzn/1kkZuPgcF1wO1fHYZzz9wTrk3R59WmnIR5KMpDi+BEqjVNZSoD7bJSlok86UrXJlkrr1Y7yGf95LdgFHvpLhnQ99KB7QG3JfORa5rQKZbBRaKwRyCn12Ma5DhgC1zW10vKUZT32ByH85tGFPoo5oqIwhj5ci1y8x3Mf3wm8HwFKLNsSQkDXyZIaeFNu5hjcJJ0LEf6h2ittWVZwcSJE3/6wAMPfG7EiBHreoAFd9olZkC/Bab+4x//OO6iiy66d/Xq1cclHHpppej7vpGy5SpTJGcNoS4oN0M5jrSa7VcEvv6VIfjYh/aG8mcCVqsAfKQVIspE2qYMJZGZ6PA9bVDDHtHGk0/3SlYRAvBZm9ktGMLeu0sG9L13bHfxO0sldOUyFUVvIlM/L13uDNjbAvQWnMgI6qQzWChtNpi/jyRb6QdlFJHHUHsYmt5swqLfzAReiYEWNujMQ0fcV0vBnVQx6SSdmXxL+tjzpMHFF198449//ON7lFLNu7gJd9rlZUD/DqZ++eWXh0yePPnH8+bNm8h2s7Ztq5BEORM/Sr5oxqQPPJWhlSGceP9/uv2Gz+VxxUcPQ72aD0QrAZulcxFQqDOa0kI1ldYOnTaGuxIt+s5hfQnZp5/J2szutLdlVzxRBvS74qjsFteUNsVh9a+R4mbonp3uYrClLfvWG6/eghvZ8p2baOSz2phKn46CH5RgW6EsCNzYw0A1CE2vt2DpIzMA0uvoG4nkd9Kzg1NtkrmUqTDpdpc0xdG2bc/73Oc+98XbbrvtUaXSNp27xZBs9iYzoH+b8V+5cuXgyZMn3/SXv/zlYq21KNQkK8fkU3ziTFMZMkgciyx5Bx4qskq94pPAFz93JHJqDuzKerhFEu1MMl8TxB0POjZqERL+YpdnyQQkOfmktMQc32hRywtVPWqJgtTu/RjvxnefAf1uPPjdf+t03NnO1pZpTcssRW+dtfMEc2Hg0w2KTPg+BXoS603In+nOCEWZOyOUtY+iXYN8ax3sRTbm//crwGyIUqhrWQhYTJ9MhfxOcE87hMrMaUA/rq2tfeOee+75/Ec+8pE/Z4I6GV97s2/KsmXLirfffvuld9999w1KqSFKUaKhY+MYNmxQlouYjHsEonjHSjl+v/gi4Ks3Hov6mnmIK8uRz7uIWwJY9OhF80lL6Yhre6YEr425mtahprV5HRmtcsH/H3vfAWdXVW+99j7l3js9ZZIQQAREpAuCIPBApCldmiEiRYrSQRFEBekl9ECoCT0UKQnSq4BEH0qR0NJIgDTSy5Rbzjl7f2/tfe5kQN73TGYmM3dmH38xZOaWc9Y+9679b2sZomcjjHOf6/6vum4+A0f03bwAffnttS07si1JSUP4tLUlgRsiN7xOaxxtiL5M+twAxCRojtgxUEmU8cljSr6IggmCqlCNgaV+aP7Hcsx+ZjLwQepnb5Lztquf1Xsm9MuH7/soZ1t930+GDBny0j333PO7XXbZ5R1+fffllXIR/VesvtY6uPnmm390xhlnXKa13qhUKhmcstksCoVCW6rIPDWdcsuEHpJiguoAOGAf4Jorv4+a4BP4cgFKhRaEWR8yU42oNUK+tRV1jbVQTc2QImtr78ZGNq25l4dDTJmLDXlpqt6cBVP1PhJk0rePjEe0O/ooAo7o++jCd/9ls+ku9lL1utiHr2zTMFP2EX09DLPHEFrBVxpeWldPGPFLduQLVIksSoUIpUBDexqRihB6PnLcJSxLsG711/HZ69Mx/6nZNrJvAcIkNJsH/o8N0GEmMP1SjOx5ZDIZFItUKUO82WabPfnQQw+dsfHGG3/a/Yh13xk4ov8K7B977LHvHfeL429ctHDht5lNN1aLTJyXrWal5EiHjaxTBINUEGeP3YDrRmyHdYYuRal5OgLe6JkA+dYiwkzW2i5yDE8VIEzHfiYl+nLk3u6EykTflquyRK+NfaMtGbAfwBF9932Auv2dHdF3+xL01RNIpEaSjtP5CZvurLENA5dEsNm4PFcfw0t18U2MbyJ6pvs9ZGLfBE4tfmJ+5hsfjwS+4uidDxlJ1McN+PSlz5B/YiEwF/CKns0QQCKGQpQGOnwdM73EL23PQ5JoDeEVD/zx/hc++ujD1wghWCftk4cj+i8t+9tvv9144KE/GfvJ9Kk/MKzKnaXwjdVinJQgmDdiTO35iJLYzHHy5qoJgM03Bkbf/l2svcZ8+GoOAvaBJOzGl9DSjp1YqUjuZtt5PLetwpc95dudXFvmyTYA0k6Ch3WP6tNZqT75wW27aEf0fXv9u/HqzbdOOzU8Y7aVNg6bXrnyyHv6/VSWyzVNyEzbK2FKnTyKXjmVr0y9nxE7j0hr5EQd6gr1mPb4u8AzrcASwGsBcsiigCJiy+5W0yQ1E1Ocs2dW38twhm/2VZecf+yvf3f2831VTMcRfbsPyueff159xFFH/OH5Z1/8DSS3p7azhApMvO0CUwPKm2cEfgZRXDQPocjTWmsAo2/eBt/dsoAAn8APitD5kvFTNlq4VH1O5+OtQE46Muf85Lvxq6oXvLUj+l6wiH3zEmwjnyX0mFbeafMeU/x06eT4XYmp+aAW8XKJhtY6fPbkZODZZUAz4OftvJJJfPK5JlNabshn1d9OJPm+pxpqgvdvuun6Uw857GcT+qK1rSP69DOmta464YSTfjZ69O0XAHowmzp486T3oX0UbyY2mVC6EQFyvobQMQYNBC68qB/22nMt1HpLoUuLjRqeoBetLtqtpg7aVKTMJth0y9Psxvgy9s1PurvqjiPgiL7jGLpX6BYE+D3I3KSJ3OkTkrIRfx6qxNT06UWvtISKM2gMhyKZXsL0cW8DZS/7iF53/C41cmXWLVdxA2GKABCBNAEZ65vrrvu1l/78p3FnbbrVVu/3teY8R/S29p654qprf3zBuedfUCg0fyOQWpYV78zUiPWrMamgcqqedxWH63I+cO45dTj+hI3g6Wnw4wICRvBJuYGuYIjeTueV5SKY8eIdyR85P/lu+ZbpLW/qiL63rGSfvA6m8zXr+cKm7ikdRoLPpHX6wBNoLSXwqupQapZolIPgfRZhyn1/s534TRJelIFC3m4UGIyZHubU7a48jsw4K8KyA/c5+LY77hl9eUNDw5K+BHifJ3rK245/7sltDj/kyKvyzfnthc6zVw4ebz7ehFZWGRFHOtIQnw/waTKngVOOBX5/9k4Ivc8QeIshEooxMX9Ulmuk3Sz3rUxNcQtbsGMmytbuTbe9i+j70meuc6/VEX3n4ulebTUjwNl7duizgc+qf1qijxGwU18kxjAsymahVIgwzmGQ6o/md+di1tjJ6Yw9y6M0rE+VxU17MjcQKfFzRJ+ut0JqhWDemb/59a+vvPySB/pSvb7PE/1Hsz4asP9eB187ZeKUYSy3h5RkFAqxmQlNVWfJ2SaaZxMdZz6tkc2hBwPXX74z6qrmIG5dCKlbTRe8OVg8ojRewjE4WjTSj5kjdLauL8p+8o7kV/MXSy97O0f0vWxB+9rlcBbf1uipmEeiZ4NeqGL4OoEiQwcCrUYqN4ukIFHn1aGhNYN5f5uDpXfNApaaFijT6Ozzi9uUAmys5QdAXGLm1UchUtB+oCHUwttGXX/Icced8Ne+ksLv00Q/c+bM3Km/+fWp4/70yIVhUBXGxo2Oc+k2q84bhYI4SaIhpTK+yIzDsz6wxbeBa6/ZCpttsAQozkHUolE1oAEozm+brUfC9Hy1ufG0l4cSUXnsvtysmtbq23Xg97XPubvejiHgiL5j+LlndyMClPyyBjcxlfG0n0rmUt+ecX5sxud0oIwwTqkYI+vl4FN7pKQxWK2BSQ9+APx9CTAT4Ei/UehjnMUYq2zwaXoBJCQnpZSZ+1drrjXkH/f/6aGf7/y9nT/qRgBW21v3WaLXWnsXX3zxj8497493wPMGIubkpzWXyWQkWktlD/iMCd+Fyhv1JvbXNTYAo275JnbZuQ6y+CEyYQzEWST5FnjViU0F8O4VOWN2oxnJe81tXaVc3TbHZCdhu9pu9l75Ro7oe+Wy9oWLYn3eTMIbgR3bIU/BHZZErSdOTEVxxLoEj7r4bK6LaRDqmTn9XFSDoa1r4L17JgB/KRoxHWbwTZsziZ5NefxW58y9kFBawfOoSGrG8Zp+uNcPb7z/vvuv6N+//7LejnefJfrnn39+g6OP/vm1s2d/vqcwt1O7znemfczKmyS9qbELVURWKNTlgCsvWxuHHrw+SvkPkAuK8EQewuTq09kOPkex+c761Wo23Mm89asv69ebL2g7U+8Oh8AqI+CIfpWhc0/sXgRI9L7m2DFQknYcjkTPw34rKsQmRE/A6rodu+MMPjcGNMvx0BDVoN/iOrx369+A9wAsB7xYgk18UZykUmMrNEfK37ZKmG3GrFNOPvGSkSNH3iuEoLtYrz36JNHPmDGj4eijj/7Dq6+89ksJWSVMmxy3fybWRpJ6wJtWe9aIEKHKszr2559bg2OP2gIy/hTVtTF0odluI6WtzQvFmfvQ1OBNzcmYJ7GAlP6eDzIpJdburT+za8brtZ+vrr8wR/Rdj7F7hy5BgDP0vuakPGv04NVX+wAAIABJREFUoYnStbD6IsJ00lkJXduLb9P85a9PyuhSnMcrJWhMBiCeBHwy+j1gDjvxgSx9SLREIYlsU14qqNNG9Oa7V6iamqq3R40adebPfvazXl2v73NETxe6s84666Qrr7zyXAHUhnZa3govcISOdwXzPozGjeJSAVVZ00OHfX/Euvy3MWTQEhQXLEAm8L/QZGd2oipnjB3sfOgKErdA292pFcxhWl/aDYC5md3hEFgFBBzRrwJo7ik9AQFD9CaQstr3ifAQC2rls9ZuTXI8HbfV8Sk4ZgkeCDi9zDl7RMiJGoSFflj0z8VoGjMDWGjMRE0/lanIk93TTKqgrG76XczKP7+Q11t//UdfeeWVX6299tqzewIuXXEOfY7oH3/88a2HDx9+U0tLy3dCKaSn7Agdb7fYoEGCT2HRkQnyMxLYdENg5DWbYastm5Bf9gnqqqpZPDK+8ImZ1eRWge35xs3W/Jv1J+PeZG4y3nbpwS9natWb8Q9H9F1xY/eZ13RE32eWurddqE3d23Q8R+tiKQzh21l621gXpI6hdMkrO+Lx+zSTWFU9ESZoaS0iGw5Ev0Ijpj88CeqFhcACQJTSqam2711uDkj0/OJlWl9RylzHKints88+V996662XDB06tFem8PsU0U+dOrXxRz/60c3Tpk3bn4xOyUQ/TemQ0k0rHhHxuecrGu7OKWDwQOD6awdi910HwE/mw9PNEJy34+yGikxSyWwb2wjcbh2ESdundXsSu6aBDefqSfDca1Jiz6Xue9sX2Gq9Hkf0qxVu92adh0B7ZTzm18tmN6YpL/W5p7kNjxXWt/Z3GU4qk6plZH6XIEC2WIN+ywZi6j2vA28ogJRdtrHhd26bYh4fz0n7FaEXgMV/+MMfjrjoooue643+9X2G6Nllf8ABB/zyiSeeuEoplcnlcqKQz9uyvLmR6AjHbjlydgxoawSb/Z8g/byz++G0076JpPA+QpP3SaAj+iYD0mwKzO7AGM20ddObdHxK5G2St6GtzbM6kKbs2x7feZ8f90p9CQFH9H1ptXvdtTK4sj71K5qhzdewYWFa29pL5hATFfTso6RJ7TP2j3WEMBugpVRCFjWojfojmVbEnDvfsWI6rbYyukJe1ybuTU9WeqQ+9kn//v2fu+eee07ZZ599pvc2oPsE0VP9bsSIEduef/75d+bz+Q3L5rLlnncjjMOUPVVwjOZtZDo863PALtsDI6/cAYP7zQPUHHge5zuowBBCFUqQbNgzX7a2W9QUAcpOc0Yovwxxmjow8/l292puWdN40ttuK3c9qw0BR/SrDWr3Rp2LAEmeHfT2e9B21Vs3O6tql0g7Y8+DhM/vSv6i7GfPn4daIo6KEAEboAUyKoeGUh0WTfgcix+aAcwGQqtCbvqwaIVr/mG/9O17W9tx/qv1u9/97r1jxow5f7PNNpvXuVfbva/W64meJP/KK69seMQRR9wwc+bsXYTQHn3lPS8wnvKUs42NSw0NkgMraC9i9MsBazcCD9yzDdZbezmyXhOglkOrZojQQ1xKwJ2gZWxrHWvuHhPJpwRvbqRyn2ca3aeKTXZiXzii7977v/Lf3RF95a9hH72CMtGb5jtD8v9O9IaYSfQm7W678Un+tLVlQCVKCWqyOTS35BEEGehEoVpXo7HUiI+f/gitD80zI3eUOuFRsuP6tinLxF5mOp9D0Pz+5v8tPfLII6+86667bhBCUM+8Vxx9gOgX1f1wrwNOe/n5v58RJ2ggMxtXI+Eh0fSTV3Z5UyT4V0YAg+uAG67eAD/cNQNffgbBpj3W40XBmtyw5t5G7mVCL6eD+Dd3n+3ukTY/efszm0py0Xyv+BR150U4ou9O9N17dxABG/DwSEOf9oVzDj23ZT75nWv/UbYR0VJDyMiM0ck4NNNStLY1Y3exj4FNdZhywz+Af9kufLZMmYGqdl/THnx4wkdJx/A8wY1CUl1V/cad99x72kEH7fdWb9HD79VEz7r81VdfuMc111131dxZyzaiTpJN4NDgwEdCP0MRw88GiIuR6a1DBFT7wDHD6Uq3HeqrPoEQC6GVoMtdWxc9bWrN8SUC7+B9757uEFg5BBzRrxxe7tG9BgElEiNGxg2Al+QglW/S/WRybhDq8jn4kxQ+u2cywKp7K+B7AQQ8RFHB+NdLFRhGEJ6ESoz8OU1xS1tutfXdj4579LfrrLNOr3C569VE//777/c/8KB9r58yZcYwoX2fOzel6VtM7XrWZdrf80zjK1T5wFabA3eN2RZrDlkCWVwMz4gmFdIOenbOl+1muVHoNZ8bdyGViIAj+kpcNXfOnYKARmJMxNicV2Wsvzlyx7y8FApBEqAfBuGT56ej9d55AIVuS76J+DVKplrLWM8Io3GDQK080wtgcrGLz/jNb4ZfeeWVz3fKqXbzi/RamtJa+0ceOfyY+8Y+cK1KkAMCo3fM/A01j5m+1yYVZJSR4SFGKIB+NcDDf/ovbLrxIoTeLPic16TRjcinGSaa1PB59K1locdJ2HbzPdy3394Rfd9e/z5+9cb62wiVBbYT3xjYUGSHo80SQlShdmkdpt35L+DNCFjMfQCj+lQxz1AA9U+M/j0CybZqgSTWqrq6+v37/nTvIXvvfeCUSoe51xL92LF3feeII496KokxKAyqRImG8lxJjs6VD3OP+KjKZKAKLaj6n7j9t+d4OPa4zVBTtRA6mg/B2g3rR0SKj09qLLkbSVtH9JX+Aaj483dEX/FL6C5gFRFgkl2sGM9jw54lNNb7aQuuoLwQuVINgk9y+PTON4GJgF/woFVii7jtLUeUDew5Vp3yfvN2O21//SOPjL980KBBFd2Y1yuJ/uOPP67/8Y/3uXziex8dAy2DMMjCEj1N5dO7wTTgcRbTg0wiQ/KH7Cvwxws2x1prLkLz8rmorQ0QR0zZ27ifOvZQWXtXmg3DF3L/q3i3uqc5BDqAgCP6DoDnnlrRCDAFL7JmNE/qAnO0K2I4nZjGvNgXyOoa1JQasfD1eWge/bGVyOUUNIP49glZ+pel7nfpsLROfEw987dnnXPpRVc8IawCWkUevY7otdbhkUcOP/aRB/90bqT04CiGYOOd0jFNju1WLZ2jFEzlK1rQaGy6HnD7jdtgyy3ziFunwM96iIp5yLTnTip2yHNmPl1nYdXs2ws9VOQd4E66shFwRF/Z6+fOftURYAu9zhjNe/ZRaVkyo3eM8j0a0pP6kxLCbDXyeYE14iGYNvoN4JXIGN9QEqV88HmmKTtvGvJQlQlRLJYgA1Gqb2gYN378k2fvsMMOn676yXbvM3sd0T/33HPf+tlhw65btHjJbmb0kvjyKtup48hAQJWscC0fUJsFzjwVOOOELZCTc4B4AZDLAEkJip0ZTOmQ5JUwN5VpzTS2NRLSqd107x3c19/dEX1fvwP67vVznE6xoq7gybyRw2XXPTuupMrCUz5CH2hqbYGsyqGuWI0Bs6vx/q1vAB8AaAYy5cDN81FMFISUdrpKJ5C2WY+PWLL/Afv9cdy4x8eItmatyoK9VxE9U/bHHnXs7/7617+cJgRCI1HDZWqXnmEUrylT75HI8/A9YL8fAaNv2hY1/sdASxOEEcBnmp/JIBuzm1IOSZ5frOlInZVqdM14lXXL97KzdUTfyxbUXc5/jIAR0GH63mrerxArYzmWlXbfkDbn44Uqwo8kqqMGLHlzMZbdOhNYAoRFtmnzCFGAQsIoLvCBxPqU2O98KAnMufGGG4484ZRTXv6Pz68HPbDXED0V8K6/+vr/+v05Z99SjIobsu3OCzyjemfG6MyVcsEDhH6AJM4jkAqDBgKjb90I22/digxmwTO5H20Ma1QpMtKK9pmp+Uz5i1Xark1Tt3ed9z3olu5jp+KIvo8tuLvcLyJgRXWMu7iw6nplczHF/nnPg44iZHUJHoM8nUVmSQ6Ln56JlscXG9W8GmUG8pBwvopqaB5LApEJ9Ej4HnMECtGGG3zj3hf++vqpQ4YMaam0Veg1RE9nut123WnU7M/mHgAg8DxpUjErOJgE7oFCN3aULoL/P+t47nk+fnnMlgjFHIRqEcDmu6wHFFLlO6olGbUlLm07mVv2ZZhavyP6Srvpe9X5OqLvVcvpLmZlEGDmtWS07zWdQSGNqx0jcf6M1rdShBCJQhgXEQiJopYY4DfC+0Rh0qg3gcmA32pm5yFEgGLapG26r42PvYKIIlRJj3a2y085/ZSDr7ruhhdX5ix7wmN7DdGfdNKxe900avSDEqjxPYolBSjF3JVZmIUXQkfa0LxEwZD8DtsDD963Ezz9EXJegoDWsaoZ/KXO+xDZaiAp+xyWfe5YECil/vO8ERzR94Qbuc+egyP6Prv07sITk7I30bzOQqgQobLp9tizhjhJIlAVZAxZU/nOF76Rx61J6jFvwmw03fe56cKX1EuJgcho5AqY4r6KgUSb2XqZcMwaqrZ//ePPjH/iF1vttNOCSsK/VxD9q68+t/YBBx44rqWpZauEgkeCC5YyfKis6q32jLtRTnAUQ6GmHrhr9Eb4r21KyAXzEJeUqeeE7LZvbUbAnQA1cWNCxFSOB827gVr3qYyunc0od/lV0rK7c+01CDii7zVL6S5kZRFg8bxkQm+tAwjtI2AoL0jylMFlTj4x8rYi8KGjGFWJRJxPEFTVoa61AVPueht4rWCET0UB8BLShQ/NOj3NzpSGJzW8xFTvWcBduNf++14xfvyfbxSCz6iMo+KJnuN0Bx1y0Cnjxz12nlaoywZAgWuPAJr5dtoWGaciEr31mKen/ImnAOecuT38wkRU1SZQBYGYZgjc0OmiUcMz/ZbGvIZmCanlkUnZK1ubN415lbHQ7ix7KQKO6HvpwrrL+s8QaJt3Nt/H5uu4XcN06Assb22BX1tlOrODPCvxHlQYojquQ/xujLn3vgvMsMY3VXZvgJKZq2avlgRKJcMbtigA5Wczf7/3wbG/Pmj/g/4pRGWYnVQ8Td1554PbnH76aTctWzbvO+yN40gE7eU0MlDckXmpxgFn7VLVoy23AMbcuxWG1H+G+kwELF8GZOsQC4Fi0ozq6gAqXzB1m3JqXtPlzhTqmRHgpoE7gnIHvhPO+c8+lO5RnY6AI/pOh9S9YIUgwMCM38Mmeo+gZQw24EktENDNjrSc0WiJmk0qXggBVdTI+BnEsUJQzGFAcSg+e2ES4j/PNSn8HKuympzPbn7bkxUGPlSpZKvAUmjtyfzmW29902PPPHfpOg0NFWF6U9FEv2jRorr99ht+9oQJr50ikK/xfQiWVSiAyJq8ore8F0GGEiqvTI9dfRXwxz8MwuE/HYCsNx1BMQJKvCFqUdIJgqxGKcobq1rbaG9r8NqjGY5Z6XZEX3avc0RfIV8Nve80HdH3vjV1V/QfIWDsaVUaecsiEhmbBjxmWzOx1bbLq1aEtSEKpSIEZ6m1b7q0Sq0F1IUNCKMGZOYLzLjx78AUQCwDMqZxP0SR9X4zS0/tfCDjeyjGCeN8VVVTPenyK0acccqJJ75YCVF9xRI9LWgvueSSA/7wh4uuAdTaHIzgwgojZOPBLAezKqzPUDkpUagLgF12Am698dsYUPc5VPQ5JJ2LTKrHKt3ZGflyl305DWSTNqkdcjo7v8JH+T+6K92DHAJdgYAj+q5A1b1mhSCwQseE38921I4RffnnZsa+vahZ+iVuvr21RClRWMMbguitZZg1ajIwH/CKpAGfIZ0RTIuVnbAypM8eAEBXVWWjxsbG0W+88cZZlTBuV7FE/+GHH64xbNhhV0yc+MFwht00nrEXYwk7YfxtUi9cnRjVbMcPgCf+vAG22ZztlWy1LAGxs5qtkM+0O82vQsARvbsvHAKrhIDZAHgSYTFA/6X1mPbgO8ArytjZiti4oJjQkfY3mnVfE++RT4yuig5Dv+n4X5xw+MiRI58UomdLpFYs0Z988smH3zjqxpshUE35Os+kZGw0ziZ7jlbYLViIUBaM1OHpJ2Twxz98D6r0HqRqhUqKCILy2Nwq3SvuSQ6B7kXAEX334u/evaIR0ELAj3w06HqIaTGm3zARoKI9TW8iRvXUXlFI/MhmfEkxRpHPEL+qb2h4edy4cYftsssutMrpsUdFEv2bb75Zv+eee45ftHjRTia/wo0Z/YjNUsSW6NPMuhQZBKqITTcEnn7sR/D1RNTkliIMPSQqgmcWzNXYe+wd6k7s/4+AI3p3hzgEVhkByqFnZAiZSAyOBmD6Qx+g5anlpgMfrdTRF0Y7J0nn9a1vioCfUGefeWO19OBDDjn7T3/605092d2uIon+5z//+X533XXXg0rTucC6E9KtiAuiSPSpJCJXn60aGQlcNyKDnx36dfjJIkhZRKQSE83rqOQc6Fb5Y+Ke2O0IOKLv9iVwJ1CZCDDZLk10Dvi+j6BFon5hFh+OmQi8zU6+wCjj0RzFkL1xQbPXalP77AVLkgED+79w//33H7PHHnvM6alIVBzRv/baa2vst99+9y1fvvz7SivG87Zmogi88R9o0z4m6EzZ77UrcMsNmyDnf4ja+v7QLS2IhEaCGFlh3Y/c4RCoSAQc0VfksrmT7hkImMn7RMHzJURBo7/XH/MnzMPSG+YCTUZyzwiuGRtUyupakgFin4N85BANoRcPGzbsivvvv/+GniqiU1FEr7X2hw8ffvwDDzxwAYCBQcZHFMWpsE25434FaYcCGFjPaH5d7POjEnJiNnRRQsgQqApRKrQY/eOe3UbRMz4Q7ix6KAKO6HvowrjTqgQE2JDHPjtK3IZBFi2FEtYorYmp1/4LeKsEUAGdTfeaxA4kfmw8z2AyyIHRzU2SKBk4cODzDzzwwK933333j3ridVcU0T/zzDMbHnbYYTcuW7bsB0EQyFKJ6gbtYC0r1WnKJsDMwh+wL3D9VdtjQMMUoLgQoGqel0FEvyJvReqmJy6OOyeHwP+JgCP6/xMi9wCHwFchYLrupYZIYlQjRKSBJh1jkFgD3t9K+PSm94ClMPK4nL9n5ldyuksAsdHEZ3gf0bdea62XHnPMMefefvvto4UQZYOUHgN8xRC91jpz6KGHHvfwww//UQgxQEopksTWTqQvEbEDj1320oOnSwgTjcH1wJNPbIW1hsxEfW0RiJaDI5GSOsaeRBJF8IQVVnCHQ6AiEXBEX5HL5k66+xEg0StECChz25IgzFRhWUmh3qvHgOUZTBr7FvCsgsiH0IwQtS0FmyOoQjGi6mpCoodSKu7Xr9/Ljz322Gm77LLLpO6/ui+eQcUQPaP5YcOGjVq2bNkuZQN4LpCO7Tid9jPWPziOIXSMWg0cPVzgkos2R1VmmknP64Qsn1jXG/ZYRMqqJbnDIVCpCDiir9SVc+fdzQiQ6BMUENDgpBXIZetQtL13qGP9/b0C5oyYASxOB7MEUBMHiHWCYqrXQiLxPEF5XR3HcdNRRx118p133nlfT5urrwiiZzS/9957n/T0009f7HleTinrNOelUvPZbAbNxcQQPQP0rIowtA54dtwu+MY3ZgPRJ0hiD8KjIx01ixPTTNF2VAQK3fypcG/fMxFwRN8z18WdVQUgoJGIIkIvRJIXCP0chAyQL7XC82MMLQ7C9NHTUXxxiU3fx0CgOOYlYATROWbHbHIUGR19rbWqra2d8swzz+y644479qgO/IqguEceeWSDgw8+eHwQBN+KokhK41zDyQdbi2f7XUKGF7SpoyE9cMbxwPm/3Rmi+B4ElkKJrEnxK1mAprcwXem8EEi+VOevgNvTnaJDoA0BR/TuZnAIrCICHNeKIYUPzUg9puGNDyVjFHQeA5MG1E+qwwej/gHMgu3viiSyYQ7FUot5T7qoMfAk0XuehziOC8OGDTvhgQceYFRvCakHHD2e6Nlpv+OOO543YcKEs+kwa8C1uyfzt9SsswAizEDFRbDTfpNvAvfeviHWX3M5skmLta0zZnMxElUydoXWDIECxk4Ctwfch+4UVhUBR/Sripx7Xp9HQIMtdhF7vfxq8zdECWGGhK2QLYYY0FKPqY9/hOTZVohWAd3CGrAHwfx+OmnHv4MgMJE9f1RbW/vf48ePP2TXXXed3VMg7vFEf/fdd3/t6KOPfhHAN5RSoj3Jk+x5UOwgYae9UAj+xz74d2dmcPqJG6DK+9TMRpoBSFmCUkUzECmlb8YjWN8XftmmrqcsiTsPh8BKIOCIfiXAcg91CKxAgH1bGc9HvlACciHob1aKWuh9igBUVA2QK0rk5oSYctX7wGepak7RBoim7ysNPA3Da224KI7jBYcddti5999//5ieEtX3eKLfddddf/XSSy9dCKCaqRESfcyGO+M5r+GxvsJ/A6jLKQxdE7j3ji2wxUYtUIVPECZUN2J+P4YWkZmIMF43OmuciITkzswJ5rgvgApFwBF9hS6cO+3uRoAOd5kkQCwSFMIiEl8BtKEtKWRkDqEI4CuFNaLBmHTPhyg83WSkcUXJN9lh0oonBJLEBpzkJP5hNb9fv37jH3rooZN32223ed19nebcesJJ/G/n8Oyzz35j+PCf3bN48aLtwjAUpVLBSg2bcQaO1XnGc551kiwNanWC3//Owxmnfhcq/xEysglezN1X+kdyCxaZ5wqEEGa0zhF9T74H3Ln9Hwg4one3iENglRAg0YtCgkx1Fsv0cpREgtDLQiYCgaKWPZ1tiqgr1mDA7IF499p/AB8DWV2NQtRi2ZOj+LQ41xqBCTpNm572PH/28b/4xe9HjRp5f0+I6nss0Wutg5///BfH3nnn3ecDaBRG2DYxggXl+NvsoyQQhIBXALbcCLjhhnXxrW8sQbWXQEdNEFTFMVcpUz/5std8ueveRfOr9ClxT+oZCDii7xnr4M6i4hAQnNyyLnSIpUQsBSLhG/37DMv1KELlWlFaFmE9uQE+feIztN61AGgmdzCrTFqRpimcm4bAVPyZZwaymaqovn+/B174y7PnfOtb3+r2DvweS/QTJkxYZ9jwI66Z+ems/amCI6hkl0bf7Yney/pQpRi1HnDC0VW49OLNIeKJEMXYiOIYhRxjcsMtAqXxU6IvCx/0WAQq7nPjTrg7EHBE3x2ou/fsBQiQ6CVn5kzxNjCTW5GkJLpAhul4UUQUNsGXAYKmHOpmNmDGiInATAEUhKnlK8n4nXL3K4ier5dQ2iXMzDj7nF+fdv755z8jhLDde9109EiaY6f9mWee/ZOrr75mBCDWsMaA/55i5zKxJhLKBF9fC3jswe9jvbXnICvnI25ugk8xHNbg24iecX05oi8jnvrZdtMCuLd1CHQIAUf0HYLPPbnvImCJPjVBoxMdU/CGvgGfsiyIUZR5hJ4PLx9gSHEoZo+fhaWPzQJa6WPvITbG9WkKn+VjI6RjJ8E0UFrn618b8/JLL52z/vrrL+tOpHsk0U+bNm3Q3vvuf8mUyVOP0kr53G+1d5jTBli7IB7YOAGcfjpwzlnbQ7dORaCXI5PLAnEB0HbHxkEKJv+5eMbX1tgPUnHH5F+6cw3cezsEVh0BR/Srjp17Zp9HwEvHs5m252Hk78krynKCEsrMybMxr75Ui/CTAJNGvmU68P1W5piVSdW3P9i9bzjH/mrhyOtHDj/11FM5OdZtR48jeq21uOyyy/Y977zz745jVU+oTVf8F8xriBfdg2LUeED/fsATT2+MtYbORy1XKspDJAWITADEfC53WfaVTERvEivlAoBRy++2BXBv7BDoEAKO6DsEn3ty30aAEiuJZI3ehoOBUqZGbxu6fEAHRv2uUGxCQ6YecqnArGdmIHmgBbKJETzjRW0c7co9Y22I2k1DvP66G9wx5dkpp4oNus/spscR/YwZM7L77b/XyPcmTj3aIk2ibkf0RNMgSttAug4BZ5xag9PPXge5YDrQqhAGPgrLW5DNcYsWtEXzfBYX1mgZctQuzQxYFyJ3OAQqEAFH9BW4aO6UewoCjNwTAZSYq2d2mN7zTPaSEzSVU0OEGR/NpcXIZgPIokZmho9ZV0wzUT2179iClxiDnNTQLk3l8weS2m4JPr9x1G17nXTS8f/qruvucUQ/ZsxNGx537ImvSZFpTBRtB1JCLp+pQdN2zGdEjHUbgQfGfhff+OZc+N5sZFUIHRcgqv9HOaekANWO6LWEp9iFz9fMp5ibRE134e/e1yHQMQQc0XcMP/fsPo3AVxE9I3rmfUn0MgogfYFYtiISeQSBh/pFtZh331wUn1sONAOhtm3i/Cgq7hLKRM84MwIC6RU322zrG58Z+8T5gzYd1NwdgPc4ot9h2+/89r/feOsiBZ/i9aC/0BciesXaPMk5Rs6zmvbn/nYHAFMQBk0QNBXm5sBsp/iXB43QpO0pXegpquhS3765bezOEX133HruPTsFAUf0nQKje5G+hwA75UnqiVCIfcsZfuKbrnvTlKd9yMS3qXvVDJFJEOkCBsWNiF5PMOeOqcA8wC/YwNPU66nVwj88tG3q4w9Cv+atEdeNPOrkk4/6oDuQ7lFE/+STT643/CcHPJFvjTeONcEjSScQXswJBgMcwc9wh5VEGNIPuOW6BvzwB/3hyRbEhSXwQx9JodX41ZhAPaGYQQBFlR0SfZKxww9yud1A2NaL7sDevadDoOMIOKLvOIbuFfokAmWiZ8Nd7BUNBkIFkDpt3NYrmvJKqgAv0BAyRi7Kof/Swfjwrn8Cf1UQyyVyXg6lpAQl2DZeMrTCPu+QZQBFKbegZc8f7nXjrc88duHaoi2dvNpw7zFEz5G60047+eejRo66VAoMSHRodlWQbF3kbksbuUEWVNhpz3j/h7sCt1+/Bfr3m4uoaTmkUPDYgBdZTXsWR6zeLcH3jZGNYN2FjXiS7kP8veu6X213m3ujzkfAEX3nY+pesU8gUCZ6RvKJV7RZX5XhBLwJAo2QqooRhiEiupzSLVUqyMhDjR6IJW8sxbIbZgAtHL9juMgXCFAyRG8FdTwzpkc/lro9YeLwAAAgAElEQVSkf+OgJx966k+n7bDVVp+uboB7DNFPnTq18Yd77nnrJ9On70vXeMV0e9ldzhA2QRaQCQflgOpq4IpLv4ajDxsIXXgPSsXw/CBVtOUGIYCmWI5PI2HuE6h5H0KwRm+NbdtsbXu2EPDqviXc+1UUAo7oK2q53Mn2IAQ4om1GrG1zNhvtE1iit2N2ipP0yGQyUBE18GNUBQHiooLI5NBveX9MufTvrBoDy4GMKQtzgFsjkSUjpONrIBQ+ipp+d/KTC0ZcevZ5v/nVuNUti9tjiH7UqFG7nHzSKTeEntq4lBBn2shyEUjICTi/QIpm4j0QwMabAffdtTPWaJgKqeYgU02S10jyMbyw1iyW0SoOmlKit12UZmHNQbJPO/p70L3nTsUhsFIIOKJfKbjcgx0CX0DARO/UVrFEr3QALfx0jp6RfgQhtN0LxBo1IgOq2bdIhUEYjKbnFmHRndON2Y3f4kFSr8UOeyGKi0wsw6fcm/agpV/acsftrn1u3KOXDhgwYPnqXIkeQfQLFiyoHT7s8N+/+NLLpwWBykYR8x0ZoyFMZTt6z9BRiJE8J+Z8CZz9e4HTT9oeXmkypF4EGUgUWhPQddavaoDO00mIsxJscmT6P63Fp0I7K0B2Wver84Zz79XJCDii72RA3cv1FQTsNz9ZRcEz5WEWiG2p16Tv+W9foZQUEMrQiKwGJQn4HppkAVVxNYYsGIiPRvwNmAHTgZ8xJWeB2FNQOkIYCCRFDV8ESOCp2BdvPP3ME8futdtuH65OnHsE0b/66gubHbj/4SOXLl2+k0Le9Cx6fhZJEptah0mtJ0BWAIEChgwEnnp2G6y5xlxk9HJ4utUsETcIQRAAMkSpOUGYYz2eLkPJigVMxXGYmnGHQ6DiEXBEX/FL6C6gexAwOV3BKXhlzG08nRglPJNJZmRPdxWpkBjC9uBrD3FTjCATohDE8KMAA1v7Y8aTk6AeXQ4sA6rirEndlzhXx7x9ok3Pd84PUYwVW8tbfn7ccSePuW3UvatT/77biZ5NeGecceoRN14/5nqlUa1RsNIDDOONUE4acStL9OxiPOaoLC4dsSWi4j8RsDYPAd+rMikW6JLxp9dxAD8k0ZfSFL1ldnbg29e0dX9bs3fKeN3zUXPv2mEEHNF3GEL3An0TAbJALG3kHiaM6hPjWGfGunXOmNyQtGVA5bsiQukjak0Q+BkkMkYgfIStWQQzFGZe/xHwKeCzDxwhigxQ6W+fABkfSIpWht3PVCcNA/o/+N8TXj553XXXXbq6kO92ol+8+OP6bbbe4/Lp02cep6E9BuRJQs9437rPpaMKFLMj0dcHwOOP7YyNN5mBXG628Q7WMTvxA+MJHCd5M/covAx0lBjTm7Z6fKp574h+dd1e7n26HAFH9F0OsXuD3omAieilDfJoQseI3iPfmIAwYya1WL0Pcx6aW5aYpjw7fgfESQmB5yMUOVTPDzDrwcmIXi0BSyjklkVRlpvALf2ErNMrAS0yWul4wS233LDHL3/5y3dXF7LdTvR33X7Xd44//hfjSl60llWjt4ZzUmcghUBJFMyYOzMh1SGw+47AqOu+g341M5DxuSGy43H/1mT3f0bp5dq8i+ZX183m3qcLEHBE3wWgupfsKwh8mQXoaGcPK5rDw6Tz01qvNBr4Kw6tBBqTfmh+bQHmj5ltiF5GPlRqpsZHer4PFXHLICBFBomOSzvvtM2pr7z291tXF87dSvQ0sNlrl71+9fwrL16WBDHn38x1c/bQU9xRsRmiiIS7LQXUZoEbRtTh0APXROgtBgqLjJiwOxwCfRYBR/R9dundhXc/AuSo+rgG1bN9TLl5IjDZjtpxX8BkMs1uTCAqqOvCNj3T/KfXWmvQWw+OuXvvHfbcc/7quIpuZck3//LmwP/afYcJpTjaIAl9AYoSmC0U9YNzRj84kXlTQs8o4BtfA+65Y0N8c50lyKIFPjvz2u2cVgdg7j0cAj0KAUf0PWo53Mn0LQQY0efiEGskjfjg4XcRP9Fionqj4ipsvpnDY76XRczm8nSkWwrMO+OM0468+urrn1sdiHUr0Z9zzjk7XHnZZU95nl9fNCmRsqOclSL0RIBYtII6OEECHHdkFUZctDUymY+BliboqADBeTrrG+QOh0DfQ8ARfd9bc3fFPQMB89mT8CKBAahF/H4rPhk1BZhjDVJT9zpD9EzZK6PIGlPLDaqki9/b7nt3jhs37swhQ4ZQprVLj24jetrR/uSQg0e8/eZbv+R4ohHIoboAYutFkzDFYTXyqCk0sAq4fsTX8eN9s9CFScjl6ti1l0b0jui79C5xL95zEXBE33PXxp1Z70ZAS2jpmYbwjNZoXN6AD298F/qN2PSQm5YzbSv9bO4zWXxq6ltPNtXQMOCvd94x+pgf//jHH3c1UN1G9M8///zQQw89+E/Lly3fnqULISgfyE1QCZ4HJDFV8SwiFMjZbUfgwbv3QV3mXejiTCD2IH0+x6nbdfVN4l6/ByPgiL4HL447tV6NAO1sBU3TNEJfo7G1Dk1PLcbc+2YZpTxEVGNN4LFWryj1pqGDtBs/lhpazj3jjFN+d80113Cmvkuj1W4hejbh/fa3v93vqquuuh5QX1OJFlKwU5EKdunB8XbNaB7ISOCMk4Fzz94SyH+IXK2EXlaCyOaAhOn+LsWoV9+r7uIqHAFH9BW+gO70KxYB40PPkTkF6UVoKFShfmo1Prj5XWA6gHwqr2t08yneLpH43AGYLnPO2Be/851v3/bIIw+f19Uz9d1C9PPnz685+OCDL3/ttdeOEUJkuSMqG8UKL2ebFrzYpD2YzR86CBj/8KbYaL2FyCmO1BWBiGl9CuJQ+KZibxV34g6BjiHgiL5j+LlnOwRWEQFl3FU901FfSppRn+QwtGUQ/nX328CLCdAk4QXKxKIhNfJ1Ak0hHUP07MT3VRh4rz3xxONn7L777u8Ko/jWNUe3UOQLL7yw3hFHHHHD3LlzfwgRSJPeoAyhFCipEJ4XIqFlr46R0cD2WwNPjf8eZPQ2AlWCpEct6x+J2So5ou+ae8O9aiUg4Ii+ElbJnWMvRMCY13g+SqUCwkAiE0vUlnIQHwLTL55sxuxM3j6ygawU0hji2CNgvVoLqMXHH3/smTfffPNYIagW0zXHaid6St5ecsklPznvvPNGAHINbWRxKEVrdzpJO9c6IWLUBsANV30Tww8JIaIP4ZHcTYc+pWz5DNbouwYc96oOgR6PgCP6Hr9E7gR7JwJG54X9dolCKCWk0gilh9zMLGaMnAy8R617S1HMTJPsI8g2IZ50Wqy0+eabXv/oo49evMEGG3SZo91qp0im7YcNG/bbl19++Te+H4ZxrEAVQmMpy0PSXpbcLZHxShhQA0x4+QdobPgAgZxnTWtKTO1n7bCiS933zk+Ru6r/DAFH9P8ZTu5RDoEuQCCh57yUJgCNVQydUei/vB4tjzRh4aNzTJUZkbTGOak7HuN75ui12QVACaEnP/roo4cdeOCBXSaJu9qJ/o033vjmXnvtNWrx4sU/IK3rVFKQQPDipS+gFOX/A4Q6wk8PAq65/LuoykyH1AuBTA46H1GBGDqJIZgacc14XXALu5esCAQc0VfEMrmT7L0IeEJCxEzLl1DKltC/WI+aN7OYev17VjynyHq8SgN4kj413YVpPvc8QW+Xlp/+9KfHjx079v6uQmm1Er3WWl544YX7//GPf7wzDMO6UqlkPGcoL8z/0O16EWj8UyWBB+9aG7vtGCLwF0DrJggpzfg8HYLY0ABBG1vXdd9VN4h73R6OgCP6Hr5A7vR6NQJKQ6bCOfSuz4cF1EU5DJnbiPdv/ifwZrvueztIZrrvy1NmZH8hdDJo0KCHX3/99aM22GAD5gA6/VjdRB/uuOOOZ0+YMOFcW2Q3TYupcpA0YwomwKcdbQxs8nXggTs2xIbrL0GUn48gIxAZK1p61YWwEkNFR/Sdflu4F6wYBBzRV8xSuRPtXQiQijy2kZeD9UCj1WtBJgowuGUQZj75GaL7FwPNdszONI4zW2966609buqsyp/Mvf3227c97rjjZnUFSquV6N9+++3GnXfe+cXm5ubNOEtva/O2oYHOPiaiZ5AeAGEROPGI/jj/rHVQN2AW0LoIyNraRhxpBIokT0lBbgxcRN8VN4d7zQpAwBF9BSySO8XeiADpKoCPJNFImIL3E5R0Ab6SqIlq4L0n8fm1k4G5jGkjy1UkMOvWZiJaKTWU7U/LH3LIIfs//PDDL3QFVquV6G+88catTj755Nd836+OY9t8xxPgtFxk+hLsRoeGdDkF3DRiQxxxaA66OBEiYO0+gfIlVEIlolqgyF0S5+gd0XfFzeFeswIQcERfAYvkTrE3ImAiemWV8chLsUhMsOp5HoJEYOCCAZhyyTvAxx6QL5XNWVOytzr5aURPeJINN9zw7mefffakddddN5XP6zzUVivR77333kc+9dRTozOZjB9FEbRSyPgCUayRGFt53/jKByhho/WB0Tdsgi2+tdh02zNdz0PLyHrPJzmbCpBOGa/zbgf3ShWHgCP6ilsyd8K9AwFjRauMfjuU0CZQTwwnaYSewqCWRky9fRr0X5qBVv7S+taaTIAfIIoT2GcBUkrd0NDw13vvvfcne++99+edjdBqI3qa2Oy+++4PTps2bT+jM+B5UAmFcuwGR4QB4igxJJ7zYxyyP3DLyP+Cl7wHXyyFUJQQ5APZq+CIvrNvBPd6FYqAI/oKXTh32r0CAaWNJo5mM7nWdGYxUbr0ixhYaAD+4WPGze8DFHTNS/i+Vcorx/K2ZM2GdLNhmHzBBRccfd555/29s7FZbUT/6KOPrvWTn/zkZa31BgkJPiV6W7agnC0d66zkbU0I/O63EqcctwkC9Sl80Qxo1jlUGtHzPxnRU4Iw9QPsbGTc6zkEKgEBR/SVsEruHHsrAiaiN7J3MPG5qb0r+KKEhmItBi9dG/+88CXgUwAtEqCtukpMtZk9amwzM2PlUkIptWSfffa57Iknnrius1XyVhvRn3jiiT+86aab7pFSNnL3YtLw3MWke5tyt321B6w5CLhzzCb49ibNyKiF8Iwc7gqiN4E9I3wzXsfUh6vR99bPkbuu/wMBR/TuFnEIdBsCZgiMETkby01mnuxN0/UYVcUM+ueH4IOx7wDP5m36no6stGMtxaYXjVRoMtqCjXky2mCDDe5/5JFHfrXpppsu7syLWi1Er7XObLXVVje+8847R3KszszMG7K3DQlmZ6NjhJ7trdt+G2DcY99HbfgRkF8KARrckNQJZrlrz7O1ekfynXk/uNeqNAQc0Vfairnz7YUIKDrSmuBV2hp8EiOIA2SjWsTvRZh7xUdAMy/cB/wAosTgFfA9HxFN3OyhampqXr/ttttOGT58+MTOhGm1EP2ECRMG7bvvvncvXrx4j5TdTeqeYwkQvkl9aF1ClQ94CfDL40JcfNGWKLX8EzVm28NLtkRv0vfmb5I8DKjucAj0WQQc0ffZpXcX3jMQMNNytJdPTVcYgGYSBcnmO5lB//l1mHL2m8A80hdn6j0gLppHk75MGVspBr/a9/3Pf/WrX519xRVX0OSm01LVq4XoL7zwwh0uvPDCm5Ik2Uzw7JWC7/ugzr3VzaEOcISsD6Nt/+D9O+K7Wy9EnJ+EDFMddKozRG/JncI6fKYZoXdE3zPudncW3YOAI/ruwd29q0Mg5R+KtxuyZ1ceeUlJhInNNie+woCl9Zh5y8eIXm0FIuq/MPwvGDozvi5CpIFvoj3Py3//+9+/7M4777x67bXXTs3rOw51lxM9NymHHnroSQ8//PB5nuf1SxIzSJcerFdkqYCDEJGh/HXWBP75xgFIiq+hOrPE7opMCJ8SvfYt0afSt5QfdGTf8RvBvUKFIuCIvkIXzp12b0DA1Oi1HQ83wm9CmJJymJCnYiRhEfVNNci+FmLqzR8ALT6QcNaMiq5M3cs04G1DIx48ePBDzzzzzFlbbbXVnM7CqMuJ/p133mk46KCDLv7kk0+OU0qFNpK3NQnpBabrUPgegqiAHIBhhwKXX7wFGmrnISl+DhoG2OI8/2ZHo1XHU5yf5xiDi+o7615wr1OJCDiir8RVc+fcSxAo94mZRrw04pTKg2dS9DF0roCa5ipkJ9Zi2tXvAosl/JJn+EtZC7sVYa/tvOdPPhk7duwxw4cPf4We9Z0BVZcT/fjx4zc+7LDDbsjn898vF9bTUQIIWtJ6PhCXkNUKdQFw5x1rYLcfVAOlzxF6VBNKm+/+jej589gRfWfcBe41KhcBR/SVu3buzCsaAaPYbj5/JHmq4qWXo0n0gQ1G/SbURNWomjkQU299G5gIhK0+Im4C+Pg0dV+eREtfofn0008/5dprr71PCKauO350KdFTz/7KK6/c+6yzzroJwFpSSlOft414JGqm7pnKKKFGA/2qgFdf2QxrrzkPIm6FZ7zm28/J++mYHZCwPd9E9Mql7jt+H7hXqFQEHNFX6sq5865wBP6d6G3nmKCKqxkHTyDEMuREDnUtQzH54Y+A8U0IlqfmbP8L0XPMbqONNrrs/fffv0wI0SlyuF1N9MHRRx991F133XWN7/s1JHn+aTuMU50PKWLUJMDO3wNuunFdNPafi0ymCkm+FdJnZ35M/aB0YNHa09qNlAJ97N2IXYV/YtzprzoCjuhXHTv3TIdABxCwRG8Fchh4KqGM9r0pL5PoRQJPtCBQHmrEYMz/yzw03zwHYklqzc5mvPK0eHoeaWMeSe3Vjz/++KB11lmHjvYdPrqU6GfOnJnbc889z/jwww//CNBXtk0ByCgBGaEBJcHsRC2Ay84bjOOPGQgVf4TQqzYmNtqY1jBFT3lc09qYOv/YlIkTzOnwPeBeoJIRcERfyavnzr2CESgTPQk+9tgzZk1uGNEnCCChjUKejiNUBf1Q+qCIBdd+DNCItiyDm8a9ZW0Z08wnhFZKzRk/fvweBxxwwIedAVGXEv2kSZOGbr755mPiON5DKbPVQRAEoKGNqdNztsDLQOgi6gRw9y3rYv8DaqCa3gd0CBmEiHVsiJ7jd+kYfWpwY/YNjug74y5wr1G5CDiir9y1c2de0Qi0J/qib4meY3VlojfEj8gQfRiGqJ1fhRmjPgTe0anJje3SZ32+3LfWDpCW008//YDrrrvuxc4AqUuJ/sEHH9xi2LBhTwgh1jLN8Vqn8/Npf4GZmgvNrmeTrwPXXb4udtomAdRMyLRRLzb6gIzoI6ODb+WH+IcSuPS0dVr3nXEjuNeoUAQc0VfowrnTrnQEykSfCIViEJnUfS6iA6uN6HkwqoeO4PkKja0DMOu+mWh9dhGw3LafCdtp365vzaLCOv2WW2550VtvvXVRZ+DUpUR/5pln7n3NNdc8qJSq+Yodi1W609bR57D9gBEXfQdD6j8HFG1pKUIgoCRnDhWESIm+XOIn0ZvZelej74wbwb1GhSLgiL5CF86ddsUjYDRcWIK2RE+eysSW6DV80z3GiN2M2aGEoaoRn4+bheUPLTREL4vUfNf/RvRplK9qa2tfmTx58r5Dhw6lSn6Hji4l+m233fb0N954Y4SRv/uqd9KAJ3wEMsY5ZwG/PWMziNbPENCtLhMibs1DBNaHXrInz4oJ27l6M1NfTt13CAP3ZIdA5SLgiL5y186deWUj0I7oE1OjZzOeD88ouXLkTiIJJGIqwUqgptlHw2chJt3wIfAxIAqhadjTX+rIK9fppZRTx40b94N99913dkeB6jKi52jdwIEDJyxatGg7w8z/C9GTrqszwKWXAcf89GvIxMuB0jJj+8doXXOAjhKBFCAw6JXJvX0zXkdhcM93CFQoAo7oK3Th3GlXPAIp0ZOnEs7MCwWZEj2nxKiWV2QN3pPwpYeaVg+Dl+Qw8cZ3gX/RtjaEMbf9aqJnNmDer3/96/1GjBjxj45i1WVE/9prrzXutNNOHwEY8IWTbPeOxuUHwNfXBm65ZS1s9+0EOVrSlpZDKwURsFFB/DvRlyP5Ljv7jsLqnu8QWE0IOKJfTUC7t3EIfAmBLxE9p8hs1z3N163+fYlG7L5nUvjZVom1Sw145843gRcANKfB6lc4sJqUP9Cy8847//Evf/nLtR01uOkyqrz66qu/eeaZZ/5La01l2xVHm3qQNDPwWQnssB1w7907oC47CWGShy9LpuNOG8V/SuJIo0D0BVvazjP2cfevQ6ByEXBEX7lr5868ohH46vE62qfzsqxybSLIcsZrHl6rxlDdH/NenInFYxYALWmG+n8XuS1tuOGGD7366qsnDBkyhI9e5aPLiP7ggw/e/9FHH3mEjfZfPLvyLkbCQ4yMBA45ELhl1PfhJe9BFJrgs5Pe96ASygTy6WWiL78SNwC0q6UqXvn1VhkD90SHQOUi4Ii+ctfOnXlFI9Ce6CP6qwsFP/ki0bNqTb95L8jAjyTqk2rkpvv46IK3gSYA1L1Lib48atcOFNXY2PjCfffdd8See+45vyNgdRnRb7nlFje/8867x7cZx7ed5Qqi90WMnATOPD2LM07fGDXhJxCFFuioBBF6pucuoUCOacZr51JnSN6O6Dmi78jyu+dWPAKO6Ct+Cd0FVCYCZQlc9t4ZomeLOIke5CdjvQZPSySxggwztlGv5GGNZY1499zXgE+NXcv/T9hVh2H41pVXXnn0aaed9n5HUOoSov/444/rd9llpyc/mzl7x/buPNZBfkUEHooYg+qBMbdtgu99l+pBs+HFnKPngKEyUX1idHYY0Ze77qWZnbdEr009pP1rdgQM91yHQMUh4Ii+4pbMnXDvQIBcTm0XNt1FngYJP4xJ9PRiiQxnBZr1eYmIcrnCh44lBjcNxOSR/w38Uxm3WnxJBrcdOloIMee00047+7rrrhvbEdS6hOjHjx+/9lFHH/7E0qXNW6wg+hWRvD1hhYxU+NY6wKsv7YPq3CQk+RnIsAkhDIG4CJ3W5/+N6BnRy6IBVmrr/+sOh0CfRMARfZ9cdnfR3Y/AvxO9QMg5eqN9HxnDNS/2EPoBWosRRBBCSR8Dltdh+SMzsGT8IiCfRvVfcTmUwtVat/z0pz+97r777rukIwY3XUL0l1564bbnnnve/RpYTyU0qKMHvXX2IcHbf5eQC4BtNwOeGr8TPP0RPLUAvgjsrLzPjvuy47yEx8Y8fqnxD8cZPG6FFCR3TI7ou/+ud2fQPQg4ou8e3N279nkETOo+7a6PPEulQUwf+hXjdpkkAI3nEz4y9NEaKwws1GKNjzJ4+9J/As2mNb/tSLvtjSwuDyFEadtttx0zduzYc9Zff/1lqwp6lxD9cccdddrto+86HxoNPDHK2a4wrUuV7ASQ9YAjDgauu2JzeOoTI5QjvBAoJUAgjBa+FrZGv0L+NgXSEf2qrrl7Xm9CwBF9b1pNdy0VhMCXiZ4Bp5/4JpKPyE9CIYylHREnb2cyyOsYA6MGDJjm473L3gLYYvclI9ovkX2y3nrrPXj//ff/ervttpu3qvB0OtFrrbO77r7ztS+/+NrPrWOdrbFTMUcYuT/W3wFPAhkB3Hx1iGE/XgtSfQ6feQyvCiiVjPAd5XJI9LY+n0b0aRO/9vJGW9hF9Ku69O55vQIBR/S9YhndRVQmAkKTo+wYHYk+SGwg2kb0ipa1Agkl7z0fJRGjLqoxCnlTKZwzBRCtlobLUXwayZvZe6WUqq6u/svYsWNP7YiTXacT/cSJE/sNG37ILZM+nHyQJktrn3RtiJ4JDKtND4SBFbF94+XNsPHXF0CqpaYuD5lhq73ZImgd2xl6012fEr3KmK68MtF7ihG/q9FX5sfEnXWHEXBE32EI3Qs4BFYNAdtZT/4xs/Ka8recFktSoqfrqgehrO49/8RIUK2qULcghxkPTAReBkTLChr+CrJnnX7mTTfddNIJJ5zw5KqdpxWN79Tj6aefXuvII4+4bdGixXsqRSFbS/SSuxNNnSCjgWP+NFQBH721HfpnPoIni0CpCKjQhvuhRpzw8Z6FkbkPbp1UzgjfO6Lv1GVzL1apCDiir9SVc+dd8QiUiZ7heGAiemaYSfQJm8VlbErWUlDq1gajGjFyOou6Qj0+f3E2WkbPMwY35Sj+y5G9lJLe9EvPOeecsy+99NK7BN3dVuHodKK/7bZR25944imj4lhtYTrqkM7Bk6N1EWyqpyEdeXvzbwEvPb4lauREZDg3T09aNjMEPuAVUIojY99nU/eJbcRLqsz2RPt5A6hwEf0qLLt7Sq9BwBF9r1lKdyGVhgBH6myG2lOB0bnnuDdn6BOWlmWMhEQvQ0gmtxOWmksIdYhq9EP+Hy2Yf+U0YMlXE307AZ38wQcffMHDDz88UghqxK/80elE/6tfnXb4NddefzW0bLTONJborRAg59+1ieYZnB8xrBbXnL8u6ryJRvQf3A3FniF6LVoR6wRSkug5L5+m7lOih5e3r+Xm6Fd+1d0zeg8Cjuh7z1q6K6koBBRLyEad1RK9MV6jRa1IoLw8Ekb0gja2nvk94giBCU4FAl0P9X6MBVdMhZjPCTPbZd/ezr3df0ebbrrp9Y8//vjFq9p536lEr7XO7L3vnmc899zz5yaRrGLanmmLRFsLPynp1GPy+dTCweUXbILjh0tU+ZMACuVQ7jaSJhGQoABJi1rW640wTnm8LpXOlyUDqCP6ivpsuJPtbAQc0Xc2on3q9awuO4fEaKvK/6a8uE1JU43UBF/tjnIEaxLRms6i9pfMupb7r0xglzaprXgqH/hVou6dSkGrde1WEL00tfk2vEj0sohEKouPth71UiXIcAxPsWetCnoysHDEZIi5ArpAbCgGxxI1/9gWdsaxWmvV0NDw1KuvvnriFltsMWtVLrJTUf7883erf7T3T3//ztvvnwlNY7oAHkIk1PljaYFd8iR5ZUfrnhm3K767+Wz4cgZMMSO96Wwhn5V9ErmdvRvFdMgAACAASURBVG87NLsa0xsybYRYlQt3z3EI9AoEHNH3imXsjosgn/tUHtUSsfQQs/eJvVKCvVEMrjzIKAshfAgpkQirSGoysrF1FkU6/syMrdTM2vK72piLG5IrUzsjW7t5sFdqH8cNhmm17o7L75T3JNlTtM1ublY0hTMINSxliN5G7J7pzLcAaC0xcFk/TB/1PvDfsRHOEWxcp+IrOZL2tgnXg6PpLHSr6RMmTDh4hx12oMHtSh+divD777/ff7/9dr94+oy5xwsIT2v2HAZccnsDsQmPDfUKGJAFHn94a2y12TJI+Zkl+vYHi/kpKCt9Ve4JDoG+goAj+r6y0p1+ne2JPpIekq8g+qyuQVw03+BAIJHIEmIVI+AomZ9BKfVStzPlTGNb6iapc2JKW7vVtlCN1F7eFNhnrHhMp19gD35B1t8HNDVgzj0fo/Bis2nIk4rKeVY9J0gD+5hTZ56ndRItvPuO2372s6OPe56KeSt7aZ1K9H/961+/ttePdru+qaW4vxRSKEWHOiPxD+3ZnQo3OiGADb8G3Dt6K2zyzcXwxBxH6iu7cu7xDgETGqQZr7QpKDFuj6wZWtMnpg3tmIv5qgY8H5/NHYzDjp2Ov08CkAOGDP8acj8cgAU1i0xXsODUS2S1ualIyagklnxdmnREJv7S7L1JVSrdQlQuAuUIM6EiKQ/T1G3dQaXiXHgASf12Tk0FQMmPkOgYQZxACo1YMmpt50VCmjf3pOmYNjLmJv9sXtuWYKXJ8FquYg6g/OvKRfH/f+blprp2anemybyxpT8Wj5uDhQ/P/SLRSyClS5Dow0wGUTHf/Ptzzjr6okuveLTbif75p5769h777H03NDYvq+GV93Na8uaxAv5ZAez+X8ANV22HtQfPgRSff5HoXTTfW+95d12djYAj+s5GtA+9njad4ZZxSfSp1DiLptKm2cn7GXaN68CIvRT9GMLX8JMSVFSC59kNAgnb7CuNOkq5ts/mNP7cxviG2wXFYK1lm61xd2qs2SPXrr3SHcme/zZEn++P5c8swOf3fGYsa0UcQBNw74tEz8eqJCoedfThJ9xxx713C5Hu6lfiajsV5fvuu2vXww8/aiwgB7ctrt2zQaXFGZ4i6/O/OBK44JztUR1OhycWO6JfiUVzD3UItCHgiN7dDKuIgBIJtCF6DcHxMJZalW2wi01gxjQ8hWCEcV2jA1vRVxB+glAWESYKfuQboRhuDBLBOj65nQl660EiFKP9tIadbgVsHZqp/d4vdVYm9jLZq7REzY76gYUGFP/ahFmjp5sROxGlRM+Inr3pNodGixz+d7z9Dt+78PXX/3apEGkDwEqse6cRvdZaXn75JQedc855YwBZa0+T9ZjYzM7bpgS7q6sJgAt/n8PJv9gCojQNHtpp9Zd3eK4+vxLL6B7aZxFwRN9nl76jF06iV57VX5HKg0edds2eKonYY+NdAukpY0gmVAa+X2XIPIpb4YkWZKWEjOzsOAM5kjy78k2neFsUn45Xp4ZkrMqnKQT718oHpx297NX6/C8TPf9d/llDvg7ZDwWm3P4e8BkgS77xdzH5EY7spZkSFt0Ibb+G+nGLliw9bFVEczqT6L3jjjvmp6NH33MLhLQzcDq2jRfUuUnbB2hOUx0AI6+uxeE/+Tp0YSZ8tKwAvx3RlwFZrSvj3swhUEkIOKKvpNXqUedqUuem+Uub8TAT1bMhTAgkkiNiEWJJu3APMqmGjAKEccYm52ULYhEjYVc4WUmwmszIk0TP+XFmcW1Eakmf0b0HT3MUzU5e8WAmgLPoffGoLdSgcV49/jXm78A7AFoYyhO02BA9UTMUz1E1rZTWmDx/wYJtGxsbm1YWr84ken//ffc9+s9PPnsj4Ic0sNGKjTvKKOFRIYh6957WhuhvG5XDAfs0wosWwwMtZ9PDEf3KrqF7fF9GwBF9X179Dl27rZEzGGPzZlpX12yVts1UWkYoyDwyuRyi5gCFWQXU5quxZsMgZHPAkqQJzVUaxaCUkjzLAMw5MxuwogZvh+2YLbDGLyR6U7nn0FiaAejQhfTgJ39VI145jV9dyGFofjDevP114LXkC0RvSL5tFJECulprIWc/89xr2+6xx45zVvaSO5Hop2Y23XS/0z/4cNol0EbkFoKFBsvwbSfN22jIQODWUdXY4/u10MVl8HTaELKyZ+8e7xDo6wg4ou/rd0CHrt/E0oIRvW2aS6h9YkagqXsSIR9yrt6Hl69GdmEW8679wLiRDd1yKAZtuiaWrZkgXxcb1i5GeWhEED4JnSn/GJ6Q8DympDUixSyBTfNraRvSZFRO8hvvdc6Mmz/87zIhdugCe/CTs6UMhpQaMfHeN4BnE+tNX1aSTccWy6fvC0mF+CXX3TJm29N+efTUlb2sTiP6BQsW1G70rW/dtGRZy/AkTiR85uuLJgVhavT82/rWYqMNgJtG9sc2344hoqIZ4XGHQ8AhsAoIOKJfBdDcU9oQ4PhlKmDDAJLjmUyr52IrctbiW6LPJv3Qf1kdJo98A/gw5aNaADtlUbP+ADSuOwhhQwZ5r4i8bjXj1MaWPCqZmnQQBEgkUFARdOAh8SUKhQKq2dGvbN2af9ikxg0AjyRJejXZZ6IQ/ZJ6THngHeDPynTes95hswCmAa/tSOWGWs4+9/ydL7/ovLdW9g7uNKKfNeujAWuvtdEzkP7WWitB+VoVRW1Eb2oNWiMrgV13AkZesy6+NuRzyNjWI9zhEHAIrAICjuhXATT3FIOASaNbomcK3Uq2Sqtcaog+QZwDipFGEFdhUFM/zHtsGpY9vQSm2srvbT6dhL8eULPFGhi4+WAEa2eQD5qxPFkC3xfwfIFisWhq9dmqGhS1QiFOEIYhUCrBlyYx3RbJk+j5b2YESPy99fATH7X/j73vALerqrYeu55ye7/pCSHUUEMTEEEs2MCnzwe2h7/4bOgD60N8CnZBkSJPBOyAUgQRkGaQIkIo0gkl9ADp5bZTdv0dc6117rk3IbcGCJz9fflukrvPPnuvvdYas4w5ZlSPZ696HPhDCVg/FOhFd0ZjI0chhh287wMf+sBll5x/xVjHZNKA/uabb55x4JvedGtqYQYcx0LCbnODN8r8PMvsWFp3+Pt8nPbjHdHgL0YaKoZh7aiNQG0ExjECNaAfx6DVPiJePNuqaqBXIJ8IgY6VdRmmXJEi8GPEiQ0febQXmpHe3osnf/MosIp5fRdJFCNlrJ/063rmZQFsAzQvmIGp201B6AXoC3rg5nxYvo21/esRIkGmLqu6jkcxPMcRL57gTi/+9RK65/jlkyxW3boSwbmrgZVEc1cjJVMnGwB9vPMee33zgbsXfX+sM3jSgP7i8y/e6YiPfPDmxIpbKLIkKQYSBiOyLnWTBIvq96yhr8OPfrAd3PRBaU1bA/qxvrba+bUR0CNQA/raVBjnCChiHCVo2UtMs99FvQ7wYktKogOG37lvWxnUl+qQezLF0z97AHgaQIEEPokHKIo4vXv+4SbfBqATaFowE9N3mQmvM4M1yWok+QCoixEkRZSTAGnigVLuRkTGgD3/LeH+WGnGvxYPjr9vZRA/WMba056REruNAT1T35ICtzNJ18zZv33hmcc+PtbxmDSgP+OUM/Y59ktfWGh5cZ0Yg7pu3o49JZhDMT8LyAA4+pON+P4Jc2HFD0jHnxrQj/W11c6vjUAN6GtzYGIjICVcugMdBXLY9puNaZS2mZI4tnwfYcw8e4xM2UdTTxOePe8e4GbALfpImXpleR6JdbaNMAkRkS7ONDs3e3r6DO3vVo+t3rA1MtM9lDNFhH4JJasIuz6HYhQIoPPzhqVuyHhGNnZiT/oq/XRKKpuHuqU+ln7vYeAJBfQUKUqoQa0B3vQPtJxs0tTRfdW9y54+YsYY+9JPGtB/7SvfeOMPf/S9661MkmXUXiw8EUBiBzu2nWUuRhl7Xz6mDd/86iwkwb1w2RmpFrp/lc7E2m296keg5tG/6l/Rq/0GWWZHzXp65gzZE/xjdqVLXeXxI4bjJvBTD/mwGU/96TGk5/ch0088txDIGYOS9sK+lkMDflb/Mw9gR6Brz9lomdsNqxNY6a1EXKdY9gR7Q8iTu9Hs+1f7+E3o/mwX3Wta8fgJdwOPGKBnOWIgLSoYLDFAn8BLGzq7b7j7H397/7x583rH8r2TBvSf+tTRB59zzs+vThH70lbXA5JAA73lIUmLcJ0UGRs4/istOO4LWyMeuBvUxJde8xs9qogYopM8lkernVsbgdfTCKg1JE1ERHBMr53Knqv/LU1tOnDEJ3VTmzzQ/qGZqH9bB9bWrZFWpOQ/pZFiQKvtnxdhHTRUKSwV1aTrmHzTa2OQTYOeLe3nJIw+Fe0iR4Xsc1TBSxmyJ7y48ELpig7bI2nagpfWYdXfliE8dy0yq1TkXhKz1GNnktZs5bqfukMjIk1UW3sCPacUPf3pLL9qQNuCTtRNzyPblEUhKaEQF4AMcwUpwihCqqXTR0PJ2xiKSI/44YcI9KiUBBUBpbJwo4cyejaq3jdJDZ14JzMKU/DI8bqaIdIevRWKvUS+hOjlpI40bW/uaLvt2ltuOmzv7bdfM5ZXP2mr9F2HHvqBa/5yzR+SOHXYRc+ispLIJXsyERyHEyhGewNw0ne7ccShDfDtZyUkNNi1uGrbEC+fT6hflAxs9aNp1YVqS3IsT147tzYCr4kRUNubahjC3pb8N4lNObWBWWXVPjRkYasNuA6eW9GugP5xFVat+9BMtL65Gz25daRfwXZSxElZVLqUdLULL8qKd+eQSmWFWiKVvyMhZzTb8KtzsCtbypYG8Pp+JxoM1RlWBI4t88QTj55d6jiXHPhJDkGpBD+vSr6oa58sjrD+9GeBZyFdDs011ETU77ki9qJ3d1WmP/QP8/ldKpdfv9NUzFowB840F6utdei3+2HlHOmUJ9/L2IGUnbEMT+Xt+W+W5vEIpcsiJfccuK6LOE4QBzF8K6uEeuQsxRWjvr/o/DM0nmSkGkCIgXKSWk/S0EekaKnVb1r2qGdT38i1QXN3YqXhfJ7pxW488q27gAcBBBasxAKbwPF2lL4BjSiaWzGamuvv/tOf/vyegw46aPlYVtSkAf2+b9znq7fdetcPRQlBbo3cSh4K6C0rgmelmN4F/PRHs/G2AxjSf6bqXodvWOZXw27RAL5cVLVFoAoTX0jtZ20ctqx5oLFZ5+Jk4+H+OoafZmPic6u/cxMk0NeJLjnsAdGpsEJ2EnOlp/izK5VHv4hAXw80fHAm2jTQx1YAm7rlSVlOD+mJpT4yQRYua3ypmGZFiBwCvsrxbslevRq3LfNQvtDEgMY0sQkZvbE00NPco3wd2KY2h5Qtaf0UMVsUWzayS32sOGOJAiYthjeuETQEPob26e23ANgph1n7bYf6WfXosXoRZSOEToAwjRBRxMeBALkAbhzDsVxVmiciPCmCJJYUgGe7yGXyCMuRUv2TQ7XfVap9Or8soQYTnap+isFqMB1UGPaIQ9tDj+v5Rf1OA/3JdwN3p0BJvVKzrJyYa04BPXluDfXe/ZdecPE733bYYWNSx5s0oJ+79dxznnzi6f+y4Ar1zuEMoGxvyk2HXxPBt4HttgZ+e/Ze2HGr1XDT52FJ1n7oAKvJa3oWbziRVU8lfYxlVxzrLlo7f2yoUxuvsY3XeHeHyue0i1SJenEjY5MSVrpkNNBTkCqiKqlyp3wbT62YgiOOegZ3sR99Huj64Ey0HMzQ/TqEdiAAH8chUtdGWRKEtmicc8Nkmo1LLpKwPj0a3b98ws/yylxgo6HdV+ZWxvmtBK3xfVSlYhQIBjoRzI50fK+hAXq+d8tFiLJEaTkXOtY145mzlyC8pQxQKn+8xHjeN0Gec5N/Z9CJ1gt/7uhi6hvmoHG7BkTtMcLGCAMooERioG3BZa97luNxyjOCTG/fTuGQCMYnCAOEYYgMa/XFKth4qsmiSI/23I2+vDYJpNQwplrfsKixNJzRhrVuzDe+F6BN8+nFLjxx5sOIbikARf2ftLtopwt5guuZbyVGPms/9Mtfn/POD37w40vH8qXjnCIbfkVrW+sNa9esf7MB+krXOhkQxczzHWD3nYBLf/8OdOYXw8EysVYq5ssgeldCLEo7eRjYV3kRNSLfWF537dxX3QhMxKOU9cKEuklv0RWggcyN05d8fWwzt5qAnoFkwlzg6RXTcMRRT+Eukn/ywPTDZ6Dpre1YU9eDshMidRQxinyswGXm1YYbqxamsglKmJMGOlnaJOIwpKv+f6w/X+n3UQN6FXyONNC7CUP3g0Dvhr540KWwCC9rI4lSTCl2YcUFS7HuylUKmCagYG65EJJ2GnPOsRCbjG0q9ugyvTnM5Tvo3LkbjXOaYdU7CHX+voyQwSbx9pXGuko7CECys96/+GABDQPJLRivXkWgLOoHEFeskL36YEs7XaUtIHaBRZBXbXe5dCj4ZnxK4SxojZi0Qjwc30zm2HcPdGDF755D39WrxKMXw0kHypRH74KsGDrQGR+P/PiU09/1+c9/ngWOoz4mBejTNHUamhru6O8tLFB3qAINMmCmXSHDQjaw9wLgyj8einx8Dzx7WcXaUgWYCvQNoUhyLhWgrwZ79VJ4qO+ZWPhq1KNVO7E2ApM+AuMPHYtkKdk6bBkibkc66F0Jk4ftRlWO3UkysrYSL8Kzy7vxkY8/jtsJ9PXAtA92ofEtU7G6rg9lO4XFDloRw6RUS1OGtrQw1c/O1U2pVDEzNPvK5GnH+nPSh3OMF5yUDXCM3zlZp080P6/2TwIaIzTqrjiPCP2RIcGFngB9MRhAri6LKAjRVWpH4epeLLv4CemjLkGdcRwqba/wQqavyQKZl8K5y79zqjUD9rYWOneaguat22F1eogaYhSzBfRFA0jjBJlMVhxHqvARFl2XeXQ27qm+Oerwc97yohQIMhEpgylV61F/kAYsSw8HIyeDeDPR1BWfua2nGf1X9mD1Rc9qj97k7hSp1gGJeDSCEnh+uuTrJ55w6InHn8h43KiPSZnnS5Ysadx1993uGOgvbsdRlVCK2CCGuUDrKoFrAfvtA1xx0buQie6BZ61QIC1vWLE8VZiCU03ljEweiiEW/rsC8JUcPb9E5ZNqP2vjsGXNg1Gv042eKP2/bZXick3gi//JtUGAZtdIyouyUUmckQ5i3MmfXd6JIz/2OG7lVtEIdH+oC00HT8Wq+j6Esguyz3gMh7XVshGS/UsDnF6N6juuaNRmzU3sOcYTCRhr5GBj50/srl89nx7v+G0c6DXwSpjeghN54h2XwhKy+YwAfVuxGc6dKZ7+7QMAfTWG78dxSOTezYrUbSipWg3sxDk1fcGmuJEVo0z1PQaRmMufCji7NWLqTlPhT/FgNVuwPAt9Yb9o6VtZC5bvCpEvFk+fIK4A3Dig6naVdoA5qil3ou+iSXnGkVRGg0qVqNa6TGXx2uODUV6B0YeWnibYtyR45hcP6wiJBnohs5N17yPWfeo9D89+9rOfP/z000+/YyxDPr47HPYNCxcu7Dr0sMNuLwwU55jFz02CPeiV8K0o3cNzgIP2By45/63IJw/BSZYPavyZWAWJEcJoHOrpiOcgpDv99JX3o0IqW9YGXwPk2vsavyc/uDFJDwwVQUuJ4Uyuk3RHt6wstTmCx2IjK0M6cW08u2wKPvaxp3CLBvqOD81A81vasbq+BwHLehwbTpCKYV7hGLO8R8qwEgX0sskZI3ssW86G575SNJuJ3fWr59PjHT9xrxKVcjEevfAwmA22mY4hycqGY3sIojJchmSTFE2lRjQtyeHBn92lmPdVXcbHNCoG2PU0Yy8boflokKfGSqSDVEID8HUje944U+8s05vnonPXmZi281REHTF6Mz0oZksoOREKQRm+k4Ed+3ASR5mloumvCKU8VDpKVZdUYw7HgGND+0JhjsQcJIImtrSQ+ighPAlA39+M+vvzWHzqItXYhoaTCY1xXbs+okhF7iwnWfbxjx35X7/85W//MpaxnhSg/+1vfzvt05/+9O3FUnEGQycsf2D0rxroudlkPODgNwEX/uaNaKAMUESgNxue8tiNcSQevS6vG7TG+Gg6H1PJ2xs5gbE8du3c2gi8NkbAGLmyXiREz/UQC9u+EmvnozLRSPYuWffLpuCjH38G/yDQ17OOfjaa39KGNfXrULYV0FtBCk8rdsh+rBXUQifW9ceGRGtIs6+N8Xw9PYUi46knDjl9LMCJKYHDfVgx7OzYhu35AvRSzsYoetiAlmVNuO+U25WaG/PK4zkM0JvAkBaHMb635MUlX+7KvaUCuKZEzwacSOUapPc54O7VjO5du+FMcZDUp0jzNopBWearqsbhMogVWNuRRIfZWEaZq0OZ9xwDk4dXLAYVrq/26mV8JlB1UvHoCy1oWdKE+0+6BWB1vI6QMPvGR2bqRAG9VFmsPfyDh3/tot9fdM5YhnxSgP7ss8+eefTRR98ep8lU5kqkjzDrHYcl7DIucNi7gHPO3BMN6TOwE7brUQMNi2xKTd80nxOoZ+MEC7aVYTE+wK5KcaRMURlp3exeQvv6ccxPCdvUjtoIvIpHYKQ5ukmyD90xrSTl5FVoXjbGEmxhSXFnooxpA8J1ffDqMkDexeNLW/GfRz2LO3SOvvnwrTDlHV1YkV2FghXCyfgolyLksxnEUQArjQQQJGwvnAAbTuwpb0g8o/FzZMbLGB/tGx2pp/lrWmJVl29taqwIZrFtlPEIiI7WZOBenKgcseMgjFPYLndjIFvw0F3oxn2n3ArcT8370b6NDc8bBCBWa1XBkYSLdDhf8EF/VhxrGpkk0/FHWZH3+HcCfjOA2Tbad5mG9u3b4U3NoM8fQD/6UbQDWJ4rJDtWgrF9jE3SKS8dJ6LE59qqDl/0/xNmxlUUgP+WQjfpuc4Imm6ty2uNE0VVjCBBa9CKzqWd+Oc3FiqPnuOp4Uy2Bxoq4kCLM9z79kPecdJ111wzpsY247zFoS/s3HPPnfOZz3zmH1EST+HGI3uTrgdWRfSOkHY8N8UH3gec9ZPdUJcshRX1Kgk9IWKQvatZHfrz8q5t0ipVCEkp71iKpslJEAaST1QXqAJ68+/h/zf++Vj7ZG0ENuMIbCKVQ+r7S3FQaO4bvWk7h1jUzLRIDkP3/GSaR1DykWuairC3hNB3sWL9dBzxn3/DnewrngPmfGRX5PfMYqCtiGImkg3RznlY378e2bySqFbCHQrsZU+NFCCIgMkEarkJxJsT7Ll5b+p4pQ2Bkb5/opNupOtXgJ6Ok/Qd8XRKJpIkqkwny0aZQjq2LcXT1LzvCjrx4Fn/AP7+L03z/vHdpXLOdSWHLiGTMBTnkzh9g6JoRoJPfiWf8TSBj4o9PM9EsjRbnzX5HQC2dTFtj5londeBAa+Ifq4Lnz56ilJYhu3wuVIBcJU2YMqZ5EDFRWGuX4E9wwGJKNV5QpAjF81CqIV3xjcClMCJ0RK2ouOFDtz7jRtVq9oBlT4Rm2IDoEf/2w9560+uu+a6E8bynZMC9GeccfbcL37xaAJ91xCgN3ciQA/4XowjPwSc8oOdURe+CMQK6JVFROtNNUiobGySfPKpr1jx1tOoqLwIEvSFN6QjAmpGDj47f1kD+rHMhdq5r9gI6NWsrGKdFx/FT11SpFwSaS0iG7VsfE5JbOPQasJAsQFWPBNr13i4/fbHsPDG5bjp78AL64HIA7xt6lC/RwMad2hAZlYDyo0Beuz1iOtilGPGER04UZ0mzDJ3G8GneIqU1LmimjGe4+WIt43Yz3wCRsp4nvnl/symDB3FPleKiqp7nS29SZQq3CDQk4RZpkevgd4PPLQlrXjsgruBq6C80HEdBDRjTgjjcyOl1Nq7FUldRdAzEX/t82vOiMoCV+YUT+Qf+pFsqrO1helv2Bqt23dgINuPoleC1+KhL+lHqMsGJDVBAqt2pxOWmZIkYNMIsMX2EOhhMxrGA2TcmO8fb0RLqfw1Rc1oXdaJB068CVhNw0kBPW8/MpAmD8a6QWvgrQcffMZf/3r98WMZ8kkB+tNPP33el7705VujOOw0IQfx6OVOaKGp8HrOT/DpTwDf/d8dkQ+WA/GAeOgm9FEplavaARLmJijPyHBKQsmAFI5nSx6xXIpFwlDVElvyoiWLpIVbGBYZk8xYTfClNl7jZTaN93NjWa0bnKtyhxUyKjcgpVkrbPwIOUSZaXji6Qh/uvRBXHQB0N+jggBl4jeXjQes40eI42Q0bwtMe8sMZObmETanGLAGpMGJE9cJB4AkJssqI5Oo1EBsZ3XKYBSGyUYMGeWxjFEOcDLPH2H8t4zQ/ktHhJQjtPHfi76CpF8SJWnM4HSSUUxvKqsjUvr1toUkcVWHuiSBE1qoj+vx1F+WILqgdwJAr/driRRV5d/5TiQ5r1NPGrON3Gw1aDGgG2qclfJzBn/FGBBQVNGijJaGJlTMBuoXtKB7+2543R6KjQlCP0JkJQhSygKVJZUhPX2qHEcXdFZtAXlFUlR3wVz/hIE+bELLig48+N1bAOrdDTBioB5KEV8Hq9dgO4UDDjzgrJtvWPg/lqWJFKPYQyYF6E866aRtv/71b/49issMlsgha7EC9Mr9zvkRvvjfwNe+sB3ywSpYaUFy7caPGSL8IS8+BjIugkIg3omb9REnrOlM4Xp5+JkWOGhBElMliY+iSx5UzL9WblcrO3zVz4ORgGRToVcp9bFDyW1aaV7y6B416kVAhOHWdlx74xqcevpduO9ewHeBHbcFtpoNbDOvCR2tjQj6+rC6r4BFjwZ48AXgOZZLZQD34Dpse9Au8LotBKzdo8IlG5SQAGWV4aYqzZZYWa2VMT6gH1MEY6wRj1GdP4pd8hU8ZaTQu+pnoEuUN/JTPNJN/J6s8UST00TzJCXQE9CUkAzz06KbwBJNx4MdhXC4LSc5rL9rLZ4/9ZFxAz1v3VA6zUbOpwAAIABJREFUCdICatXAxvvQoG1AnkXblZp7Ery1U2g+LzBgpqJMUN0jhdEC2jzmD3P527jo3HcmvOl51Hc2Is6mKNgllO0SAso8p2U4YicNCuTYkh6zkSaWhPjp1Y9fhliVGDSGDWha2YGHf3irqmIYkBZSgl/i0Rtoo/Vh2cV999vnF/+45ZavWLS4R3lMCtB///vf3+6b3/wWgb69AvQ6ba48egI9kPND/O/XgGM+uQ1y5dWKMCR1wHx1LAsysRcdwiHQu6xbdJHaOUSoR5S0YqDo46ln1mHJ4yvxyGMFaZ5DL0W8g0pOo/LXUS33LXWbqt33a/s9C9f0pQL6phGHqnpSShTcz3R6M4qBP/0ZWLUG2GEH4IgP7IlDDt4WU7osZDMB0rggEYA0ttFb9nDfo2vwmz/cgQtvGECJymSzgLptWzTQa0BwKKQTaW4AZ59et6PccDY4zXBsxvv5ET43UuhepFM30SuDULM5e2iMdP2Rfj/SsNELH+lgAxWy0SVYnGRUiJypGYbvbYv6c4hS1tMzhRMLCLFZTLy0jL6rVqra73Ecw4FeALwK6OmVGw0d5dRqkK8yCKQETovJsZRUsfMHyWxM+0r/vVR56YmTSh5eLpzTUazZgLd9Ozq26Ub9jAbYzRYKdgG9UQ/8OpL3QkSpaqErUYKKNaIaAY33MPK7+aAOTas7sfhHtwJPAtYADSBeWQM971VkDcQsKu25916//vNll3x56tSpo6ZBTgrQn3DC93f47ndPuCVOwjZjTQkA6byCZTPsnqI+F+LbJwCfOnIb5AqrYVlFwCEJj8k+I4UrZpgmWKQIY9YCN8Dyp2HZcg9XX/cUrrhiAE8sUc++qkcpMLL2crzR09rnXtno6et6/Eefkd8A8LlS2GSMlXPUpJfyKG58MeDTRta0lff9G3DM5w/E3DlZRP0r0NCQxUCRRjYjZB5yGR8xehAFHuxkFs677G58/bSnsKZ6AzfRX5MkNUb1y5FoH+9OOtrPvZLWsoQ/JzgJRvucw88z747fX1XlXAmb83xii9Gy53ncbA36sqxuIlr3VQ68AvLBY2PAJL83vzBl2bpKgLQ29WsFvOoWjYaL+lkxJMyzajtVibwAaAMw10Pbjh3omj8FdTPr8UJpBYJMiIjhfYfX0ICvak+k09x4FTEI9Gw4VRfUoWFNOxafehvw2CDQEwcD824M0Fso7bzb7uctvObKL3Z2do6aBjkpQH/iid+b/53vnHhznIStJswgaXl5ezYU0Cdoykf4wXdcHPXBuXBLK2FLjEKX5yS63aXOGQnrwbZRhgs/Pxf3PZji/856GH++QuUXXQcoRGreDbepNCVgvNO/9rnaCLxsIzC8NGdTvRuqDSLeIEP1BHPuASJ1W1WPzJAmnfJ3HwKcesoRaMg8Cc9Zy0wjgjCAk81jIEjg+C0ISgNo8HvhOhmkA00IMROX3fgcPvvlu9BXFrKxap3JNS0KIvwL1ysXXzC4QwtgDd32hiqRqWF9OW2DkULfBIDX7VHJmVaHzDW5mY2QjIddMUToEutyND1okzd6pnrevA21q1euvwFSKaGbISEA/RjSpKZyfwlsKadTinaWzda3THUw4cW8u4qLx4wqM4dPwOfCmU0xngzmHTAfcVOKpClFmAlRskoI0pKkNFQ0SAtHpYOAP4hHg2tBkR7Nb9RTmVr9ulIeTes68DCB/hHALvBaNE60OFV16B5WeZfddv39wuuuOaajo2PUNMhJAfrjjz9+55NOOunGOIlb+WaEECEegIqjcKDJ/mzKAuec2oTDDmmDgzWwnAIs9gZOKOHpAgR7odNTGonymy6Kdj2Wr+3Gxz52Px6gQiDL6HlpltSHL++m8brdEGoPvnlGoCoEWfmC4TvnkH9XgajkXSsqFIK7qvGYi/q8h3SgiB3nABf89l2Y1r4SuVwABIz0ZZD6FnqiNbCzWSCuR1wsoyWXACS+RjnAacPaoBFnn3cnfvDjFSjptBhzqF6+DmFR9aoXkN8gcmmAQqGDabBpnk9sg2Eh2s0zuKO86qTsgKP8rs1x2mQh7fBxqDYCqu97sr5vImNRQfGN+9IbMy5fysCsfuxKft/k8QlH9QB2bkTngmlo2qoeaWuCqL6EolPAQFJQXRxtRdKTdL1lIU5YckoCuS+4Z7HkPOFaMPn8wUZtduohV8qhdV0LHj5zkegSWEVdMy/WAaPdJkbBn0mw667zL7z00j//99y5c3tGO4yTMs2PO+64BSeddNJfU6Qt4pHQ0pHStqGF/8154NentOA9hzQjtdeIepfFso64Guj1hyRv1ICiMw0/PuN+nHIKZMNhLw1hWdKgcCzpplQ7aiPwWh0B40wNlbkzC98UtinL37JcOMzjxUUh0X/vhF1x1EemI+s9D5RLbOUFuHkgm0XsJyiGZSSRh8YGCuo8C8/3kQ7Ewtb32rrxyFMWPnfM9Vj0T5bpQeRILdtGQq9dGMncxFTIdDAyUe1p0Wui5li1h/UqA3rlWm25R237m9C7M69+0GRguagq8pY6w0w0WKI3A7Dm59G9fScapzcgabTQhyIinynmAFGawPUdpI6LMI4QhYmqVNA1+iTuOdTLT1nhoJUHLR/5YhXQ3wdYJUV8VSltLSNUiZQlwY7zt73k97+//vM77zyLLYVGdUzKFD/mmGP2Pv3006+xHLuFbsWQcEuVwk9LHfDbU9vxzrc2DAF6idKLdKcW5paSDhslqxuPPdWKj378Xjz1FNNBihAkpAoh/VLMYPxkiFGNUO2kV/8IbIJVLKHkl/r9K/5kqjNVdZZPzWejmcVa5kGneZCUp8FU8X+F7JpopHUtC05aws47AOf94gjM6lwHN1gOV2qmHGUlu/UIwiY42XqkboBScSXyTg/SoB9OXQsQRoiyPgaSWTjjjEdxymmPVDTHeWeK65cTD8XR+qfGU+fvhuRS9WYwdKMZvP+JqOqp1zfeDOlrIxo4KRv4uNeB2eu3zD24mpogvrIeh+oZJQ1s+B/08unhU32vVWlPdGzbha5d25A0A8VMgp5kAGU3QuxRNE6BehyyHFWlvSqjxN9J9kCFv+uMR/9/i4B7NwR6CYzrFtFEvq23mf3HP1121efmz5+/drSvblLmyec+97n9zjzzzKts12lOIyUbKMegO6K69OSB807vwCEH1yF11iBJB+DYNqyIkoKm3l6pb0WugzK2woWXrMWXv7pCBqkcZcBKRyGSRp7ucsfv2zIn2mhfUu28kUbgpeuIN11mOdJ1R/P78QMNlweBfih3l9AtfFsNmar5xlDHbRAouaGo6BnZ7wTeGFk3wZEf9vDNr70bzZnVcKMe8SzEo8+2YP0qF2f+38245dYIDe3AMcfsjH32aIBvrwcCSn/Z6Iv6kWncEdcttPC5z/8Fa1l/r7lYCtSZ0OQSL1eMkUpYvnr9Vw+h7JiGyaXqu1m4NTGwV4IrlTTyGHlto3nDr+ZzJmUDH/cDqh7pW+6hBHvU+hqU25V1qQV6cp6DUkj9Os2DMfWAogUMYAaQ2bkO03eZi9z0RpTrQ5HbDWkAU7tKBHXIJUu14h6lY1QOXr43TZEv59C2vhUPnXn7UKAXHRhmySwklYL6JJy11bRLf3/+JUfvu+++Ly/QH3PMMQecfvrpf94Y0MsC1M5Ecw644KddeOuBWVjeOiRJP5wqyUVD8iENJPTpwc/Fd779IH5+LlAmqx4ZxCjLEDnwNe9vYlrbW+4krd35q2MExg/0CujUoUCS16IBaw7dqbGqqUblV2IYVxF8HN1pKxKFT5zwv+341FG7I4sViAorkfGySg7X6sBPTr8J55wL9OlmJFOnAJdf9AbMmlJAluVHUQGBEyDNbIWHH52KT37293j0cUV8rdQ7y42YezACJxvZ9CtIZEL6prrGFEWxFHiCYPF6RflXxwLYgu9CrTdlsWopXf00SmpXz3GBZXa4YyKK5aX6l8ZuJeg3AtjeRfees9A0rxlxc4wwF2AgLSD2yDdj3b0O1ysaoFLgY4XfGIF+xsypl1144R8/+7ID/bHHHrvfaaeddhVsq5mkg2qP3qxBchZIxrvwrG4cfIAHy12PJBmAK8p2PKhbzw3DBSs4CfShtQ0+cdQDuPpa5YxQtIFsfKmJlEpDHkpCwYQ4az9fUhm9Jp+zWeVzVN2r8s5H97Ma4DTtRMcIq4KKuj2mSj9sBBBTG17GRci+Dyl71qgI2Uk/7MQnPrYr4v6nkRdVERsDRQdluwsf/fhNuOlmrjjWTJeRc4FfnTUN7zioE16xF66fIskkKKbdePrF2fjcsRdi0V26jFUrj1VcaCqvme5Vor3PNanvs5psKBuBOZdsabNSlebHK43V4/3+Sfmcbj8+1jLTVwPCbtkUgWqgF5996JAKzUxa2VQwTVquy/TVreVIIpd61kjV5bcCmAZgJyCzUzv8zgyQs2DR+uZnNWGPzq8Q9RwVuheP/v9uB+5hh2nyBHQKT5XuDwndz9lqxqWXX/6Xz+68884vb47+q1/96l4nn3zytbAwlIynVAiFgU+gb8wAF589BQft78DxexHH/QroxTsh0KvtLmTo3qPO74744jEP4Q8Xq1rhUlUNp0U5Tp7OBP+krLYJ7Da1739tq9ZsrverFSTN7jKY264OcQ/6+xUA1bFqJVWaQcatQ5k9IBDBQ4xcNsHXv9aIz3x8Tylj9dIiQlrKmUaU3EZ84fi/4/dcU/RnPLVPXf77uThwj0bY3IEitrgNUXK68MgzHfj0sVfhvgeA0PBtKkuFuUfdRYyKPZRUlYdRQF9h1w+PL1f1KpmoYT64M0/sSmMx0EZryI3uvPEb5q8GoB80UF8NdzPWe+CcMXWplRmrU0pqDstKVMR6wTHVLZbpIpGnUikznwuxXwUHKCNN2bgdAewA1O8yHWneguupEj8D9NJNIImlf8BIQC80HDE4SBKMw6233eriSy+5/PMvO9Afd9xxu5188skLkzRplQchM1fQfRDoSdIl0F9yTjXQ98EVK18vUtHNjUS1UAH9tjj/vDK+8j/PCKu4wPC9IUaYXWSkNp9jffe182sj8HKNgK6eETvCgGE1KCrqr7qbCqltcANSv/WRSrjfEe5KEvdK6P7Yz2XxlWPfjLp4FTwvBIolhLaLJFeHux7qw5eOW4xHHlXNI//fR/I44UtvQgOWwQlLsn+Von64zdvg1ns8fPJz1+Hp50gA1q6nNlDUJq/K6arZ9QZyhZhX7dXrcTXNVIz9pOJxr8djgimLCVERJz7eWzbIm+c383doEs0Yq5TApaL08KNixJKcp7vmYjrQsHsrOneZAneaj7Alxbq0l3rBAoRRFIoqH/kylqNK6PhntEAvZeppFOyw4zYXXnHFNS9/ed3xxx8//4c//OFNSZq0Se7BhBilj+4gkai1DjjvjHYccnAeibUGljWgqDnSgta02GSuRBEfgngqFi1qxn99cjFWrgdKcFVwhRKchqAvXJ7X60Yx8cW6xV9h3J2jRvnkm+wHrwkoo7zUBqdpS52byhBArFo00qS20pqT056WPUVLVIEOp34skXnWxPN/QuQzwEH7A6d8/92Y3dEHL1kNO0nF+E5dhhHbsWxlBo89uRIt3W3o7qhHs9OLLPpF1yIMCkjyPsruHPzmD8/jG9+6D6UieXoZId/xyLgOwkiJpxh6nbFHDABIRtIAfdUzSdtbbbjIet6cjLKR3t9I726ijsRI3z/R6490/5P0ewlXV9sl5n1u2bF7OAKeg6ammYpGDJDgavBMxPj08/KvMWvs6cHvCLQumIa2uR2w2h1EuRhlt4jAKqteAfagKp9h5VQjVr6YRXtPGx762e3APzcM3RuPXgN9eadddjj/hoU3f+FlF8w58cQTt/v2t7/99yRN2qk0VCmwM0CvQ40k4/3mJ81SR5/Yq2HbRVhprPofG2U8Qrn0A2SosA0JFuDrJ1yPX/xGqy26HgJuaEbkOLRgJW4tej9GtvHmika//NdVIDnehmZkio6fta2W7fg/b0L03I11CkoDo7FfmPpit6xUDGG1y7DZCA8hxpnoo6SxHNRlXYQDZbTVA785+53Ye7cUdd5K2GERVlKG5amQWLHsItfahfV960UC1w1CVQ4U9MCuyyPyG7CyrxPHf+NvuOiP6xHzHpCB64cIAnKI1ZH3PSRxCOrqm0MCFfIcrhLO4ijJC1J5xyoGgqiVVXcJmyRcqrqZLRyJRjMgm5iEImK4ifWhNNRHMYmNQaYLXOQjrwGX3nQC2Fhshbl5ZQJIt6hBEh7Z9ux33wXMfddsJN0enNYcyrkERaeMkI2mRBs/gat7OagIwFApHwP2FaDXrPvhOfphQF/aZbf5v772moVf6e7uHhjN9Jg0W/o73/nOvBNOOOEfSZp0bAj0WjwHQFMOOPekerz/0E7EWAXbLUpcRHn1jDtW9ZaXgcmhjFYsW9mCD330n1j8OP0VIDDS+JXGQar5wXiLrGqfe/32+iPNZlPvXwlRjn98xCMXsN7IT9lIOOc5ezWn3SB8JWyv6uyFpyvgSfIp24wkqpeE4RPR9uWGHiglTwrmvPVNDTj7rMNRV/cc4oEX4PAXZRoUNuB4qjGNz45YFuKBEpyshyjuR+TUIXZn4vqbVuPzn78L6/sUF6BMVLAjWX+StOQ1YspTDpLvxCOSXY1rkvdunk/pjfM5qRcuUYyJsu3NLrepiMBI0YIRoucjOeSj3WjHe95IDv+IQC4G4CiA/CWsVeFYmRSTFi0Vu22Cwazxjsdkf07Wp5quQ49EzV9ltGrhHC6qmVTKy6F9wQy0zm1CZA0g8mOUnRilJEBgxaLzItLLiSX+aHXIqjLdtNY18bISuj/jdqWMZwRzdHndsBx9cfc9dzn38suuOm7GjBmjbic00jIY1biefPLJc4877jgCfddge9qhdfS8EFn3Z34ng48cPgthskIDfSyboArfm3wkyXmqrr7MkKM3HbfdXsY5v3wG1/1VkYIYrjTG6KhusnbSa3IERvLXRprgI31+cw4av1vKYyv5d/Vtw/ccUZtlOsvsEiYQwH+7PhDpDpC8Vgw0+B7iUoiGf0XFvn7cPHziY3vASZ6GZ/XByuaA4oCWmaa7FyOJEtheRtZcmQnJ7HQsftrBZ/77ejz4gHCFpRJGtfRgEy0XaSwtM5WACFvj0nWvHmzlvMNKPCERaWkfpIzWkXTLzpSTEf6drBc8/rDMhIB0AuGg0aU8Jjo+pgrSTMxqw0gbAJNlr23Otbaxa3NoPNuRlJbEqMy6MsEzEy2j975VHs3zu9GySyecWVn0ZfqxPlgH1wpE3VWkb5lSc2wh2JHPEjMfb7kSzBI1W8F8FQZhSF+GNCUZL68kcE9dBDw8ItAX9t5nz7P+8Ic7/3fOHEsXyI48ciNNg5Gv8C8AP/XUU2d/6Utfui1JkykbAr2tevay1DCT4sdfBz5x5HYI4uVwXGplK8kCS4f1Ku2RUl/JbGZsFMopMnWz8PSzKS44/2FceCGwcrk6k919pCdz7aiNwKtwBEbjEZpGNpUNweS1+Tzs6aB0M4QkR8NAUvE8aCBHVId0VBs7l961SX67sJII01qAH397P7zz4C7kvRWIwjXwnASW6ymFzVKgNO8plGPXIfCa8OjzwLFf+ytu+afO/1MZhLr24t65ikDD9Sn3xC541L7XBGZpmafdJKOFU939jL8z5/LzFSm9Cby8CXisEwbaiRoIsvmP3+Mekd8wcb7fS78YXZFmRYNR2wm8xZf9o2YqDiGPcm6SXMdSOebg98+ibvtWtG/fBTS66EtKKMcBbNeD69uILQpGxXDiFLaRgybxzmZ5OI1jrYEvdgTTVkoIK2WPF0b62JuiXIeWtc14+EeLpHsdimSxczj0wq9weeT/Bt54wD5n3nzz7d+wLBb/j+6YFIg87bTTZn7xi1+8LUE6bXgdvXSv07tdgx/je18CPveZ7RFEy4YAvcrdcVZG2rMXVwExihIqdDMNKBSz8JzZ6O1txtVXPIpHHl+FZ5aVlFdUO16XIzDRduaisripHOemNuJRjPgm72+QxF6x+KVqxeC4rllnyJ25+DDOI0paUShl8Nzz/Vj6zDoUe1PEVhap54qiHVoagGkzUVffjoGlTwIv3i9aIF/5ZDM+fvjemNHtIZeNUSyV4Lm2kgvhxdM6rFif4o5HVuAr31uEx5cRkJuQ23F/FMsJsG4FsPJ5VeMqep4swyujvrsOuXYf2Y4cwnyI3nQtCkmfbJau50npHjk0bPrBvSC2VRexUMU04bLP+YTDKi+NZqPpR78pR2Gk7ncjTYHN/fmRrj/S84/0e7En2ZjM5JoTzRq3LGQLPl64+mlYxaFAL5KvI+UcRhq4l+v3FuDmyAW3EdOiJuxMB1r27Ub3HjNQ7ohQqAtQzgQIqXIn6pM+nMQRBn2UhOLRuxLQSmQuE48SRgrYi0WX00jTRzqzLAfXQM/1kKYWGoJ6BfQ/XAQ8MSLQ9x948Bt/8reFt5xoGQ96FGM1KRB51llnTTv66M/clgAzdVMt9dWygSqglzKCf43Gif8NfPnYHVAOX4SXCZEmVLDXYhqVoKWJ+4VCgmBUkF6Mn+tA0O8giT1k8w0octOxMpUSn1E8b+2U19gIyEY3Xq37CmN/vFn4jSX3hg7wJjdS+X5FrKMuBM14BXpqQ0ioie37WDfAkOAU2M5s3HNfAedfcBuuu3YJ1qzThLxcK5DvAhYciG3f+2E0z9laNhWvfw0WXfhLhH87H4hXY14X8IF3Tseb99sZ+SYL+ZyFNAzQsy7A0qUxrr75Efzh2tVA3gGm7I2tj/gsZi44EHYmj6hvLe5feAXW3fBn4LmHgKAHjhchjoDGrfKYtddctO/ajXSGg758AevZ7iMpicS1ndhwE0uHMKkwpqsMJNVvymvHMTFHUXEhZb4vcUj6ejQhl3HcmvnI5r7+SLc2EuCO9vfV4O26LuI4Rt2yDB46/g5Y67dQoDfeO8Gd7PntgNY9p4n3nrSl6LdZfWKhnAYsa0NqJWLwcMrEcSgN1TKuL3OIoB6TXZ/yT4SUkerEgsvQ/bCXxOuwF720fU6BxrAezWua8PD3FgHPAChUefRmOxjExt6D33bgyQuvv+l7I7376t9PCtCfffbZUz7zmU/dmgBbDW2pp+5STRILeSfBcZ8FvvalnRCHzyOTKyNlfq8C9IqMJ9uuFSCxQumGyQgRy4pKhQTZXCPSOERqKR6CTcGC120d7lhe9WvzXLJbJ35UEmijvNTg+SrsrpJ7QxxTASHlvcoZlV+qDLyBH1ad6DPkBwFaHGbZBLIIkjzc3CwseTLGRZfch0v/DDz1nIq0p3Y9kM0D2y/AnDe/D3Pf/F4sRTPWwkZDgw2rrw9T4xIev/4irPjHxcAjf1dfFQPTZgCNjUAQAL29wKrliiWPrnnAtvtgx/cehfzWu2CNVYf+UglddTnkC6tgv/AIltxyOVbfciWwZqnKz/ORuFHOt9C93yw079yGQnOAdVYfYj8WYKdHL4UyVe7z4F8Hx264d80IoTmqNytDbqyUJr7EmxsJaDdnZHuUk+kVPU2VjJmRVXNT9U5X81LeR0ojTZVnkoTpuy7CQoTcky5WfuspYLVh7KnPD/XoR2I76sevfrnmlVeiW+q6Gw38GM9yAzRV161m1ctjmrQRfxLgqWK3bR4zdpmFprktCJsD9Dn9KLkBYjdGpA1Fj4AtuS5m4skziaU0z45VI+aAIm/knghjllk2NpdyYEWpXvs0cE3DJyWcQ5KfAfqW1U146DuLgKUEegrxCMFFGQlikbLunmyXqOdtb3/r96+77q8nj2XiTArQ/+53v+s88sj/vDmlTSSSfb548lLpK6UGihFMR+HIDwKnfG9P+PHzQLpWq+GZWx58oVKkJw+qy5/kLQ0vR+JomVc5lseunVsbAbOCqkdiOA3upUZp2OZVUXEyczFGatNQ5U9FUCfHjXuGywUrf7gmXNXEwc8gKg8gtWJ49RlEpQBBwKjVVli9vh0XXfoQLrp4Pe5dDBS5WTg+QJCfuSPaDvkgpu15IPJdM7AusVHy8tJPLowiNGRc1EcBsgPrES1/EmsefwAvPHQP0icWA2uWSehdllRdPTBlHhp33APTdt4TdbN3QNDQjh4ri8BhmxyS7RPUpyHavQTZci+efuCfePb264EbLgWi9eoBnRLQALh7ZDD9LXPgzsthjdeHKB8jCAJ4jgsntpBGIbxsRrxC1vfTqxTuAVHHtmCxG1/CSB7LkyxF1hUWv6rSU4qAyoiiESElhrVjHCNgSGGMumiFOIITYtiVGnBHDEMvcRFFEaw6F2kQoz6sw8CiHvScsQxYbyJb8oaq+jcQmhVgbXAYboP6SFW+SiO64qxp3Qh1ErXhpWkrXWoVBhbglRp/Yzqb60qbCBtZmSmqHDQi1YR+IY3SrQF313Z0794Fu82Cm/NRSksopUXAo4eeSlh+eETOALR5HmXo6+50BG6NqIpvo/5hODiDrZwHR4OPWV/OoX1lEx763p3AcwBKlKtU4nEiq8+0HW9cGlcF697znnedeOWVV54xlhc+KUB/2WWXtR1xxH/8LQijnR3bQxxTqyuDCGzRR9EAVYLou8CHPwCcfvLeyEfPAlinLZex3HLt3NoITOYIVFPZed2RUMOcb37qnYXkNBqdsqJItgmkUQZ7uDM6zfJRm21i6UZEEcKQPHbA5S9dF0kUwM7lUaT8o9UCx5mBm/+xFKefsRT3Pgys7KdaJJnxrUBDJ3L7vQn7vP8jWNkwE2lrFwpRgkIQws9lRESnTH6cDXhpgrzNcrsEfmkA6F2PuL8HKBZUr2fHRur7sPINsOsbkeabEbg5DFiWGAy8f7WVkfmawEtj1PkW3CSGu34ZkkfuwAOXXwg8fB9gFwB7nRj3mMUyJAtbv2dXlBtiFBiByxLUY4RJCMdT4V/TsYLa4aaVpwj70HuRsPrtOxJuAAAgAElEQVSgl6kAXkU9ZNsX40B9rnaMZwSq2N/UMaEfSsC3CPRFJFaE2HKFGe5FngjHpCSplRK0hk1YvvAFFH+1FujVxNCKI6ZeiHLRNNAbHozG58rdGqCvvn3D5uf3Oj4SzT7V2K8tPZPeZVm29HxV3rrE1QmSgOc6iOJY+YKGYLcTMHXfuWjethNBU4S1/hokeRV1piEjxqVL791SEYzNeJirk4zXtaoF93/rNuB5wCp7SAn0SSQcWw5dyAfg/pGGq/7jA+//4sUXX3z+WG5tUpbIX//616b3vvfQ6wcKxb18LyuCGgroA5AYaIDec4D3Hwqcffo+yEdPw7J7VBxxUu5iLI9dO7c2Ai81Ai8F9MMXfVVnOQFDLkK6C1oLQkg3EZDxEAyUANuXfF1UTuD7nngNKPYKu5el7fxUmDTD9rfHk09ncObPbsIfLyYBD6AqRpBxgfxUYPe3YLv3HonuefOxshgjbmxE0bJRooiNZcPzM8rTZV29y9B8CLbI8KwEGTuBZ8dwWQaUKG4Aq9q5gVi2jyixEEY2yhFJRIw6uCLVyf3b1Y/FjZOfch0LfhIiXy4j27McT9xwBdZfcyGw+kkg7R8M588AWg/qRsceU1BuidFj9SJhkx3XQaFQgEfjJVG9u23JXTICyL+7sN0swsgST1+BOVXGqJxJ7Q0ltMXyPbsW1Rvnct4Q6CVMT654FdBTC8ENVbSFNeNWMUFn1IEnLn4AuCyC0zd0CyfTvALKAvRVt6eBS8VnVP0a666UCJRqUFaRTpZVYbodcpqqQs+EYjR06onxIT1eD4n0WlDfQ5yJ4ggpwZ3iNt0Ads9g+hu2RuOcZhSdAQRJEamfIMqkQrIzESQx9SUP/3IBvY2GUg5TVrfhnm/eCizTQM80QBpXFCS5aiW+4SRLP3HU/zvynHPOuXEsL31SIPahhx7y99lnz2v6B4pvdh0fUUQZEG4nOnSvywczNvDuQ6jY9UbkgsdgOxLzqQH9WN5Y7dzNPALjAXoj4cyfusmLqSAxW56TVzXvYYSkVFIbW85BOYyQqW9HWG7E0qUeLr3yafzmvDKefV6F6RP5XAOw656Y9bZD0bzL/ogapyJI6xE7DkppiJghf8eH49my8QXihlsS8pPKuVhtfHFcVjW/4vkIxAugc8M1oUamEzz4qoWGLuWLKHvHHtqeLTlLMufliBNkbR/Zcj860Ydk6aNYfN2l6L35WqBnBQDd6IMtPOcDUw+cjbptm9Dj9SPwIrj1GQQMvUsIn0YIS5RCxLG6NxpH9PlpwIhvaNOY4b0ooiJD+m7sCQO6doxnBDYO9JwMDujRJ1Ii5jDuElqi0V52AriBg6lRJx45507gBgjQDz+q413Vv1OgLrNTt2nRZZoC9AR5Buj5U7dANvOT/xRt+EBdznBfOEcNlzbLk3RJmha3adq1E+07T0VmbgPWWT3SK97LO/DsBMViAbbvD0rcco7bZMKrdJJ0Sd2MZE01RgT6OnQva8K9J9wGrNJAryvnjFS0AXrHSZ/88pe/8P6TTjrp/rG88UkBen5hU1P9n3p6+w9j/z7VbZdWHS0vJe3J8acI11sOBC7+zUHIlB+C4/WokMuk3cVYHr12bm0E1EIb3TE8ZK8/Jfl5DfBV2UnFpk+AIFQlb339KBRS5Ft8KYMrFUtw3TxcZxpWr23CFdc8jwt+vxz33wuUUiD0GxEw4b3VDrAPejtmveEA5KfPQuTmUAjo12RhMxfGBlBxIPlIRgzSiN6xAulQV9kK6YdMd1flHomQsp1y7dm+Kr2nuIeUDik1L+bOJf/JzU+5OfKcIWn2rgvX5Q4LKStKE9U6Ou+EyAe9WP/IP/H0tZcAi/4GlNYC6YAKWbQDuTfUYdaBc+HMsLHS7UHBi0RNzI0t+DbTG8IOo98m2nmmgsjR6nuUJFUhe/Xe+LnRvsHRvefX01lVOXp68onWZBgG9LblwQpTAfrQipGJfEwpduBhSrbeDhVyGsaUM3lpM5qD74gmpFp3JmrPj3KqVl+CHC3S3MwKNREC/nRJguNvyW5n9CGjyHASnm8CsAuQ2Ws6mrdtg9vG3HtR6tfF008jhHGAyEngEuRDFUHiPOfz8VCpo80L8vI9+umaSvVofDyLR354N7CW4Tu2Y1c9Xxi65/pUQG8xDfjIt0745nu+8Y1vPDmWmTppENs9pfu3y5cv/yiBnmE3sb6EMKNC87S+WeZ7wBuAyy96O9ziP+F7JPFoPcWx3HXt3NoITNoIjBYmNgb0Rs1Rk0ir6uJFFtaoYAWRdIlD1kcaWCiyxXKmFZY1FbfdvBznnvssbloE9Axww2PovR2oa0X2be/BjLe/G3Xb7YR+P4s1ff3wHRe5TL2Um/YVAngZEtcipT3HUtbEgu+5IA4zOi+Rds02pnOkhXY1jLJhh1az1feulisVvVQdQRLFEiIVIyKxpM+EbIiphXIYIpf1UCiX4dWRPwBE/SV0ZxJk1y7FikU3Y+mVlwArngMGlgO2SlWQ6ezuncHsA7ZG0GGjmA1U7p5RB4bt2XjHdURFL4nLmoynno/bPzvmKY18la9XgeLaMZ4RMJERS2q9BoHekqom5dEzdO8kytOloZiP6tCxrhmLKdn6AFniGqWr2fL67xtbXQbgqt9bRQtFd88xfIxq1rxMZTrtjos4FGtUgTuDAu1Aw54N6N5vDjAzg7V1RRSygUSforAML0iQAXP+rhi9Zd1ISpjzVQNX7cmLwt1mzNObcWgtNQGLCnjurCUAs9kBo4LKQTZAn0iHSraVth887bSfvOvoo48mP3/Ux6QB/bbbb//dxx595GsWHFuJCnCboMVYBfQWsM+ewNWXvht28Q5kM+uqSjtGfc+1E2sjMIkjMBLQbyQ3X/l25eVy45B5rkuT1KapQ5JSW1um4wzELsKwCVZ2G9z1YAkXXHQvLrs0xTod2EoacwjTdmD7fTHn8E+gaf7uAvAlmzn4MnwvD8fyUC5EyDjMYbOVswJGYfbHBtzjSuZTCMp606VnwD8ESRoCQn6jPaI5b5Lbp4dupXpDZWWAhZDphigFS924LWZ9F64tnCwUpCbeAtPuLJ2T6ECSwHYsNCKEu/YF3Hvl74FbrgJWPQ6kJOCmCvBnAdMO2wb2LBeZziwKXhn9aQmxHcn9C+uY9yIVPLovQOoog0Y26liH82tAP94FYYBelT1S6Y2eI8mOoVJvoxmV2vAtT8hqqWujIahDw9IclvzsbmAJBV6ItrppEQ3cSmXEoBaV8WArXRrNsttYjL8alXieUU80aX3+NN77VAJ8K6buNhtJh4O+LEvjSgidUAzSOIhA3pjjeAjjFHGiGs5IpEgiF4M6LwbU6d2bkP1IOgPjHffKeKQWOsqt6L1yGdZevFwRG0NG6tRDS8RMihpUg6hcLnPvOef8/F0f/ehHKWk16mPSgH6Pvff46N133v0rz824ZBQroGcNrQrNS2TFAvbcBbjuyvfDLv0duexaLfY96vutnVgbgUkegckCem6MupRGVOAyqsSUIUCbzWJspE4nVq5uwKV/XozzLyhg8VNA2bWRxo0q3DVtFuYc9hHMPOg9WOq1oZBrEglNlcOOkfUzCBnXp559zkKpTKDTZUc0rh2Gvi1ETFqmKVyyjiOCPlejJiUbRrMulSbJjs6RyOxyN/CUMKUIf+iyKG6AUhpHhjsL+AnkcKQkLswS3BN4IRnCDmy2r9VOHi/XZAOtUQ+SJ+7DfVech+SOG4FyLxAOAF5RyYzuBczafwdkZ9ej1BAi8EsIUUYYleWZFLlLa+tWldlJTtehpkYN6Me7KEx6WwkVKqDne7flLdKAVV5txs+iXA7l/TYVG1H3uI3Hf34vwOKpEqM5mvkusq2qTrx6ZVXIeQasDfJoYr7cv4kIVJfbmYvw/2gs808DgG1y6Jw/Bd27dyNoDjCQCdFvDSD0QiROIutFslSxI8E1NlRW5ZtK5Y/oxKizrC2t+mfC9SZPX/278Y7vpj4nY5Ja6C63YcUfnkb/leuE1oLIVa3YtUa+lO+zJJePXp+/8/zzzz/0sMMOIwlm1MekAf2/H/HvB//xoj/+xbG9DAeIggGKjKfbeKbMwaWYvx3wq5/thR22WgE3XVqrgx/1q6qduHlGYNPkO25yshGIy5xKqY/ZGFhGmsQ2vLocEoIZnVAS1lh3bGdB3pDHeiSnAy+ua8TNd6zDL3+3BLffxtwypHwtcDuAmfPQdMDBmHvg2+DNmYdVkYdC5MDx64GYHqx6ctHG1juiyYGaWl0Vylb16Epwp7qm19Si0xAxvSWMMIq6uGw6ejeoCHvo+uDBcefmOPgvsrNV7lzBhQJkRZwz12LkwI0jNNkBsn1rsPy+W/HMDVcBD90NlFcCQsgFwKrBN07FlH26YE+3UGwoYXV5LTJ1jSiHZNjTkKHXqGRILTsrX5IiEIfCbNKbkzy1eebfK3vVaqDn648E6IWNUQF63iFnDec7w+Yd5WaUbunB8vOfVCzxkG0RyagwzQ0GaVfka6kyO43jAvQMu+uUErl1pvad36soGqLXI/OQ/ya40yCczpLNeiHXNc9sQtyYoBfstqjJKNrgU4ZftQVRHVlQwjVmgo5k5m/Ot2NC9x39LVj26yUo/bUfoH4cKxzoypMDw7JTRiJgs+wv9T33H9ded+37DjjggFVjubdJA/pPfOIT+/zil79Y6DpunWLdK6Cv1LiSIWsDc2cAZ52+E/ZfUICbPiNhudpRG4FXbgQ2DfTwPKRBULH8beanDROXYU6KQ5WLCMKS9IeNqW9tZZDxm1Hs94ByGx5dEuAX5y/GJVcD6wPatqypywCN3Wg68G2Yvt/BaN5pAdY4eayJLbj1Dcg6DoICWehKgES2LfF0FLCSiU7Q9nRy0+SsYw3wIsdZtbqNsWDY9QLYEhbXXAK9Dnld3Uxebc5V11DtdtV1BdZJsNU5zMiiN8iadiV1awyCIFA5fceKUe9EaKfi5cqlWHLrX7H61uuAR+9W9fcoApkEmAPk92rG9DfMQGZmHZ7pWQa3MSPh/CQN4dmq7ImVBQzHSqOQKma0ybEKOG1GxvQrN18n75uVcacqLnxpyGJtAPT0OKU82qZgDkP6HqYE7ei5ehlW/eE5IY9lJLdP6jUJlHrOVPQXiAQ2bE2ejCXVw++KdYifim+p6ohI44IkUC5J2g68Bn9uB3QsmIXG7VuBKS7ChghFp4iiVUSoK0BIyiQ2Mq1jFCmlvayu4x80UI1BqkWrTIvlyRvWUV/JAH1nXxuePeNBxLcFtLTYDUcJz1BJUlInyhzj1G9tb154/fU3HL7bbrtpC3l0XzdpQP/Vr391jx/98OQbHMttVECvmL2VnAz1rq0EXeym9b0Z+Pf35OAkT9aAfnTvqXbWZhuB4cnCoV/EvCQFNAbB3UESsVQtFtARRRkmpvN5IJdBOlBEGGcRWVOwYmUjfnXBg/jdBQNYt4ZhenZb9AC/GViwP2a+4/1o3mFvlLItgN+A1PIljM4/OvoutfDq0OgpIiaKda6ETGwlolXxxpX/lBLoBe3oaamjWnLWaOpbbGAvl1cxVdkopaRJ6XVWNsgK+U2tafrS/B1JWjxUIw/1Afl/Cd/SC1EefjmKEYdFUcdszFiwCr2wVy/Dczdfi9V/ugAorgKcIhD2Kw9uDtD1jmmY/uaZeBEvopiJELoWwmICx7aQdVOEZbYIzcLiWAwri6oB/cgLZkOgJ8442pAzXrEyrBzfRRSSp+FgWjAFL573OPquWgWnX2GxIXmK3VkVlreRUfNB0FsZqcpwNTXzRv5YUG2QXMfWsDtamH7QfKDDgdfmIsqUUQbTOiTZxUoRUWssEO9ZNaJmo4LQoYauof6pjnLGMDbVHCOP1uSfYYB+an8XHv/OHdKLXhYX9xRj3Yvdw6gIeQWIp0+bdvmdd//zyO7ubtY6jPqYNKA/7bTTdj72i8f+zYbdRiOf+fiISkoi08s8JBmPEer/VTnwra834+j/mgGEj0lIbngpxqjvvnZibQQmPAKjAHoWoycJwjJzxh5sj+UvRDbmJymGw39nUU58uH4begv1uPTyB3HGWSUseQHSsjLxWpEEGWDWbMw67H1o3fcAFFpnYCDThmKoypfon5JlW/GKdNprKOImAqoRRT3oicWUL60aBL2YlDejMZxkQU0aNP+nNkH+L9m9XIOKdS1gL3XpGwK9iQLoqyqJT+3xEe8Hr6m6eYlTYuruXU9IgzSQYsrypjaaHSDbuwLBs4/jwWv/hOiOm4F+1hf1AQ0FtekvADrf3IWm7TvR65QQ8HuYv0QBnu+iVKJHr5TMDHGqmkhV8+pfeoGoOcF5lIhHz/cbsuuaRGwU0HNeiFocgT6i0FIG0wtdWPJ/9yO8pV9UjzlrREbJhOMrIShewoMDl/3ehEAZS6pFiTXFVNc1hiyFbfj3ZiCzRzPm7LcNrGkZrPd7pXNcTCl1CiU5KsfOewp5z1JvT00F0/3UkE9VGonWg4H/wZEYPPeVVFVUy9bFzEI3Fh93G/BoVcbB2EXsEaGkb6WoZer0qb9+dukLn7UsUeQa9TFpQP8vSb6t/+Pw/7gRqc1MyiDQi4VHCSM2Q2D1L/DVYzI4/n/mIy4/IN5IDehH/b5qJ272ERhG7OLcJYgwH0/PhqBO7zGOxbN3qDtP+dBsB9aVmnH935fj1xc8j1tvBUq6PXzid4lsrfemQ7D9of8OTJmBXttGmG3EQJAT9jxZ65SYpeoXw6QWu2GZSH0liak9Z234K560MpRNaH74TwPKUjRXMQKIz4PelcqvVlGaK2G4wbVpyFU0zA1PgNdUJCfVop4elvLmFVuYPy2LnhfLmUKEaQLX8uFbGXiRBSuM0ZhLkQysRT4J8Py9t+HFq/4APP5PoLQaYIkXN/9WoG7/Vsx601aIpsRY7/WhzPr7NIDvSKPdIbXPQuDTTVhqQD8aoAcyscpzDwV6kVIS48zxHMQxJZBzaFvdjCWn3gPcG0kBPN+5BISGefO0FbJeHZKA7H3ONyZzqeegz9XCd1L7PhXwF7Rh9hvmIu2w0JOuR+KzJa4SYWFmQZVfUh0xFfY/mfPKP1eaFfy7HIxISTrBQwzV3dQYL3ZahpcGcCUZzgiGLymnV+IwQD+rvxsP/89tqhc9H8GMpRDvSYKlxR8wdB9OmzXzB88889wJY73fSXvCG++8sfugfQ66EYm9LV9jxaOXb+CNerDtMihYdPSnbHz3m7siCR+SEH8N6Mf62mrnb74R2BDoozCES1U7evJBrDY+AZgsYLchiJrwzwdW4DcXPYe/3AK8sFovWLcLcBqR32t/zD34PWhbsC9edOuxJrKQb8ijrxAik/UQlLiXRci6tmxs3NDIgmdImuIg4m1rcB9yd/LfDKUbsNf5cT04hqg3OFYmbz9I1NtgHIe4OIPbgwJ6tZFWr1fm5FWEQQE974fGu0cJXtELKsPNerCyjgB9xN43rPVnLjIFymEJjU1ZFPt60FXnwl65BA9f9ycU774dWPyAUv3JUCe/CMwA6t7ciql7zUDU4mDALiBmq1wq5pnuavThNNBvbtb05puDL8+VBz36oUDP96hSL0qgNmI5mkjKW8ja9fCW2HjxlIeBp7XSjUyKqpC9WF5qDdCbVzlzgrPWo2dqhuWVdUBm5zq0bTcFXTtPRakpwrJkJeL6GG7WQf/AejgRSdwePDuj0jMWYV11kBNBJQK95plU5+EJ9ikGlRX5rPyknbIirAyXTFmL6a3MKwr0luWhY3kDnjrhPthLdNLBBBmFYuBqDUEB+uKC3Xb/r0X33HPBWGfIpAH90qVLW+fO2+rKoBS/ga98SI6eLzv1QBEGkic/+XELP/j2brCShysTaqw3Xju/NgKTMwLDgH34RV0fUYkqduwYZyMqR3AzGWkPGww04MlV3fjV7+7EVVeGeO5FoEDnwq4D6ruAufOx1fsOR+M2u8Dtmo31kY9i5EqNOdnF5SLlw2NkMo6EqcuBihq4viPdLilCJ/l/A75a9tWArRDu7MFWuHSrBsF99Et7OJO+2jAwBoaCcHXNhBEOAioJtrqNbOQoxr/JwbpSLWBJ1WBAx4+/0+onMcv1rBS+q56zUErgehbSpIC8FaHVitG7+H68eMc/0LvwL8CaZ1WnS7cs3j3JWd37zUXrLu1Y5q1AXEfPjx7nUPY9x7Lm0b/0KpEaeeF6aKCn5K3NsknyPnSJnCZtCokutVHnNKJwRx96f/oc8CJfNw1eIpNh3KscvHrVOvbjAbGvmfYE+BlAbpdWtO/YBX9eHYJchDBlzIeqiymCuCRGYbaO8V+ugwRxGEmaV+JOUh6XIGZagQIVUtea6KhW1XrWKStTFaKIecbIVee9kvLJvAPHycBZHGPt95+Cu1RxHYbWJXqq+RV7xqTo+eiHP3zIby64YNFY977R7wYjXHnlypX1c+fN/Ul/b+GoNGUvKk0C4kqWrl4OrKQsHQI/cWQWJ31nPjznYVgxX+BYb7t2fm0EzAho81fmUPUi1yvGVHXoULX6lCkqUufIRy09DyUOaep6VDcsaq87Phtn+IiTenh+O5a9MICbFi3DT35ZxH1LgIiRT4u18x3A9G3RcdDbsM1b3opS5wysShzEfhOCyIKXWJLWCgMgxz1KenFECKWGmaQylf4XYRtTyiclcdqb1mVDJM0xJC7EPFUeLDlJgqtix3MFqj2j8lOL56jfV82gKhVqE/407PrhQK9K7zQTWzgCQv2TezAa+Ly2nShiH50tRQqsCklKDpedwrg/KxlfO0PnnfRdsvNt5EolNJf70Lf4HixeeDli1t+HawC/D3BigGStnYA5756PsDUB8hbKdiBkLZH5ZchXBIxUlGP4UWU7VVUGbaQCo6pG38wuFbhQUq5bcg1/NRmPXQk5ThuQ8URcRs+KxEUztSBueB6ls5YBazgQpOKpWSbtbVWbJDWm/G9itfk5D2jbZza650+B2+pICmZ9rh9FpyzRH2lvw4ps8dwZqo8lVM/afRIwRY45TkVyWc61XYQJhZSMfl41GY+Ta2i5n6lcYVSA4Xo1T4fi6su5r5Ks6ttZFBatw8CpK+CuNN0YByesrA9qEzppGsXRyq//71fe+N3v/ogyRWM6Jg3o0zT1d99178/de/+dJ4kBQgKekQ+UncuC5ySiA/DOg4Bfn7sAOfcBKbmrAf2Y3lnt5MoIqJSQopnrRa2lIyW5K8lA3f1Kk3lEWpJQJYQzV4RsGFqO4wHRvfZ9KUJXtaw+kZjtsZgXtBGgFaXyHNx+Ry/OPWsxbr4N6LeAQLhrdUDLHHj7vh27vP39yM3eDivZYMbLIRBZPG4sQ0FnkDDHkHolw7jR9zt0oZrCY+WdKClYBcDGTlE/h/9bkatMqF99UfWVqzYYnX14KYCsmFkmLaqZ/nJFeR+6L7l83wZX2bBJt04/qHFSrP5MHKDZieH1r8bTd9yIZdTPf/JeIKZ+PvvwKunTxoM6MH2fWUim2OjN9aHP6kOQ8l36EvplHoTcCgIFxbwYRrB1m1wGeJXxorxbiYpoY1CRD1kOpkPPCtmlmoDVBgJv+vdb6qI0vA06Y6I4aMos7UA6BXqejf7+fuRzLchEdWgotOLJi+4Dru5TQM/y0pTV8groHYd8DM2eJ8h3kT2fQcvuM9GydSvspgRltx9xUkIZAUJPga7hgAwfx+HxNsMPUZihMvQbXzDmkxtaeSrmoI6X+PSoX6cZvyGGs6yBjUNrNVHUiRy0uW1YctlDwIUluOsc6SBJa8dm5EF4LrxDFxH/5SRP/fKcc9501FFHMZYypmMygd5999v/7ePXLbzyp1Ea++KaMHSmB9WIJpB0tNcuwLk/nYWt56wSBSPle9SO2giMcQQ04UZtyGX1xxxSIkagV1Jv1E2XwBg9d5HrlIAY4OZRKg7AcgJksjQOdK1QRG13R8KDbr4Z/XEGS56J8avznsFFfwR6e4AyjQw/B2QbgV32wY6H/BtadtoHPX4L1rMDXK5OwtaKoKa6bxmrVsBDUenG+NCvrdNZBsjxGSQUcjdQxoEI/4QBGr0EbVYJ8YtP4Lm/X48VN/wZeP4JwGKFUVk5lfOA5v2noX33bqDTQp/bj1JaUMUR3IekuocWkSMgz9csCp5S2aBFVKq2fVN+WOlXUPHslc6AnbKfh/bot1hlPs4+NoYh2DqwSPyScslEyd/aIcK4CM/Lwk2y8PvrYL+QwfLLHwJuDWT42fCGKRNhX6qiDfU+tgG8eQ2YttdcUNU5aXEQZsoI0iIiSkIjUq1gydJ6hchwk7GSFNAzbTDUZNgU0JvqED/y0Zo047GL7gcuC2H3qvGwOJ+4X1GnIqX55CLysgmS0j03Lrz+rQcddNCYauiVSTRJR5qmzn9/+tgP//xXP/95GJWZiVGHFjAgmYMWCoF+q6nAmafW480HUD3s/7P3HXB2lWXe/1NvmT6TmfRAQhKCASK9BUITMKgRRRRcF932ubt+fq51/XTVFRVdGyq4Nrr00IuU0CEIQgKhSgohpJE69d57+uf/ec6ZuckHiwkzgWHu4Te/hMm9597znve8z/s8z7/0yWSrHbUR2NEREDSt2JhGiOw+6fdyvekXxhLKjy7MzFQEzJpqcWe1a/Kynfqc7Aeisif+767jCj87iIqI0Y7V62kf+ywuusLDsle0LRmLHnUbsO8h6Dj+ZOx16BxE9W3Y4Jso2/UIbZeOtKk5jArN8IeHZoFanqQJzUg9VMFPFolt2DcCsWIQyJTSwgh20Ie6uIymsAfldSuw5MEFwIIbgZ6VQOhrds9y/hQXHbN3R+v+Leht7MFWYzN8yxer1RwDFnKoBL4AHmnra4hnr240ZG70L1u6gGeYg0wiluuZCgMpL2w4m+pIz5sCRqKDwE2uWhZrRSWSYG/mLCShCdNz0eK1wFoBLL3wT4IQNyraYpLyPN9Kadr9gKYDJqBpWhPyY5zksaQAACAASURBVHKomGVEpi8leJ/2w/wwwxFmifjbwxvW7Y8B3d7tn+I3fq5zgYtRQRuev/Qx4LYERg/PRswD/WG07uCI4rWDyM5HiLwFS198dt60adOqMpq/bvV442/z152HqFfzx2ef88Evfe2LFyagePdAoBcDAVIiKMpvAA054Fc/c/DB93cAficMpKIdf+Vn1V5WGwEND4TkOIjpckaxlVQ5kn23LMli35sBhUhvLSmnY5cGGOkdhVRdY4JvCZDOi+pRCeoRRB144IHV+NkvV2LREsB35aWA1Qp0TMbo4+dh0onz0F1oQWwXEdgFBFYBIfv67JmnehKixaVuLxroWexKOTSpxsyIvKG8L4rU12rHgHiJVjrYzhChNBMgXtGOYuRiD3VmAK97C7yXnsGLV/8aeH4R0FcCLE/181sB67A6TJw9EfaUPPqKHnqjCvzYh206amrCJdXNoUJ3PlFlzcR75Q714w30u6kokSYt2hJR4KFy0N9s+fetuvlZoOfn8zlRmTN9TpzU66Dke7CtHBrtFhS78ggWd2H1JUuBjFnCi28AnP3rMPGQKcAkF35rAK/ooS/sBgxBi8MWnIkNw6Q7Yw5RTDR/DJuZ645Rwt+q4Xqdz309gNn/HFpZzcj7OYwO2rHk/IXAXQnMXpmVqjOwfaA3zKB5TMe5W9eu+vKOcuhlDg/mqP3+oquO+JtPnn4VjHh8v5JYrAhjyvjxT+JoCibw63OL+Mi8sUC4ERblL2tHbQR2cAS05Kj0nYwuo6Vwyka6GkoltjLyK51GEVSpUocgiT3BC9s5C2HkwkuaYeb3woOPlPHfv34Ed96pXtnCMnaKQOPuwIFH48BT/gb2bjOwCTmE+aIEpJKvCp5s7XOuEzVPLjlBQVl7SkxCRKhEa9PCNR+hYFQBXDEK6B1Te9wsq84U+sgp8ih3a8AlxSuglHYsVMRiXEGh91Use+h2bL7rOmDZYiDcrKVDZpkdQP3xY9G03ziYe7jotrrgxb3izJaLExEiCVKONT9XtxcsZac662nfPptT2kfWNkAW3LM2ww5O3bfJy2U71Q/X1OdJA72bsimSnAuvFKBo1GN01IoVNy9G+eY+SG7WCNS/px5jZ01CcXQTuo0+eLlEjGW8pAyqRUuTJPUnSEwLAbEuKR2T8rq5SMWV3qlH1sPvF3RKe/c0iKrzixjV1YIlv1sIPAyYZeLaVAUvC/TcIDH4h4ZRPuiwQ//PYw/fd74htf0dOwY10N966137fOADcy+I4uCAFCnRr1wkPfrUXzf3F0ern/+oHp88YzqS8kpYrFnUjtoI7MQIsHwvO9Z+4CeXYPUsT9tndN3QOqPJcqQGeiNOaTkONwEufL+A0OrA8jUWLrh4Ma6cD2zpJtCO5ilNAPXp9z4YM9//MbS/+zB05puxKTCR5F146lALN1XKTUIi5lk8iGH19xL02dR2g+ptZwAk6d2PwEPK8xlCW8RPFLUt91MCPfW92bPUEjFbwbzNDCCiPhwwaQgx2vXRu/RxvLjgWviP3w+sXaHueBx7NhH3cZA7bCxa921HfqwFz+xBxetBGAcwHFc2XSzNV8Mh1RyI308rQln2LhuCFCzI32oZf/jfvAzEmTE0suBLDwPTdBGXE7T4Rbz8+6fEM71tzzGYdvAMdLV1YmO8EWbehZVz0eezchIhZ7NyolWazH+A+FdWcEQpkpoR1InwuLkb/uP3elfAQF8NwBPKP+ebYaDBb4C7wsSKC5YAz1IfiuqO7IHEMFiWFNiDbn8j0+w8/W8/8XeXX/i7Gw0pke/YMahTdOHCJ8efcNKcH/f2dn9ESJfyQKTlrlSnk6wXZvRf+Czwlc8eCidZDtvYYWzBjl1l7dXvzBHYfrqneu3aa+wXiddAb7K0nwVb7XtRztOIXARRG1Z3teGmO1/CBZe+ihdpm85sk6NmNwLj98K4D38aYw8+FuWGUShbOZS9GPmCI7r0cmSgf/aVlU0qevMEHg1QsBi8tBfa35vPWgjvzDv0Blelojmitita+QzyWrZUMBwlgV0k1P6OSbHSVrDPygnXkSJQ8SmWU0J9zkCT5WHr809g2W3zgUceADrXq1kO72QzYB/YhFGHj0VuegF+awUVuw8BWRWCoifqXO8NgzsDktw3VmMk29dM3srEi/oBfMRbDM+bpzx6boizylLW88rGHyjHMerrGxH0eLDLQPeKDZg+hUi7PDYHW1HO98CgyaIfwPdC5HJF2JYLPyLYlC6DtrRKZPNGi1i62EaBbKxEyja998NzBNMNaTVDJbN2zi7oNQK9zGzTRLPXBO/RHmy49CVgDXGl/aAVmFYsRCKFRtosfqz75vfO+tS3/v3f73rLA/3y5cubZh919LfWb1j3mSQMbUHcpzsUW3iyyngkj/iUucD3/3N/jG1dB8dgw6d21EZgR0cg88Dm+xhdNQtUQ3VxXlFsiMmyvUp86pKdQ4BGxHEzbIzGrbe/gF9euAEPL1KXSGk6kjbU0o7xJ5+CyUeeiHDcvthoNKKH5Ucjzd4FyJ/AJV1LTp6kdqnkI0cIYg+mm9liSidY0doxA4tea2Yvu6NX/k54vQQY3sJ0faOPOFXu+kFwzBWCGHmnIJToRGhyCp4LYlqmUjCFWaJ6pxlhGY2Gj7agB52PPYwX/nA98MSjQNwHWCXA9YAxAI6ow4QjdoM73kavWUJohQKO1EqLar1rS54tF+orqNCK4inSVkOSBakdrqK+bW6dOB0YjpojUd5ZKkscCxVhYlWDYEUaOxVMF25iCxicvfWSEcEq2vCTCqLYgwMbtmlJuz1m2Z/mOJaFOOFmV+sENIESaeRIJZKZmPqZOc3bZlR27Iv00xH7A3uKw3mDQE+Bp7ZyC7ru2oAtV60RqqJBSm+sng3Vgd608nEQh38+/6Lz//7vzzzzkR37hvrqQd2Lrl27tvihU0/78h8feegrpmXkY1pJSvEhkYWPnyZIQgPYd0/ggv8+CO/anT36NanHdJr9p2VYI/UA35kLq71nJIyAZlwC6pICki2gH6lsJZHoxjOzlnjMMphjIYlbkJij0FNuxfPLAvzsl3/Cwwsh7nKs5vtxDnDbgePmYep75qFh6kyUrQIiI4eQ/fjEEt68RzlPIxKb1syprbqgJt9JspVUuU5U60xQMY5ZYRbo+WxXG9CMhLuWXSPHwU7bHtTKD00K7/An6xurOx7XDCmtZ5z9dFxVid2WfQHBdFxnVPjUhxuVUB/04sW7b8WWBTcDLy0BzG4N+gQ2TwbaDh6LjqMmoNwSomyHqJgVxE4iJf0kCZHP5USRjU2FIAVSShk2iEQRMOc4CLm5G9RVdNfNgG0DPa9JTY54D+i0yPlLEKsoIKaoSd+KEfBepZaJtmxaFalPKdp+jIXIy2aijtoC4fzX12YbvEQ2WZnQ0q678sH7pKzFlFXtyKjRyKqTNTPgMVN2h1DO2e6JDYwN2rHxxrXYcuUaejSJfCTPx0DvOAYCmghJxYtbIyy89+EH/+6Yww9ftjPfflCnaJIkzsfO+Ninr7ryqrMME00sPTDQM3wHslNX1S/OkfYm4KYrj8C799ogvvTiSczAzslRC/Q7cy9H5ntsA37gi+kGHyqvHMgcy+UoUhOJ+Yxh24hjB4nZjrI/FsteCnHDTYtxwWUxXulKhy2qA6xmYMa7MeP9H0X74cdjU74e3WJ6YUtAkvZ+TMASUHEiKTWLoldqySqCIzKBta87IMSiSnTCp5eFUzMb4XJbmcLEyLt9KqGrSxD7throNcDoodz3be1HdePEhZW8b5ta4GL+oe8QGrgkRjHsqIxRSQXuplfw/G3z0X3X9UC31EiBqKKAvXcDLUdOwOhZE+E1+uixe+DbHuKkIjx71kwdNy9bCDHlsW04VFULKWGSmQEN6jK6yyZCJoHLb+8KKE43S7wXJdJNDYiSI+cqvQs47mUnQWDxHlC/xYYbOrJ5VXyD1ssyqdks6Cl0cUBoSKiu7MaIGZJWEIbrsU1GL9oY6ZEGegZ10RkQ1oEeZH7w9x29o/DqlavQedN6LSWy6JgyO+iMTbt33hvDtIOm1tYL77r9tq8deOCBO1X+HvQZ+rVvfGPed8/69jmGid2YUNnSK00QWdShpqMnU6xIaHZ3XH8cDtlnHWxjmaJtUtSNBH3+PUPhDNdZUPveQzoCAsQzc/D9MmzbA43k+KTx90lsIwnpBMd0rx5JNBprNjbg5jvX44r5a/Dcc0BXCITM7uw2YPcD0HHcR7D7YSfD6BiLLVGALr8PblElPpkn8mEl9UUzuIHyptL3VFVMaXwDAK0s28tkZ0W4RXTiNcC/kSLekA7gW3zybBz4NQhq4xhVj0e/iE6m/McsMdUq10BjIkeOdwJBcguZIt1gSY+feumEPZa70OEG6F26BM/NvwSgYU6lBwi3Am4gdDznkBwmHTUF5lQb3blueG5FOOQCGTBMBBVWhWKYriNWqUHkS7bv2oUqf4G3eEB3+OM5nhqcmbFnG1Zm7L00ZTRMOJEBNwLygeIWKnYsGwGbeAVuAiL2+LmxVaxCphQo2fx2cnG6Kc40CzTbH+5gxtcM9FWlvSzQW1xDOGaGDYsCvoaB5k0NeOX8ZfAf7NGyI5kMaaAnlo1MtXT/Wt7voAO+94ebb/3pjvrQ9+87dnhuvMEbfnX++bM+/el/+iWi6DDiVxjoKVXi8yoEEG3BZskzAi79zRF433FdcM0XB85ajUCuBfrBvj3vrPMRPGXQQY7b3i5Z2CWfYKBNijCiOlhGIzyvEfc9sgYXXPEq7noY6PKUgSV8+PaJKM45CdOPOhnuxL3Rk2tBV2q76eZIkStLyVHsLuX3zCQVKcxTUJAnk5plSVL2FVUgwUwPZ5vy7ja6+yroMyKPVPZWMjrB8ijSncc2FdB0ePrV8rKyKLNtVlrER12tctkGySRO+XvesyL3aF4FjUEvRpW3Yu2jD+LFP9wELH8WCCmnu0WzexpsH2Bi99mTkZuUx+ZoCypGKCZDXKDZr+bS61H4hTiNfA6Rrzz84Xkw6tLnXIO2ZtqmtKZKtinVkSzQ51K3FY8UR167dmKrtAV085uBGFn+l8egKlvXilY/dEaGrJ9qOjwHcEAyOAPhvQYg3iCV07IFXMcgn6pEIfeyjXW/eGHAh17GWHeqrA0qzY6pQdL10Y+d/rUrL7+c1LodFstJzzq4I7xgwYLRp3z0I7/q2bL1A9xM23DA3YzH2kTVE8E86d8+3YJvfmEi8s4LtUA/uLdhZJxNQHeWmL/4dEMrGDDdGLGXIPIbYJp7YPES4KLLH8cNtwMbSiyVc2gcoG4arAOOxfSTqEs/HXbDKHRFIUpI5FwMKrZLCTxDwHOqma867BqJUsvXqiBdLX5TvfhnvcoMYczNQlbWlHL/SFXHq8rOzZgSrNVgt1QWNx3u/g3T9jO7ao+UjXO/4h4peQFFWQzWY2BEJTTYERpzMTasXYo1ixaifOUlwOZ1QNADGL1K1tgD6DhuPDoOG4+uhhK8XAVRVJZSvkvwmuWquIwou/nDuPRM90NfxJzYTlIDFeXSs0fPqc4NLTevNJ8T6IuEIALqKF3LzZUaK0kXPgUt9mf1AyDy9K4ppTQr3acP0rBeq/oz+tcL9JH25G2yD0KOniUB37Yd4IUQG7+3HCA5ROH1/YE+m9bU+4qTeM3//epXvvTd735//s6I5QxJoF+6dGnj+z/8wV+88PSzZ7CG6gryhdp3vmogs+7DkpoJHL4fcMPl+6Deeb6/P6+airWjNgJ/xQhwqrAVRCJ7vhmlSoRKxUfrqKlY+3KMy65agvN+B3QGQBdLY3SXs+uBvQ/D5CM/jEmHHIdNbhOSpkaRqyUHmGB7h97pYYQo5M6aAV4BdP2qeilant9wezOLDN6abeyzXqQkP1KqJAuAlq7azaNpxUgN9BqQU9BSavjDtofy1Kv2/tv17LNxlx6v/E+KfUrPRaS3EO0pu05kfgrkTxJi8z2JWoYbo8HvQdPqlXhy/jXw7r8XKG8FQDW3TqCJcrrA6PfvgbopDci12uiNe+DzZARKsYoQ+TAdLVsPx0PbIPR+ULdBg1UVMYJSZ0Qtx2vfXqpYsSmYCtF1T+yUE8/qRqYOOCD+NABO05EhqyH9yzZDlWlJDMfxkwCaSrzrfj/d/FddDLN5zmnHdBD6ERzLlSJHzi2gsqgPm85aLroEAxNeavYCMlU4o+yglvz21+d99h//8V8e3NlxGvSaITXvT/rA3G/fccsfPoeEVTMn1VIOkNhc6UiDCpFPgAmjgD/dvzca88/DpAqGjFUa6Gtl+529pyPofTH6ShHqWguIggLCpAO+Pwk33vQCfvWbVVjyAlCSvq0D5NqASTNRnH0SZh47F3bHZGwNE1RsF5UwQRjF6nbmGPB9UuNC5Clxl6LCM/50ddYoMSajyZHiJemK9tWU2WfCTFPRbEOQUbdY2tSA9do2qiPlJmYFkUy0cJtxkkA0UP2QjVEVFoJlflKPJdBLRsS2SpBqI5LcayH2I9gWNRNEvV3vb8yAH6HeNZGr9KAx7MXG557EijuvA554ACi/CsS9mpgUgeJhrRh/xBRYkwvoKZbQbXciNEuwbRNJpCjy4XhI60nUaoiCJ+1zwMFOhG5IEbV8hMRXERNB3/pQNwShwUDPTQDFqDJQYipGlbYAFGORaRxrW62/tJ8OmSL9h+9RzQQZCPQDGz8t1WvJntWlvFsQmigBeVse2ojKTzfA6Eo3i1lWLwqMjJuy+IQNTXXXz796/hdOPPHEV3Z2pIZkhv7Np/7m9N9f/PufGokx2k6oBMYsRn2KdccYyqRpLQLPPXYwGotPw2WzjRfGFwkVgTULOhxlGX62IxxsUuDODl3tfboxyx5k3XwO1KCyWasVnP7j/5txA2KiA++vGltZh1I2xnZDTn1uK9+Ism8j9Nrwp8e34He/W40F1ErxyWWvA/ItQP0ouEe/F3sePRe53WainGtAZxQhtrX8SL1aLtacgerrnrb9+W+pFGjGn2YPWDNRvRClyenvNHhrYMoQ+Gr9ua1tpXK0dV6P1Gw+u5Uct+wR3zaLHwjyGchL6Vmp9nxMHjvDjMHujdrPJyGM1A2TlRj5jzzwQMun5N2TZimfKa523KiFKDgh6uISzM7V2Lz4Eay682bgqUVARMVOovND6d/bs8dh/JETYYyN0GNuhW+UU1OcgW9endsLdCTTx88uOM3+VQ0xzY77JXcHetrbt3oFuT7IlQPBs1C0RuaxCudw5nOMbQn0pL9poGcFiv+q4EcTvmlJ8DdZh043t/LUpMY4/Va+2UaWz40EevURYLlfCBLDPNBvZ56hbQwJ1Km8MBMAwZHkRROikMsjLoVwPAdr73wZuLwEs4faDf3qOHJKYkJoBGTaRmX8+Am/u/7aa79+4IEHZhyhHQ4+QxLof/TzH73ra1/62nzP8/bqV8YTvfE0MAg1BijYwLUXj8fxRzuIglXIuTGSCmBQXQc2gqACm/Y9fD2f5n4rQNqO6iO142KAOzxGtTe83ghk4jRyI6oCvYCrtgv01YtUBq4SJGramzXJLZH6un5adq/5K8sWvrJd3wCvr0c2jjmHuvQNQH4vPP7kJlxzxVO47VZg46uAZwKe1QFYTcBRx2PcUcdh7AGz4RXb0O2rc7ZuIFlCV4S89B/lz+z//+cWUnUmWh20tp+QIz2Qv6mHJ91UVZ+jf1MgDIgB8J6sjv2e9voOfe22S1y6ver/d6GUsWpghnBMD03wEa95GS/ffRe23ncXsGo5YFJOdytQiIEZQOPs0eiYNQZRe4Juu4RSXIJr2DBtC5U4EKyVw+aqHyFn5hGFShukXj/V/aKI0n6htIWo/CeOeEIr1FK5bCCzwmY6LxW0lmoyiChqtsF8c0v4wMZE2QsZkCrzZtDP1I1sxoLgM5JRIEX+tKqVlQFLs0x++2+nTJPqT31TM+QtfjMxDqEqK0Y5oWASEMpNXI5GF0aA0PbEY96M6pB3i/DKvWiICyhuqMOyCxYBj0M59NlU3XbZSUzT7DryyCN/esUVV/xo3Lhx2St3+Lrf3Cx5nY+74447Ok4//fRburq6DhIO4esceQv4wr8AX/vi3jCxFDkqV/ncFVInmVs+DiS9ixnrM3RyJqmrmdc7WSd5h+/mrn5D2qvTSVplGdcf+bK/SO4wMJkz/XCqxNl5Ta2YObHjygxBgrwNWDlt5ZgmIt+DF8Qo1rfBjwitasKm7jqcd8EfcfMdENnakFm10wT4TcDUWZg67yNo2+8geK1j0OM2oFvVacQchXo3PDfbtzVUyK6eOG+PzxNQmfAeSWMORcmw6BhooXbilk2w1ryCJbdch/Kj9wKltYDbDTielPOxv4Hxh05B0z5t2IxOhNRVyBmoCCg6gWtRvteCKUIzpnDwwzhCHIdSzck5qiTHxIZBUUFtA20KAcGlwLWsv53hOrQnrv3w4ezl/vaYBTv/LbRV50uV2ooKGuhZeEGMfMSWRoDQqYgORxI2wDIcxEEvWoMGtK5twZPfeRh4NV36XvtrJIZhrDvttNO+eeWVV15oGEz7d+4YkkD/0ksv5Y888sj5a9asmZtIxH7tgzTVow8Gbrp6DhIshm10SwmJht9SVqNoAxjomdG/RqBPubQ7d+m1d73pEfj/An21+IVm9JpVaVVmIP5noB/y3Vkdp9lMIPxki1kNOzihi5gyo3EsVR16yiSeDcPaDZ1dzbjngXX4xW9fxjNLga3l1O7UrAfapiB/0qmYceI8hM2jEbpFBIkLn9KciSWCJzxi1nD5p1VtZfKmR6R2gmE0AgySYagqZMy048gXXXZm3szI3aiCprCMdYsewao7rgaeehDwNnIiaqGgCBQOL2DaiXsjmV7AungDIjdAnHjwS31wHbI2EhFyMugpbpmIbBch8UhxiCjwkaP4joC4dD5W+yIoOj0TmhlgYbL0XQ1iHEZD/o76qhroNaM3Yy5QluIWkgRuQtoiMQ4BIrai4zrRY7CSAE3lOrQsa8RT312oQLzXJ8xx9Xz6S1/60md++MMf7jQQT/KwoRr5/fbb7+zFixd/ub8W9BofRBe7WVOBe+58P2zrUVjJBtiUIBV+NCd2KKUR0j+kf1RVWhoo3Q9nKMdQjf6uOq/YUPVn83K/+nspOrX6KWfy+wElsUwSk2qIVK+LaPlmUb+ciyJ/cjDEgpZcdvqS2zCd8Vi4cCN+e8Ea3HYn0BcDFUmYmoGW8ag75GhMPfGDKMzYB5vdIroiSk2asA0XVqhCNmz3R9xFcpNICdOd3iPvqjGufc5QjYAsKSbbOOwVJ0iiWPqi0rcW/4IITuKhMepFQ/erWPvo/Vhz23XASy+qB3G0GcjHwHjAProZE46YDHuUgT6zSxZ4w2ZbIFFdh0h9+QLTFu936WLSUMdiI4lrnGaCGYBNMJwS6LW1lZXClbqmGwMtpw9fMOBQ3dddd96B0r0Geoo+afCnNDbTVFZqQlLqEgemSbGcAE2ddYgfqGDNJcuF5CFCOa99RLlc7u5zzjnn7/75n/+Zko47fQxZoP/4xz9+wmWXXXaLkpZf+3ANYPo44MrfH4speyxHzlorDVaTZVvHErESghbVOYoZfdV5qib6Tl997Y1vfgSye7LdAiQ65MRVUDBJAGmycsnmjQ9CbEa6uAnyjQ1MW0ArXmwjpIEI0bxxAsegttkYLF3h4MobXsCFVwBbu5Q91RcUgMIEYL85mHL8+9Ex80D01TWjx3LEBtMXxSYLJg1LaFIWArbiPBEYFUUSx/kRD4h785NgmJ7BYAWJinf0RaAnhyEWuBkDQLs7IfKsKMUV5Cu9iF5ZjpcevBelB+8D1v0ZSNZq/5CCO3sBo47eHc2zWlBqKqHXKsm5E4MiYXaqex4iCn3kLFtsXbs4D/mUpAA4YpL5pIjaXArp4sZgQGohJbTzORIwGzfDQ7aMD9Mbu6u+dlaJYUafS/E9ykJQg6BU+c+yhY4JygwbMdp7mvHSL58BHom1P6+38rUOv6Oj45qbbrrpXw499FBuCXb6GLIZcu65507/zGc+8yTUEfo1D+m0OsD3z9oNHz2jgLr8GsS9RM7SPMxU0IoE+hRYUwv0O32jh+aNQjZLQZaGAIoyBDr/plUYFyqGwgVJTWjY12KpXiYfd7P8J8uEH1nwjQJstw6mkUMUuih15/H7y5fgyuuAxUsJsuNpOKWagQkzMWHuaRh/yLEwR0/E1siB7xooR4AfhKhvtNHVW0Yul5cSKDcSWaD3UZa2gGsUaoF+aCbH2/+sRoIoojeCISI43DwyyHOecPFllcnO2yj7FTiOhXrHQDGooNDXg84XnsPLj9yByn1XA6UNuouknG4dgIOAce+dgdykIipuDM/wERqBnN9KmL3TWpfZoIGKrcA2BngGh0wiloNHVkEW5AfAn2KiqwBlEbCpBfq3bqKlEsKShDLQc9GjU2ZaJiTIMrZg5wvwYh+hX0G9k8fE3lFY8pVHAdrTEIP8+jIMpb322uu855577muGkdpv7uTFDlmgX7hwYevs2bOXxnHc+nrfjVOUuJZPnGHiBz/YD671AmyfCk2x0PEEjJdRnRQkrUCtFPiVla528tprb3vTI5AGbonvjoBO5K9CxdEZTEEY4T+xJZMxZsUfno0pIZjKRoGV0AozqnwDkmQ01q4uYuVLeXz/7EfxxNNAidm+bAhagJYpqDv+w9jnpFMQtnSg18ghNtV8xmeZlKpeBlDyIhTz7MtLSxS+eJfrbtG0DNiujVi22rVjJI6AKrupQA/9wcxIq0zSsLf5A/heDNdhCShB5FXg2kDepXWrD7e0BZ1L7seaO64DFtE9lFa4FMVX/XxjdhumnTAdldYQQaECPy7DDDwR2QmdWLI8KybHf8AUhs9OZuxDrfksk9cNgLrDSaBPV8bhLiE7vOedtiNVNdPVFouAMUPZoPH3CYHDFsGWNNgKJca1ZgAAIABJREFU0GDm0bamiBe+8iSwLiUavf4gbJ03b95nbrzxxsvf7DgNWaDnF6uvr3+kt7f3kNerLXHdZsVr7gnABRfNQeL/CfUELlA5LOiVHirVrKQMvE2gV5R3NQf3zQ5E7f07MQKyc01BROzQiGZCthHzZUGS0jy5tfSATfXMQSodgz3vIctWlo3IqkNityKIm/DMM3246OKluPwqoByTiME5UQfUjwZmHYkDP3wmrMkz0Z2rQ8lSlTJKkxL36fkBDMeF6ao1LfeL2vsMQQ9oUqBIBBH2i+BAtApRO0beCIjgDh30qOnOQnksrHyZGAF/CKSjCYnMLy7mCfwggMENomvC8D2MtirIbXoFr9xzG9ayf792BWCWAadE6zdgd8A+YhQmHzIFdgtQiXrhOR5K+RB+EiEX5qXipQI1miFKX1fc/JTjLhwU7olTS2RdDFMXv9QZbuTdvbfLFUsanwb6WAO9oYE+ThzkrEb0Vcr0+UXOtuBSwWtxBRu/vwpuj+wfX2/14YlXffWrXz3h7LPPrjKD2bnrHtJAf/zxx3/p7rvv/l6SSN2235s3+zszdzbwZ84ALjx/L+y9Zx/Cnk0wghLsxgKicjlVzEsDvQgypBfab1W5cxdee9dgjADBder5Lksl6fPUhpcIymhKMFIqWyZlfK6qTGM4u0P+MwJu4pwOeL3N2LCxHtdeuxQXXtqFtZuAMhc7UekYDbxrDia958MYfeBseI3t6I3JWTURSnWHdrG64YhIxTP0h+V62stqSTRF2ZPfnM4j2YOk7YbBGI3aOYbbCAzIGpPyFouWw7aSN/3KbnJp1TKuqaKhEaNoBKiPffgrn8fL91yLvgdvBTYtS6tW9IDlImdj/NHTUbd3E7wWDz1uF0qxB9eph9dXQR4GCo6NKPIEoxISYyJzW0ElGujVEjmz6SXwa7iq8g23mfKG35cZPUGVhNAbMQKCjJMcEs9BsVhEX7AVhp9ggjkaL170OHALkKOB4msk9amHfZzL5Z68/vrrT5o7d+7GN/z8N3jBkAb6L37xi6f86Ec/usyyrAL7ocyownAAecAP5zPQ0gT88AdFfOh9Y2D7r8J1KCgRpO5HqoBF0Mk2yVf6jGbCDm92IGrv38kRUNk3dXbLyuIs4WfgSQZgps9cI10LiRdoBl7IIUADPLQjTsbiuqv/hPMv6MGzfwZ6IiCk6YPdCOy+J8bMPhG7HTkPydip2GIV0UfiCnup9MmWmqZWFrTMqTmQAgBTJTVB//PfM72qKkpdLaPfyRs//N+W6erzSih0kpmxCJgq1fdSQyNdg3R+DbBJVFlOXLeRM4AWo4LmvrUovfgEnl9wA7wH7wBC8qz71BVmFID9DDQfMRlt09vgFUJ0Bj2wCw5YC4tDH4FflthOoJ4vZSdVb6QWvc7rzPxMNySa89eOt3QEJFsgk4L1TE+rMgQYJznYcVHWxRB9aEQBo712PHXOQ8ADQMGz4FOYmZUbEW6i62Z/dTFsbW296YEHHjh97733fn1c/l954UMa6K+//voDTjnllNtN02yL49hIdyr9X40fziHK2cB/fNXA5//1IDjhSzDQiagSwMpTBldBKa8V6PVEtYn+V97rIXgZs3UaV4eIk4pQ1ySb512VUj23qxWgsQiUeiU4W7k6+FEeMTXIorF44OFO/ORnz2LJ00CvD9UutwtA4+5wj/4A9jrpQ0hGT0Dc0IzuACj7Jiw3Lzrk0k/1VbWL1poENdEn24lj0FYzWxQZ4EUBj/YclD5NNbc5IKyuqhxp7RhpI6CCORq8OXekOyiQd84dZssprVdsXXR+qVY7LTt82UjasS1VI5WKKIvaZ9GKUd6wCj1Ln8La+RcBLz8DlNapMUIzgDbAntWIPY7cC8G4AOViGV2+auuLdkjgo2jbQvkjtVQrVEYqV6tBhZ+pQf41hKpG2o18G1xvZm7DduVAoLfgoh6B58OwA7ShEXWrCnj2p4+JNW0hsOEzp7fYToy2D/SVvyDtP//HP/7xvwfj8oY00C9dunTCPvvs83vP845MksTcbscirCpKiedt4B8/AXznP+ag0VmGxF8DgzwXi/xDkqRIX1CWHgEp+pdqjfTBGIraOXZ8BHgDKf1IFHAAI3N4kQSbPCUi3Ssw8xa8MEJM1Rt7DPxwDJ55thtXXfMsrrke2NQDRHkuoI1A3AAcciz2fd/pcKfsg3LzaHRSOYxlSssC6zoE1fnUNDdM5Ew1TWJGJhhkSuUy008X8CyoMxvLMjLpcKrwYopyrgX6Hb/3w/8dsiWVW691wSzQVxvs9Ctvppk05xk9DULLEyaJ49nIcR7Z2maqkLJnGcgjQrHcjdatq7Hi3luwmoY5619QK1zOVWJTxwPNJ7ahbVYHorY8yoUQJaOCStiHAgvB5RLq3KLMVc/SqgIBp/x+bsSKlQb54eqeN/xn0MAVDMiH0DopFfCi6yUTHmI9EGJU0Izyw31Yc9EyYANgB7ItEOdWZvRZImyaZhLHcddXv/rV95199tkPD8Y4DWmg37BhQ/0JJ5zwf5999tkvB0FgsXRfLYmbgaEIhjlgT+B35x2MGbu/CjNZLXSXhORnS81wzIRgL5ZHstK/IrxrGf1gTIOdPQfFbth8SVuJcjtSfpJEUZKDmXo46PVtwN0dL69uwFVXP41rr+/FshWqeKxlndHA+FkY/+F/xuTZJ2JtEMNsrEO354svvCkqZjGi2BcREscmcj6HsphsALmYApRB6pTIjQGFSdKFXLI07eWrWh8lK1PD7Vrpfmdv/jvgfQPLnwLhWB1ShCYXbumJS198YB7FJvuvBMypiE2jaSIg0D4BOKV84kWMCAUG4zCCE0Rocy1sXvY0nrn1KuBPC4C+NYDRpc+GDdiHAG2H7o7CzDGotCbYEnXCNWPkbQNJhdLQiYDzBnwZTDji4qcGMcPUPO8dMH+qDLBkw5gZXmUKhyaMwIBrEr/kY0IwBi9fthLdt20EehWPzGSICXDW2k7jI0PeS7fffvtJJ510Ekl4b/oY0kCfJIn7qU996p8vueSSH8RxnNs+o1fPaBWtaLWBqy/ZH3MOK8MwVwOeakLDrrxGoBcOTBohaqX7Nz0LdvoErGOyXq8cuYR9JgZ63lCWa0xDKG52fjS29jXhD3e/hAsv7cRjTwIVslDMAuDWAROmoenQE/Huuaejs24S1ocOimMtbNgaoUB/eLZuUpMbOS0/LmLmQ1dE5j4M9DFsVn8IhDFcVSBLr0syN6H8kePK/isDvfpCaym2ltHv9BQY1m/UVo7uVInh0CSC+ZfoPqQBPqv8ZKVyZthKnzIQVioiq2znidsHAnFjS5CLDcRhAtO1pGJfNBMUyxvRs+hBPHv7fODpRwB/A2CpKJj07w8qYPTsPdEwuRFluwflsAd0WKbIlAb0gXkqlQZRYhuQxh3Wt2KYfvkB+rfem2wzljEj6N5qRonQNyd44/Hsz59G8Eifyt4K9ZhIfc3oqxLhsLGx8dbFixefuccee+y0Y131kA51oDd+8YtffPizn/3sb1ThZEDCSYJ+mk2Rttr0F079f/3nRPz934wCzBVIKrFOcrMvtf3MMvoMGZu62Q3pFQzT2bfLvjZR97G2WYiliBK1A7VdJKGNspdHoWE6/nDHi7jyug244z5gcym1eKeFbPtuwOwTsfucuZg4bX90hw56TQdRLi+9K661jmkh9CMYIRXuCFZR8BPTLDdnCGVZpcz4Fy7UjNxcpG1ZBDNkPbusLJQRlKfFBsKfVOSnFuZ32YR5232Q9uSVrqYFfP1Ra1wVpOmXa07o266LGP+UwJtjyZ5mNeytx4KsLth5UdjzIqDk+8jXuTAo5e11o9UIUFfqwsqFD2P97dcDSx8Dok7A9rSyNRZoP7wDLQeOQXF6M9aGm1FxCfAiME/nr25KdChrynhv7ZTKAj2ZPdImNGjfyzkVScXFJvsnZCvRRP3qIpb/+HlgadYnUsh9Fuhlv6mAPG/27NnffPDBB88xDCHmv+ljyMPkbbfdtt/cuXPPM03z0GpAnlyQIFjU/KTZAD42D/iv7+6LorMcFq1qEx+JpShGRVFnnbRUpECn+psehOF9ggHN6/TRr7qc6mpH+nfJwKvHLXuN/pk5ZfUnD9tHwX7zDc194iiW/iRLUGFkwWCWbrSht68OWzsb8PNz/4hb7wBWbWb/kitkM5BvB6bPxH4fOgPOvoeir9CKCvtVROvbjiiSRRTcoZ4Cd8NwYcuuT9fhbBHWq1CBhchSQx2CYoiUpka4LN3pgi2zhPNIuMgD168gvdoxUkdAqoaZxLbMGG3v8PcCvpP5oRtHovStKsomA73nEC8SwLFt0XIwK9S157KWWrnmgEpAjid7sDGc2EddkqChHKCweT1evOcmbLrjWmDTWiDuVA4+VcQmA6OOHY9Rh+yO7kIZnlMWXAAVJen/kZngsPKQed7LrM5Q+am3vP4uNZiSm7xtqT97zqvL/1nwer05keH99Ska2RXV6oxegb4CFupnAvF+uHCQD3PofawbnT9dB2xN1UBlZ8DlWMMwEfeWZSVJknR++tOf/tfzzjvv6jfjWFd9/4Y80C9ZsqTltNNOO/uFF174e9M07WrQgYo66yQkNmViB3DXLTMwcdR6WKSluHQ3U6cm06BuGm3NqmxqpQer7k4j8+CCRDgHx0Ed4XQsdEz7f8QffkCqNpXgSCckH/wBs9ZsoqrscKyqM24RYK+Q9ytPxlAkt8HN2QgrlAnNCf83MuoRmROwYWMbrrvhZfzsF6uxmXx4ATCxvt4M7LEPmt97OiYf/F6EDaPRR+oJKUQi5akMiwEZ3YElR+V0q3uqutHIfrN9+V185bMHSKRN03De71mePlwjc+LUrnqbVTA1fe/f3WabXn2RiEDRamlgCvXPu7hKvVMCX5Zqc/5VCTJlZk/kwfPHJjMkDlA0fHSvfA7LqK730O1A12oF7MnzAmCWiSnv3Q/2tCK63E6U3V54Vlkc9+SjKFcRRbCE8qLOj5bNCoIDrxLBsSjNSte0AUU9bhIEvyKFMb0oSaEkUOn3zra//aZU8u8paLFfp0JpqyM62NNhk+OeTg7aHqsUroLyKOftbfUxLt+BTXevw9bzXoFVcjSRSe9flmmkpXveimeuvvrqfzzttNMeG6wHdcgDfZIkzimnnPLFm2+++atRFNULbsuypCchGT1MuDkLkReg3gHuuX1PzJraDSvqBVEuiVunu1ezD5b4l+qOKUrhsCM+0AuIaPtAnz261fQbmX2pQky2GeCv0gwmQ6VnvfAUv6ZZdFovp1A8G47swdsGyqUQjlVEHOcQO03o9hqx4L5XcP5FW/HHx4GStDwbALMRmDAGo45/LyYd+R4Y42dgkzEKPaEJWhXX6G2D9TjXzjOsRoDgP3hoNAI0dG9C15I/YtmdNyFZ9BDgdwFWr2b3DQAOa8S098yEMdZAt9OJwC2jx+tGXbEBQRAIYptYAf7dC0JYtgPXKSLyWO5nJSLb9ipKP3PBq4anDARy7WZknvfV/Ca+Rul+NKtipbUW6DmWTHw4ZmT8aJWRVRf6d5ioSxpQ2OzilcueBO4HjB5bJd4ZfaUVNMCfNwyDRjYX33jjjf9x6KGH0q1+UI4hD/T8lmedddbx3/nOd37hed6eWZ9+gFOvO1HHAFwT+Orngc9/ejoK+a1AaTNgMUvkfqBPea1poK/Z1Gb3X5XejExeVrdB/QF8YJakwb26+iFeygpZSwxHJiZpICo3nL6e+ypm5GEoNotx5CDyPemPw6LyUx18cxIeXFTC7y5ZggcfBDZ3QqRF4eSBYjsKx8/DjOPmwR07DSWrHn1mHmGuTjAYAVvrteL5oDzMtZMMrxGQpgD9y6NQwFpNZgi3cz1WPnIn1t99LbD0CSDs1WhArfCJQN0RYzHmkNEIx5UR5HyUSxWYtsOnVn4sxxZ6XxR7iEMG/LQSQdaSrBNptc8IJOCLglt/fSJTIK2invYTD3Vs+dpqN70Rnc2n8A6thOh2SGS/wYqNgjrpTdhstCK/wsaKHywSWh26TRisAqRLXxUILzEMo+f444//3gUXXPDziRMnlgdrRu+SQH/33XePP+200y7esmXLMeTTVwcfi+CrOIDrsH8K7D8TuOvG2Siaf1YKSuRqScn0Uu30FG3f/81Hdo9IZwuHNHOxUj9ktYONJGBngkP6uoGyvvQjpXTHwSRNjpsuzfCzfWk59ODkHIRScszBSuphJEWYpotyycWrm1385tJFuOomYNWG1HHRaKb0HfDuA7HP3A8iP2VfxK17oA9FBHSlswCf4KVUf36wJnPtPLURGG4jYESx9GadnC2gLcvvwRgnRPDK01h6zy3YsuAWYMurQEL9/LR//25g1OFj0T5ztOhPBLkEfUmIwIyQOAmChMqiPupyFsJAsVyKMyBuJaUlyxpBHEIGitYgr/72WUaftu9SXI601NJNQVWHYrgN+aB+3wEsExUMmdkrYNJRK08ErolibwENzxew9L8WA100uGObNU2wuNKKXC7VRRMG+tVf/vKXv/z973//KoM84kE6dkmgT5Ikt//++/96yZIlH2dEyrj0BhGK7LFLCSsSc4lJo4D7bn8P2usWI5/bqgprLBWZGTUqpXQRWS0TcCQrQw2YyijanHVwDeQJkcDcOUn7kQA1NZ2Rg6A0UNmLK0AqV5uBaigTKw5apPQkyBVclPsqAoZzjAZ4FSKKJ2LDqw24876V+MlvluHlddJlgWw/c23A9ANRd/RJmDHnJJiN7fDNepTDHAJu2Fwae3B/0Ycctb1JSN6mGjFIM7t2mtoIvM1HgGVwdsEIhSGKX9pYACqlXtgIMabeRs+LT+Lp6y8G/nQXUCb/PtURIeb13fWYcsJ0mJNy8BtCdKIHYT4Uscok9JAQ8W9SYkoBeOzLU5qVyPBIAj5799RnV4ldDfBpZir7/1hXhWyd7d/+60aguqf/Nh/qIfl6WXtDsUNkZ1C4i3WVRJU5eS/NCE09jeicvxG9N22WRdKOLCQU/BLUmTaw2XYJwzAuFAr3nn/++Z8544wzXhjML71LAj2/8Cc/+cm5F1988cVJkpAxqvFGHKEMmKaFKPGEH930FwnJ//rPsfiHjzcB4Z/FFUgDPXegqZJZTN/RtDAgvY6RmtWrL7UcMh5anhOlLIPo3BRhKwHdST3hFUDTb2+cChFJLi4POftHDPT0jI9QLgONLQ2olFwkSQfCaBzuuXsFLrroJdyzEOh1SAXl5xaAMXug4bD3YMZ7T4Ex9V1Y6yXSo7LternPpMXJ/oy3HdqKMRNK4qVI1cGc2bVz1UbgbT8CXPsY2FUG3LL5vISwc46I75S7+tBmR+iIO7Fu4W1YedNlwKoXgN4eNXpoiIC2GMbRLZhy6FQYHRa63B54VgmGzWec7o0ZsFDFdTTQs8BMkJ4BJ44EGChaE1VslH5wXj+gkIwW1QjILHM5vDyXiAyNwGMAx8BBUoGugOOexMiRLZTE0k4Z09uB57+6CFiZSiULk5Libwz0CtpLy/f+nnvuedk111zzhX333ZfY/EE7dtkduvrqqyedeeaZC8rl8rRMOIeB3gSDPLe0EQxmkBFw0lHA/MsOghEuFgtH8SuvUoCyGdRClcSFpXanI/OoyujF71093yXQm2V148ruMH+VWFU9uqw3r/146fFzU9VvJVvW0j8VudCIUjwVi5+P8dvzF+GOO4FKL1Bi+d1xgJY9gP3mYPrxp6CJfHirAM+xEBdycpvKFVYPbORsG0ZEC2Jf7jd3seTb16S9RubsHelXLaY6lGvmM5IkCOjl6AIBjb9iC411OVbgYfgltJghnK1rseyuG9B51y3A6peBcCOQ9/Sxnwq0HbU7Wme1IWoN0Gf3wBdVUQnh/UMt1bpUH0Dy0DhMA3f2Erb6Ml1/bgqyx1N1BsQJkoKXmVtkLdDLhklUOgi+I16ZLLIoUClutjuXWXjlP5YClEuwHMQ+x1KRePxPiifKn9/ysY997OwrrrjiZ0Z/JjY4T8kuC/RLly7NHXPMMVeuXr36A6ZpmuLWIzgvi9IoqXVpIi5QM6cCN101C6NbXoKdsMfE3agmrSpNacKQAMETsEYyUgN9SsSUIF1I02U+1CESKm6J53taPZEtulLwUlsX3SClgjH0Tmag72cxiPtcAXBasGxViIvnv4hrbgOWrhYPGz2v0wi863DsccKpaN1nNsK23dBn5dHLIgsFQ2KWEek0F8M2HbXY9AIJ8IZlima9Te587aiNwAgcAQnBVEazDVRE0TESIJ0s+oG4eSGmcY5lIwx8tFoxRnmdCFc8h9UPLsC6u64Fyq8o956PEWE2M4AJx01Gy95t6LS7UClE8K0U+CXgsTQRkJKqBm4R4ckOYnpSuV3N/lOgmWiZqE0uK3E0juIhOf5IzujTLnqmlhgSYWwkcOMyckTcl+ux+s5VCH/fJ5AzQtRcO4cgDKTEH/frd0r5/s9f//rX/+5b3/rWwsF+HHZZoOcXP/XUUz8+f/78Cy3LcsStJ91rEuBBPioP2zDQmEvwk7NtnPHh8XDiLUBS6lcwo+550OfBMesA36c+6ggO9FXo+BRVq5gFis3oBimD2km2ro4cgOtqnS7oy/gg8CIDruvCSAL4dNWs3xNb1jXi5jtfxfmXLMeSF4E+KzWPYSl+/HQ0nnAqph3zfniFDhh2AwK4qCQGfGHxsTyYmcYMFBYIABqgw5NzOmh4k8F+Nmrnq43A0I4AudYmZZurqa+krdHESyIx4iSBbSthC2EZBQTI0ymytxPmllfw5JW/AZ58COjtAmIG/BioA4z9Xez1vnchnmpiTbQWRsERdH4SsqoHhFFJhK7UbTKVrq662ti0hIUTpSx5wfmkVDoGegZ8HsxkqwRPh3a83mZnl6Qz67MbiQCM49hFLs82aR/yFQsT/AlY9L2HgGdIqwMsM4co7c9rkO/fZCXNzc0PX3vttR877rjj1gz2pe7SQH/OOefs+7nPfe4h0zQbmNHbJiddIojuDItvwIVr+Pjf/wj88DuHI+x5HkayFaZtiWMZ/zSCBDad0ALCVFNNysEemeFyvgxgl6HppY2RIu7lGjJpuHrAtNVDIKDTXMK6kl4lqyWWizAkcKeAMGzHU0+V8NOfL8XCx4ENfTSfyQNOA5AroPC+UzDzxFMQjdkDrxp1SJw65IkPoI887yUnv7htpbcnMwWpsofdVpGrFuyHy3Srfc/BGwFiYARkLBtiAmZtWEIfHliWKYdlWgz0CeI4FByT/Rdbb5o7ueVujPM6sfL+O7D6gfuB558CylsBsxvIxyKnax9TxOQ50+A1xygZnhT0wsRHPmchiDxUEn4CTaJMOCZV/WL4TKCob+LmEbGq0M/W0Rw+zePTgdilIWTwBn+QziTgeTOBIZsx+hvk1KQm6UFDKYeml+rw4rlPA6sAo0K5WxexyBgLyh6ua6fjjXDmzJm/veGGG/5t2rRpgyJ7W32Ju/QuLV68uHnOnDl/6OnpOYRMAoUjqEZwwsychuXIwYaHIw4EfvuLAzBl7Ksw47Uwcq6Ur2L2tWCIXSkilp4zSddBunPD7DSaHcsIqlY3/1/Ad2m2b+SQ+CESomodWv8aitlLPCReiCgpwC40IQ5CeP4orNk0Bj/75X244hqgHLD8DkTFOqA4Edh3NmZ88HQ0TZ2J3sBAWGhEl+UIwCdHgF/EzIBNKpbzMqlaXciktiiLWeoIlv42qJnKDLMZV/u6gzUCgoRnkBBZXYraZIA4gM8FS+jcLAuojih3gdXwAVJtC9o21Ycx6qMKvHUv44X7b4H/8M3A6ueAoFvXApEcBdrnzUDj3k0oN3XCaIhRKZXgRaE4RHrsFIceaBzBYJ+3HAnt1O4X11B+mJT8M6yUqpUKODrj2Q3WoAyz8ySxoap4LJbSQTPOi7GX7SRorzRjw/Vr0HnteqAHoKcWx1Ol3xnoM9stuei+M888k4D1B4ZiCHZpoKdK3rHHHvtv995773dM03SyPr1uaVNKNxw4doCOZuCn35uMD51UgBEukyCVRKEAHhirDAK6JButUnkbihF6m5+zP9DTRIHfNUuOuUrIQyr1OVGyo+Obx2yeDyhxd0kdvHgULGMUtm4NccllT+Gya4EXXwE8YenVA04OmHEAJh17CsYdchy6i6PQaxVRLOTQU46R5FKveGIuGOwJ+OMHcFdrUB1K2RIi1iEZiynunJnPt3QTBo8u+ja/W7WvVxuBgRFQzwZBxsGteiakJsc+OQO9qISzJ57Ct2JaNXMTYMrSZ/F9UYD6fIK6oAs9Sx/D8ntvQ7jwAWDDOoBW304v0EyREgPtc8ajaY96WPUO+swAmwMPRtGWwBTHgdipqkyvFgYdNv4FoJsGelL0LKXe8jBiJl4j9zAIJidynt4IYSzjRQZkIVfAqK4mPPvzx4FHA1DxFqFWV7kcaoKrY0j/eQCrLr744sM+8YlPrBuK0dzVgd74yU9+cvIXvvCFywzDaGBWT41mljJESC1HCUeVBqy3gX//3Fh87n+NRt5aCiP2pdRB0xNJ4gPaO1ZLug7F8Lzdz6mqeFlfXjJ6yeSrEPSUyIUP06EbXIJQ7AIY/PPwwzZE1gxc8vvHcO38rXj8CcBn/06YevXA6D3RcPLpmHzECbDaJqCXD71VRMhdLMF2IeBaujMV9mgKJOLEV0Qpd/1KnRPFPcp1iL+H2sTyqAX6t/scq32/oRyBDMjGnrws96kpTWbGpGBZIrh9OJYlm+WYPGzRH0kV7GwyYCqCr2nN55Hv7cKaRx/AurtvARbdq1K65U1ayRsHuLPqMPbw3dAwtRUlN0Jv0gefmB5HabVsCwhynBQA6Y5mluApF98KEaY79ZEe6KMUcEQQJRNXWmonvoFi1Ah7mYFV5z0FvJQmpAQxs+rJhJ6hSzzdxKI2mD59+kWXX375vx544IGiFTrYxy4N9Pzyjz1nhU30AAAgAElEQVT22JS5c+eeu2nTphMdxzFZHlLJgBiWox4qPBgGZh8EXPyrvTFh9Hqg3KOB3nKRsC8flaRfr6DFkbqnzAI990bk4aSrhIjgZPRDcjwixIaHss89QANstx2bN9tYvjLGj89ZhvsfBbpK6dQiyLGuHc7hx2Gvkz4MY8p+8Bo6sKXEupOFAs0yGOEtGw4lDkIqe0UIDUuQ9FLS4w6X94qlerFtZFshkGAv3PmYCxY1PXXhqPnBD/ZjXTvfcBsBMW3ikQrRSK7HQE4H6IQaF3x+EtjCjlEnR3Gq43/k4lMNz3bEMpoU5dbQQ0vfBrz68K14/qoLgHUrAaMEWH0ieYFJgHtAK6YcNg1otUVopyfpQckpweC/mwkCz4ebOFKFI4ZAn9eUjy+BXt0iydQZqYco/dOgyHRFdth2IjiBi7rKaGy671V0X7QS2CyKOBrZxWMbsHmfpVpjJWEcdX/yk5/8u4suuui6oRrHXX6H1q9fX/cP//AP/37LLbd8xTRtYWkIn9OIFcjFFi/ncQVosIHrr2rFsYe7ECg4B4k94SSAZZRkV5SVlYZqgN7u55WMnvasGU2Du28J9OIWg8TwECBEZBkwnXZE8W5YujTB1VcswZVX++jpBbYEQJR3JMBj5uGYdMKHMOHAo7EFeVSsAnxYSCxL0L+0jWWJSo2J9GP4p2kk2lJhtp+2njIZHGnjyXfRxSEr5ctaNsJ7fG/3+VX7fkM4AlVueds/E/3ucaJFr/ClmOZSTIjYvqRkKiKEDDLUq0gTJP5/EgXIm2Td9aEVIYqlrVh823z03X8TsGkZEHUDTmqqMgtoPqgd42btjrAF2OL0oOxU4Fs8d4SckbXbKPHCQwN9ZOpDPtIDPcvLkR8hbxHE3AfTLSMf16O4dRyWX/4McHsvrBLbMKTdUTEsVTZI4x7NBwvF4qJLLrnkb0899dRBVcOrnrm7PNAnSWKdddZZH/n2t7/94zAMxxqmbdCKtmBZ8KNANqtC0YwcFJ0AP/wmcObHdkedjFYv4JB3H8CmT31I+9qBstIQPpK74NTVHlHb2mT2VyzSXbWaRaZPtvjLb8uDzRTupBPEtpBVQOy2YtV6EzfcuFwC/J+fpUgH20ZtgNMETJ2ECcefgN3mvA+9jePQadXDB9XwUnqPUHLYb2eWrkBIw7Y0Ixd+bWo0Kw3GtKyYAQMzYJ4I+NFtjzUr/c6kEtWC/S6YXrWPePuNgFgm68a3OimWx0PacCYSrnGkxZHaKg17hduwOsZMMogTOE4Ooa/6FFwX/DCAW8jrMxpEKMQ+2uI+bH7hT1i64Dpg0UJgy0bA6gZyAdAEYF8Dux2xFwrTmtCZ60OX3Quj3kEQekJsGsAQKBAvJDc/TbQY7JV6p0XF7NC2ogIK9SC4L01MUnOd4VwMUPVAU8a+MVeHMCghsfpQ9OuRW9mOl362CFgBOJ6BgHohDPTpuscWJo/EML137T3zh3ffffcPOjo66GA0JMcuD/S8iieeeGLqySeffO76V9e/R7QAqbTEEhBs+FVOZgTl7TcduO6ygzG+rRdJuAZ+1A23yDQyTAPOcAfj6QOtihepbSz5tWIlqTxVgzREg65xMbgpch2b2paIPF9Rr3ZOIbkScS3RuDboHCeCN23YtLWABQ+vxcVXbcL9jwBlEbzhZ44GJhwAY86JmHXU4SiMGYcuK4eS5SIw86KJTQSpGCnKA6x/Z2Y+8PBmPt1ctNJLeK2nV0r62eQeWBFqQX5InuvaSYfLCLwBEFVV12RhSDcD6XOWvk9NZlSPQl+ZJQlK97JEfCdEPvHQbIVwShux+tlFWH3vAuDx+4DyWgK+FcnfDjgHtWHSnD2QTLaxwdwCo5jA8/tQZ9nI2zYq5T6pvKJgC9uG8LM4iGFFEVzDgsvEQkp9FN6xEG6jm5GV+gn2U2yR2uUOl5u17feUsr1srkhi8uBYMWzDR5s3CpvvKGHLFS8DWwAnUNMago4F18glOxAOfuIj2fKlL3/5Cz/4wQ+IW0uNDAZ/PN6SIWb5/m//9m9/fOeCOz9FuibpcmZIOVx2cqm1LpJRMOjVbAK3XXMwDtjHg5GshFufwOvpRi6fAvFkXg/nHv32gV558OTY6h6YD46BJHb42Mrmhrt5iuII4cDIARVKygpPDQSHWHXt6NsaIpefhMVLtuB3ly7H/NuALraI2LoPGoFcO/Kz34fdTzwDxrgpyLe1wEOCnihGZDFTZ5meZUJLpQqqd+opLUhGPnW6GvypWTtjbQRqI/BGI5CB+bJAz9CbZZoiy0q5DHbxmEyFZdRbIXKxh671L6P80vNYc8EvgQ0rgZBqLr3avx8H5Oa0YY9jZ2Cz3Ym4nlonFVSCEhzLhE3QdBKjQt97pwjbMKXKYCSRYHaETWVQcEcTleqMXldrBaSJG94wVtVTazA9HFqtc+R9H6NL7fjzr18EHg6ASqpfJtl7Wt2wDDiBRdx91NLWsuC/f/3rL5x66qnPvtG9fjP//pYEen7h7373u+/92n987ZcAdmO4IuiDKlBUYpJdT+LLXrXeAP7+48BPf3gUKr1PIu8wujHv97RHP+wDfapBm1rDDmT2nELs4JA3m5rGEJnDDUBUQcKKBvXkwwRUGaRedkKnKrMNfZVWrNs4CpddsQjn/bJXFJu8v7AYKhSezzUD+x6GyXM/gnH7Hoa42IGSmUc5DFGKIwQUJHJzomwXBjS1NLcN9Glmnu3Ca8y4N/P41d5bG4E3NwL9gV6Cp5bPqwO9EHC4GRcaXoii6SNvhHCJ4g/L6N24Gs8QnX/fLcDGFYDfq3kTy/lTgXFzp8Lesx5ee4w+syTgQNKcuajkyN4JVfglMAKE3E04hoCkrcRCQixPZj6Wpi3s7avZVtrjjx3x4BiOh2T0rKMkCfI2N1KAVQHyq12s/MGLAIlysoyn7VUGrDitwZh2Esdx5bDDDvnVLbfc8q22trbuoRyDtyzQ33nnneM++tGPzt/aufVQ1pgsw1aktklVIe1BE1RfbwEdTcD99x6CpuJK2ZU6RRNx2AuDILRhOkkGbqqK3Ug9p7+En/rCi4ISf2xR0KCoDSEJBrfPCESxynAL8GMTSWzDzY/B8hUeHnxkA359UQ+eek69f6K4ETAagTGTMfrkD2LKEUfDaxuLsplHGKptJctwITN5guwofylVQPbdNdBnvHd+V92p6w61FuiH8vGsnbs2Av/zCDDQV5ftNaMn5z11qSNBKc3qyWQyKZIT9CldzzWBggu3tBWlpx/FyrtuRPD4Q0BnGqEottMMYI6Ljtl7IDexHn4hRIVYqTiSpIvnpGJfWZzxEgS2CumYXECEV27DEhCCBjsG+sQgODhIBbRywzbQyzVRRzgKYdGQLbTQ7DVh1V0rUbp0q3RERJCEizYXUDoTSiWDbqx2khjRy5//P5//9x//+L+uHkzv+deaMW9ZoKd4zjHHHHP2Iw8v/Kwf+JkYq8Q7wzHF1EHo3AnQUgd899s2zjxjBqx4E7zeDeKTHsVE3w/jsn0VOENtZqtvR/V1sbyvdDXYFLKmkkZF7mc5NBDZY2Ba03DrrX/GNVevxIL7gVIIeNwoO61A2yTg+FMw84RTYLdPQoltADOP2DIQUiSDtDjyQE2VGWYRgd+FY0vQiGg695fu00Cf9t5qPfZaKKqNwFs3AtlmW/3TNEEaCPQGKoEBN6+SIyEZeDGzTwMOQvihB88IYJtAs2Eh370Z6x9bgNV3zgeefwyIOnXdYRt6DFB35Bi0Hzwe7sQcKoU+lMJuJLGqtSa2i8SxhOHjxZTYjuAyCNJzLGGy0M/BEVfNhM6aPMR1c3hm9Or6aUqVIwhLaI4aMWrzKDx53kJgCQBSlmmpzvWaykZRhCJcRAnr0UnU0tF695WXXvoPJ5544itDPYPeskDPC/v2t7992H9+4xt/iIEmy7UQUs2FIYa6wWnzw0KMpgLwnqOBS84/Fm78PPzyOrh19Yg8T1rTw/dgtp7BL8k3V8UkfXLSyU+whzyhGnzjMultJmy3HonZhDA/Dk89142fnvMMHnkUWLtJRW9gNQtdzppzPCYffRIaZh6CTrsBvllUbXuPm3JqNCvwT9DzJvtG+jkGgzwLLKTOqcmdBPwMiJeZ09QC/fCdfbVvPvxHIGuhiT5FFujT3jgrdTH167mcpBK6kjyJ0E6CKAlguLa0TM3YQJ0RoiUpI179Z7x8zy3YdP8dwLqXgYD+qh5QBDAZqD+yAxMO2R1xc4zAKqEcl+BRsc9i0sGlKxHlPIEDyrlNOJEqwsnSJtXsDDg4TIN8uh5y/aNYjhdVMDpsg/WEhRd/tkQkb40KR8ASURyKHpFaV7TyCMIIAZLSIUce9ss/PvDA1w3DGHRt++1n9lsa6B966KGGee/9wBOdPVumxi4RedKa1x2eZLhsLoVE62H6ROA3v3g3Dp61EZa9RnaCSUT4XhXVbLg9t3SUi/OqIW1VxMlKqDVZBs3SPR+gMNE2vegpA1ZhNPx4DF5ZV4eLL3kSV15TwnpqCplaqgcpczMOQ8d75mG3w49Db64BUZ6e8gZKlQiWm4PrGPDZU0q15iORLdLpQMAf8Z+C8BfO7kCJvhboh9skq33fd/IIaI+eVrMaOKV0nwZ6lu+JtakE+mzncgOZPUvrjmOg5EdwHQt2EiAJfFgmac02jN4eGJtX47kbLgIW3w2sJ8W7rEpmTML3MTHqsD3QOqsFQaOP2A7QF1cQ0KjHUR3MICCfn+tHDIeGZCLww9TNhW86WuKHp+DiYXhwnU6VgKXYOqbcjpd/sxzluzqlNy9W6myvimqexnKb7Cm2NUys/sa3v3X6f3796w/tikt/SwM9L/DkE076p3vvu/fcUuilTgr8rSDLRIQlNny4NpALgS/+7zp845vTgNKT8CpALl9P54Vqq79dMWaD9xlJDogatHdl9SIxtRzPWdAfXFkXChmRKbhQRDlpRFe5BX+4axl+fX43nnpWM3ipttPRb9yeGHXsPEw9fh6i9t2whdaxhi19OtOwYZo2wihGwHIa+/1sIaV+QkKLIcmRDyB/UhfFgWyeqFGlyYmRQ03wZvDmQu1MtRHYwRHo18rnoy8grzRLJq4nNaEJyV9OnSTDIE0iiOnlZzFpEHAdA1YgQZ7y115aVKxLgPZwCzqfuh/Lbr0SeOI+INgKsL/OhKIOwDF16Jg1Gh17jkYpV8aWuBu+Q+K9Yq7MOBLnXIuIfKEKEjvgIKJGh1hilId9oI9JLbRzGN3Zjme+9ChAk1kRKlUDG8u0RDWPmX8kHiRJPGpU63333HPPqfvuu+/WHbztO/XytzzQX3/Z1Qec+vHT5seuuVtCEXU4sEwbUUiePO1rI6GR5SPgxKOAc382FaNaV8J1iwj7SrDZfBquBxXsIgI1WMEoAexb5V1B0XuegZyTlweEexnDHYVSNAn3PdqHS37/JO64TQGdFdELagZax6DuyBMx/dh5KOz2LnSZRfTR38pyhKs64HssQpq6EEikrha0GNihZpWF6pK9rA0ZEK8W6IfrrKt973fICDCbz6Sy9DkVg2i9Oq6dKe2Ymb3qsekDn2WhbMkNYG+ykro61PH9fJ3pJ+jI23C61mHFw3dg04IrgaWLgbAboD4+P3gMUJzTjvFHTEbfKB+lQgmJSzfMkoDx2Ia07Twr1wjDEI5rC2bA88uCUxvOB2vKFkF4Zj1W3rYC0UW9MHtziAOW6ql8q7HMJF2cgGcFQHkfnPf+T99ww80X7aprf8uj5ObNmxuPOnz295998fl/guNa2mDm8EWwbCI5Wb5W6kJ7A3DphWNwzJwcyp1rUFdk/3obq79dNW6D8zmSGltIShUYTXmgr4JKAuSbcyiXKV3dCCMswjA78PQLvbjwyudxzW3AOmon87LrRgFJEcbsE7DX0SegcY99UGkcg24zjwrysFgwYMFDJHK5LeAky4J8KtCz3ZVkKPoM+qB9eb5oW7S9qNtJJvGWT6HBuRe1s9RGYJiNwPaBXsO40uyyYJ9l9vqLbQFNZNPY6fMbGoawwORZTxMDAs0cx0RvV4CiHWN0PkK86mks/3/sfQecVdXV/Tq3vjIFhipgAQu2WKJJbLGbGGssaWJF8xl7iRpj+PTTxFhjNFZUUNCoGAu2CBpjLzFYELsCIkpnmP7eu+Wc/3+dc98wGJOAIgJzrr9xmJn73rt3n3PPPnvvtdd6+lE0P/sE8PE7hl1PxKZ+vz5Q3GUdDNiiL5K6MjrQClYnO6IIKbOJrq+jfKOQl8LVuW9vle6lJ7dJLvZR2xziw9umAE+Sf0iTlZghoLMne14m3EY2cUeIubfecNMehx9zzJsrasp97as0KXHPGzHikAsuvOhawK0xSWM6pphzQE8+OjVi1vIOMPwI4IL/3QpFfwYCNC0Zjq4oqy2vz2GqPEqBYqgBdwSzuCH74ZhLDxBVemH2ov648+4puHd8G96aBpT5MLKwnu8H9F4PfX9yNHpssDnqB6yDssihXfqIhKtT9ZQGYIui7mTQJDsZa1bWfsOnmum0ri1yXR28du9d/ti1rc46+uU1Cez7WAt8MQt8rqPXTfOGWrfT2VffPqPQrv7IaN5ja66QqLiOTtuzys9I3k+1mB2iShnF2pwWEktKragXROgnmPfOZHz47KOIJ94BJM0G7Uf+fC8CNvaw1vcGo3bjAub5C6BqmbgUhlGvSuMtCGJzNU/8kt1GX8wWX8urNJurix5xHcSUDky/+T2A+PnyYkev6YNdFyUuxmZxTYauv/6o55574cw+ffpQpX6FHF+7o+ddvvLKC+t9b/f9/7iwqXkvB64jiQYlO5xhd+w88gGwRgNw/53bYLOhTYhK7xvpxi6sbSvEasvrQzjxOQFCBx0VCb9Qh1KZ+5xaIGnA8y/MxsWXz8fbU4FFETc9IeAXgbq+qNn7R9hinx+jtX4Q2vxaRLFCOabalafb7vnW1bS7NqE2EntcDeWk3sjrthfj7D/r4I2T1//vZLayFLbLa+Dt+1gLLA8LVGlxF79XJ1V1F2dv0PhdD/O0M2KnI9KOXlN1GDVM/o6OnhsBEsGU47JWraO2BZ2/l6QIZYq6ShMWvfEU3n/6MaQvvQTEpNJtB5wWza7tfcvH0B9shLi3RHtYQhvKmgOEcQyBeozuQ9J3L9FWvDzssmLeg/bzZIA+pQZ8es/7aH2oUffOCxVApSzSQ7cn6y4DBluep1SStJx26sm/uOKKq9g7/9mB+coufKVw9LNmzSocf/yJZ054dOKZlUqlQDfkeRKxzsprmjyj6ycVCv9/R3nlJUNx6EFFeOI9eJnO+Vdmoa/wjfmAJUxXsEQvCohUT8QYjClvljHqpkl4+D7TCtOWAh1eAPRYC85O+2K93fZFzw03x9zERZuiYE1glOOEsRarGRox71IwhohcTr5M4IYARxJbOAbp6qe+ieqzxrpq/Y5/q2blV9V91Fc4dPatrQVWCgtU5W07VW67rOhLEul0uVzy0OsWO5PN010/mta62vbGklwWgGoAHdUqs3PjBE4qEMJHTirUBQmSBR9h6vN/xcKnHgA+fhuIm4G4bAB7A4CGPQaiYduB6GgooyNsRUopV24oBDt/2N67UphymS/CSz3k4xyKcwp4/4+TgA80e7kuPLN1WXuvDCitBMHUSGtq8k89cP/9x+62225Tl/kDv8QLVhoT33rrrdsfO/yYayKZbO4IR2h2PAoyELCmHT37vYBAAdtsAYy/a3vU596HUB1Z/flLWOFreqnmkw+K6Ih85Jx+mPaxwqg/T8GdfwHmNHKWkEYyAPxaYJMtMfQHB6P3NntiUdgT7azDk8GODp4PKM1jZOJ1up6APrbmeRTEYcSu2amM86aj18xU/IjM0fOPn50MS0TwmY2Mstbiw24CvqbJYz+221uAz2F1Y27Kap8X4VdT+V3NlT3BXTwsweB09oaJM9HRvg4EhIdymdobbMcjXa1xZvThBElX2F7vlDAgX0I8YwrefOgvaH3xKWDhAiCm2mg7UANgE6Bu57XQf4v+iIoVdERtiEkio8uzKyywXa5zJowD1EVFtLy4CPOv/RhoJ2Ys0cVnrpPVUqdDtlHSBgLlXXff5Q/j7vzzpSsybc+bXmkc/fTp03vs/f3dR773/tQDXd/1ojgF+Zv0RRI16kY6JU0UKLs6xo1uwPd3rQXkQqwAvoHlOkGqb5agFpE3CE3NPXHfuNcx7s5mvP1+xpxY7AkgBwwZir77/wgDt94RqB+AlihEjBAO0Zwp51WEMOdRJVojWtkYL9wMWe8IvQGoHotT+abvVjt9Inf17j7L7nepg1TXgSWQvUz1/8sC85WYx76ptYC1wH+wAJ9DykPz2U01Ap/slov7a8ziachxlhSlWrzs6068LJrXGTxBZTkJL81afHU7nCF4S3gefTNT0oSbVWKENT5Spl4r7ah3JRpQwvy3XsH7E8YDrz0PtJBOt9mkB2oBbAGstctQ5If2QrPfisgvIXGr0jCr1nAXogA1jQE+HPs28AzgdNTA17y3JvyJq2NBFdDUU54TvHPxny468/QTTpgoRJUpbcXc80rj6JVS4vRTTvzJn6659qpUoq/r+kjJ3KaTyhmDjEZqCoRKYc+dgXFjdwaSt+CJpsXWosSrrj9pd9QFadrVXXVtNzMo9M88Hub9Oq3z73acpu+8i7Ju9rrP0vVVP4+9pRTvyUOqWkSqDx59agZG3zIHLHFRPjYWdUhFD6BHH9TuvS/W3uN7EGsOQSOZcII6aOops+k2qlSaVCjSjl45Qjt5EuEkqYDjml7VTgGarN+W6SQuEHywY2oLZI7e3PO/xujZXZo/W0e/Yp5M+ynWAv/FAlVHz9O4Uv57R2/O+Myilj3PXR29acjj2sDasuao1wG80F3AurbOlL4DTWImVYIkZWJfIE+yE67XSTv6hgLuok8w77UX8PEDdwNT3wZKjUDQQfQf0BsQO9RhyA7rIe0jUQ4qiN0EkoI3GkPEzgFzveYSzHUssQ516tkveV9mpTaAwuoru5Yj9fssIY37GSbSrGxeXfGr7YeLQcmLXWZdqYjCew7ev/QtoFHAjQoIRQWpYms4QIocdh3Q4/vIx/3797/n/gfH/XLrrbfm7meFHiuNo+ddP/fcYwN+sNf+D7S1l7ZSWhbIOGrXczSvfTW9HAZAfREYe9P22PVbjfDEVCRxAo+TTUUUVILnhYhLEXxSvuopUg1tyT3MyZS1P6T5jG4202LV485/L3b0nHhVxHp1Q6D9oc5jZ3R1WjPW0U+CToI75JN3EMUlBMUAKuqAcIpI0wbEchDeeU/i+pv+gUceAxor0G11cGqAuiHAZjti/e/vj/5bfgvzlYMyNz0IdPS9eNLSQVcZsczkrR7sm6169yVlIM3O/rOp9/8mTvN5f6++h03dr9Dn1X6YtcASFvjXMtpn0/dLRvNLmm/xq6vAW+0cP7NGVDcSizP9i5/66prUKTtLli0RwUGMmqSEurYWfPC3CWia8BDwKdn1GgHRYXL/A4GGPQei5+YD4PXz0IRmxH4FkmuzTHSpIJZp52aCqnhEuYtUapyAw04AkRiaoGzN02sfq+TSZCT0Vxe+AK6TLBWwbZvOu8pEkGq6P54fZ5gF0+DvVBKEgYuyIpDQBSJHk46laYzBci28eckkqH/GOg0buHnECQmA2DXoIE4yP0IpADdc8IMf/OD3Dz54/zVfpe78v3s8VipHz4v8/l57nDLx0ccvY3mIzppRPSVZq86XOyWt4Abg2CN74rLfrAcRv458IYckagUxa9wMxgkQ+Dmo2MscW8U4a73FYhBvKAnJXlRt+TB/WNLRm0m0uFWlc6eYzXWZpHDYEpckSGIFj3qxubzOc6k41lKyMcsQbg1KSU/MnVuLe+6bjFvHxPhkAdCut9A+UFwDGLo11vzuPlh7m92RNAzAJ20VqFxBp+OqgXYVNNe5w1xVkSx2wbYWsBZY5S3QKZPbqYNh1Ou4ZgZSIh9H6OekqEx7B28//iBKL04AFkwHZAsQSsOutyHQe8ch6LPZAJSL7SgHJUingrZyi3b28Ej6ZchmdG8/FfFSpYM/4ZPyl1odnsEoGFEQ01HAEoRkKWLx+knAIdsI2UXARdUlsInlCTp6zcbKMoJC4gjD0U/6cWIR6C9YEtXReYCCCOG+J/DxJW8DM8wwOo4Dwy5qiHJYSuXv6EJ8339u9OjRhw8bNiw7e8UO/Urn6P9875/XHvajYS9BoR9z0a4XaGYh3VufOVz21zPoXn8wcN+Yb2D9QY1w3TJk3ALXI42cAYmEuQAqJok+j6qjN/zDykkgmebPgCBZ95lWWtIj8694lQzUZgbInM8cFncWCeKkkv3oIKlIyIh/4o4kjyTtibltA/DoU3Nw0+gZmPyGwRaWQgGZ6w+suSFqvrMzNtl5T9SsswnmlIDmSMArFjQdpa6RVdXiNK+1yYBpxOzKA7NYsTPXfpq1gLXA126BaqtuNfDgusSvIDFYHtcXiJN2hCGd/iIsmPwSZjz+CPDPl4G2OYDbZKJ71u83L2Ct3dZDbv0QzblGJEGHbsFLqPchHQg6c+HCE15Gq8vsaaKdduIYqW2jecoVnsx+KVyKp+i1k5sBBwmFfuBBCl9vAnIM1DRVi29eq30MOUe4zgqE0qikpq7JBDDRXJA59CjVYtp970L+paQFbLRP0OBxpZ07/60B0eb3Hdtuu+0FY8aMuXL99df/ygVsPm9SrHSOXinlbf3trS5/ZdKrJ0DRpWsIGRzhQNDQKSUQjRhLIQDO/5WDk/7nOyi1vo9ioQIVtWnQHl9GbmfX4ZaR75Axw2kUP0kiiD6PNMXuEqlpHalTftD0m2d7NQgts2hqP/rXOnUPdJQq8PIugjx3c4mmpee5jioAaQ3iuCeemzQX14xegL+9BLTzxQkp64paXa6w148xeMfd0Wf9jbEwEWhiDT6ohXSY+jEoesIsakMAACAASURBVG46uiJTdSoqq5Xb1PnXvtbZC7AW6LYWIBpf17yzSidBfEEq9BddZoVBF1PlQYy8E6FBllBctADzX/wHpj41AWryk4BqARigMcLvD2DbWgzefi04/QU6nA4kAR053a9Z7bQiHjO9mhDMKG4mdMQZHslgjhgCaXSBcfI6VW8cOugDFB09EKYm4lcq0IBGraonEsPcx7Q/mFVOIV2FWCVwfAc9ZR0wJcbM0e8B75MjyPD6d3Hs+jr5u6xXfubYsWN3P+ywwz78uibKyujoxTXXX7nnaaeecZdSojaNmaxnZyLTMkTiZ0orwgBCvrU5cNuoHdC/5yzk/IWQbS16MFDwELdX4DD1k4nEGDUWMyOV4K6OeziTqumqiax/n4FBzMlmYgj9vTpUWmgZKPgosf7OvZ4UUImDXNAf5XJffDQzwMiRz+PeR4CmEtBeFeUrrAV8c09stN9hKKy9AeJiD5SVg3YCW3xfp+rZXUgnrzeXXWkts40PZ23XutrXNYHs51oLWAt0UwvotOZi/JJRc+PiZerkOp4lWp8enxwfqUSICHW+hFvugJw3A7OenYD5Tz4EzPkQ8Moava+z7xt56PudQei30zqY6y9Ee9AGkWPgRocaQ6oIjgjgpgXzeU7F4K4EM7VaSmZxQKd3B1zTDeO/1pBnhkCn9wWEZKaA0b5AokvzKXxVMWRCCLMsgdQguyD00JsEOX+Zhvb7GoE2wEkWp+y7zgQy/wkhoo033viyyZMnn7eikfZdr2Wlc/S8uBkzZvTc74d7nz/59TePg/I8IciRnNU+uOvSWrZSR/VFH/jDxYMwfNjaQPkdiBLZmcg2R9KCOJN1d+GmTLFzAmrPqQfWRPp6NBej8ztBbV1Q+vp1mfpCF4Q+d7PEu0dSwvdq4Il6pGkt5swNce/9U3DDTSXMWQR0pKSA9EhiDwzZEGvtfyjW+M7+aM/3RksqEAuzK9XYA4rVSYNuJQlOkLW7sN5kygWe2XkyTdQ5ejau76ZLrb1ta4Gv1wKZs6/WwQ35DlvyzBoVVQAymuYyro8ojjS1uZ8DckkJA9MKmt9+DVOeGI/k5WeBptlA0moi/ByAbwo07DIUA745AM1OE5rK8+EWFZwaKsEJJOXAZDdFnG0tDNV3qtPzJAbiCk+qWo3uzoB5xunrzC4xWll3FjMCFc08RuY/4+hjRT35QGcneI9Fx4f/ETBj5DvAFFMRruoIcSA0re/ilL1USn103XXX/fj4449/5escqJXS0TN9f+HFF/zo3N+cd5lS7gClER+ujupNrd60duhqiwvstD1ww5VbYO3ec+HELJiwHk9uYYmU48idZlKjd24Q/Jtx9nqAdfhcJYrIuJg1gjNrkavWbDLNVu1cySylHT9VmIjADABvDSxorsWjT87BrbdPx6RJQIV97jy/0BvoMRAN3z8Qa+60H5LeQ4CaOsxplijWOSbdr9NE0B0DupSgOeoVRMrdpZmYZrfsIREOwZ/mPJMk+jrnkP1sawFrgW5qAS7NTKWzJY8utcqyZ+rlAgG12FkmrximTrJ4V5CiQ8TwHYF8KUYvJmDLTZj12rOYPnEc8AEXz0YgKhkfXA+ILXpgg12HorBRDvO9uViQLkAapPC9nM60eokPN6P05nqYOolO15t0vlk39RqrpeBNVwAP5hhMqdZgoSqeCQbDlLV7qYMwbljoOwoqQG27j3lPfoL2OxoBiotlrKM6aKRjylL2inl7oPKNb3zjT0888cRv+/bt2/Z1TpGV0tHTIK++/eraB++7/x+nT/tkP0UEBnXSXR+JlmMzB2swjOpDF7jl+n7Yf/feCOSngNuh6XLp0FNfI9bgJHUm9c5NAHXfq9yPdP4ahFElbeBAG2lF8yGmXYTi7NVJzG5T9sKzBu8mNXC9AXjy+em4fswneOofwALNmUBe+t5AWEDtzntg6Pf3RW7IFljoNaAxNtK0YQjEEQnsJEI+BKxDkeEuc/QE+AXsjc8mqN6BagILpplM7d6Q4FhH/3U+RPazrQW6owWqojo6Ua8pcw0CngBnzbLHtSpRCF0PLvHUBLi5DspphLJI4IU5HWgFiUS+0oE1vBhh26d4/5m/YubjpNOdCjBDK8oM/zWdbrBdPdb67lrwBgZYiIWosB0PDvw0hJAsrxpOFGKvCNJjfd603hE3ZXhHHJ3VNX5E1+zpW6Q5l5z/PFi/19ogvosK0fPSQ6+kDvWzPbx9+6vACwA6Pn/U6fAdx5Fpmr530UUXnXz22Wf/fUXy2n/eVa20jl4p5Z900i+Ovv6GkeenCfp4nic08xvr7Vl6RDDiFUrzwX93K+De23ZBbfAmRNgElFI2NkIhNg7xXxw9HThN4iOJYngaIS8QR9w8BHD8PNJyRb/eY94JMToi+u0QStSird1BIbc+pr3nY9RNT2HC34Hp8wyrHdwikO8PbLYd1j7wJwjWXg9BnwHokC4qFQWSAZleTO4azRBUd54mY2AQCaalzpQQDEWlASZWc/a6JmYdfXdcY+09Wwt87Rb4rHpeJ7e+SLRT/fzOpcUsnFzPKr6n17BcKUIujlHvuwhVCfOmvon5b72ERX+9C1j4MVBZZHLkTOdvBPTfZW302LIvmmtb0B6UdbZTt7I5VD8hiU8GhtMRt4THNVX3RjOtn5pzGN+RdZ/Ce2zhFqlms2MGgIBqvRb7QEdHBxqKvVC3MAf3xRI+HPmuSdW2CIShj0qlskRrnfYqvh8NGTJk7KOPPjpiyJAhc7/uwVppHT0NM3HixME/G/ajMS3NLdtzU+WS0rUqFuCyVm+cYuBJ9AiAqy9bBwfu48NzPoIsS01aACc2wAyZ15E65W/1DrHKQOiHUHGiiRk8L2OTiwCVuppm1iAyIsRRBL+mDi1tIeD2Q3tHA26//QXceUeCaTOBNqZ+ONHCNYAhm6PHDntg070Pwiw3j0qhDokTIIklvCSGR4EIblIkU16mRBCznqQpE00mgR9bPTjhNJ1itZqgSSCqVLT/iRDj655e9vOtBawFVlcLdHX0vMfOoEMQsc5I2ty5odo2Z3BdozQuI2b+rkWkcAIfeTLxsWddCa2Y58oYYWkBko+n4K1H70H0zONAtABwiMFSQA8AmwJr/mAjeIN8uLUOFkXNaEMJbj6E6+UQxwl8JoMlAyoFwaysIqiOF+HB9QNUYpOi93XQZdL9bL8jCE9vC5xYZySSpgTrVtbEG5e/AEwGNIabaMMuydRcLodyuUynr6SUH51xxhlnX3bZZfd83dE8Lb9SO3pe4AEH7HP6+PsfvgCOplbQZDjaEZJxUaeDDGgtTIFdtgfG3roVirn3EMiqJnMGusjAd0brnkUjox+YJHTuPhy2drA9LgI8FpJEAahwl2e+WDt3wn5oKw3A43+fjdvHzsSz/wRaFRDpcn0B6LcRvB32xQa77QNvzQ2wiB0jhVoNSNFyxKZUpDconHCa3kFH7xlXNR+IbEiWEKvofFC0BTofKP1gVZ+m1XU1sfdlLWAtsJJaoErftdiTmOWo2t7U9bINqyepyensdeKS6x5R+Z0RjYRHxysVfNdD3nXgqRg1aRs+/ufj+OSRO4AP/gEkzUBSMm9SBNwdfKy3+1CE69ZgftCIpriNDdlaAldyfXeASCSI0wocFwg8H27ioFyOIIgUpGuXKdzsSgjkS0SoU/6uiBAmLmrKRUT/bMecK6ZDtC2mFTckqgL5fF5H/kzbe54X9+rV696HH374pK233nrByjB4K72jHz9+/JoH/PCHT/uhWCeKlCDzHZ2xPnj1hu0AxaxWf9NN/bDnbnUI0oXwiM6vciZzp6aBdWyp4NSKzUzz67TKGxQLLlL/U2rhhqJRjatIoNALcYePV99uwaixH+G+R4D2MkDpeOQoH7sGsNE22HSvn6DH5t/FfL8GrU6IhE484k7VyM0SbcoUfUQZerIyucLUrrocJnVvJlLX1Jeh3DX9oRqkl3UhaANYdryV4Vmy12At0A0tkAHQdJCSVRazpbnaW1/9rrFSGUtdJ9Ona5bYREh4ngMmYWUiofhFxDsEakOgLm0D5n+AOS89jtmPPQxMZ0t6GyBaTTp/HcD/Th36b70GgkE5lEUZbUk7pFLwCzkI30OsYsQx132JQLg63V7J1lFDrsP+ea7NHuLM0RNvH7RIDIr74/WrX9K1+SByEJkivvY9JlQzpQIejuPMOeqoo866+eab/7wyRPNVV7lST06llLvXXt/7zaMTHh+haXF9k77XNq1uCzViPYCHCHvsBlzzx22xRt0sEK6hQXkEZ7hkUDLtabpVjTUZvaUkZW0IRB1IVQy31ijmyTLTPD0BORAfTnfwl/HvY9wDHXh3lqFQ1Kw8hb7AZjth4E77YM0ttoTXMADzI2BRJOAX6rTWsu9TJjbjj+YmIgP2a7xftknRYLsl+JgzpagsVd/JhGcaQjKWPKaYqojSlX6/tlLPMXtx1gLWAl/MAp1LcKaCqZ25wd0Z55dp3VclW6vAYh3Vs47P78yuUzKEUiHsgXfILsfyuAMvTZGWSghSoM5VqE3LqMyejnefnojS38cDC6cZVByDOgbnG/kYtPM6qN+iFh09SyiFEdqikkbNa0p0x0EpKWkQH+vruglLZ1Uzghyt5seuJtOHH8QK/ZNeWPjUHMy7/RNgLrPHASoaoF1lZjeMeKS9pWMPw/D5v/3tbz/aZpttvvbafHVUVwkPMXHig4P33feAx6MoHaK3T1kbQ7aNMv5e+fDdGHVF4IqL18Uh+9XDUx9k4X8C5Rq0Or2r7vnUoTvHMkRcbodfmwN8B+3NrXD9IgJ/ABY05vHohI/xp5FNeHtGFsG7NUCxH9B7DfTbY18M2n5fqN6DQCmDit4JskHAQ5AjiCM2vfHsk08EZKLgEeiROfmYtQeG+RmlrW790CAWUjayD3Xxw7eYr9nsGjRXs3X0X2x1sq+yFrAWWC4W0NqiGYC4K+/9krK4xol37Q2qrmd0+HTq/HtZpSjrtmiDYfIZjScEW/uaTlxW6M9LaAgcBB2NKE+fgsn3jQXefh1oagbcEuA1AjkFbAMM+f668NYqoJxLdEm9ktIPCIhAoSQ6UIlKKHrFTuCgBuWlhtMk8lJNgZuLQgwo9cHrl76g++adsguRkEKdpD1Z67ZjgIAGLI6O4cOHHz5q1Kj7V5ZofpWI6LOUiH/IIYf8/J577rksTuK81mNlX10q4RGgJ9PObricAHbfDrj+jxtjUN+ZQNqaAdVdJIJbPrIiGU4d7eh1ijyBUxSIIolyXI9cfkM890wrLrn8dfxzMrCI5/Klxd5A7QDg27vj23sehnDg+pjve2hVfK2DwDeMvXHC7EFZ8zB7TBGBbR/s9zSTWu9gVYo4jSBcovhNL6rhZ+ZX1x2x4W/mw9TJa69T99lzatP2y2XBsm9iLWAtsIwW+GwJsUtHkE5hd7azmfXKUNFWRWVMQjZMiHA3aHfpc21kHxIV6kx1letlqcTdgEIu5+pSbFrpQM510BAA+bYmTHvxScx64kHgnZeAaB7glwx/fgDU7FmH+m8ORH6DBrQE7WiLmhD4CgXKc6cxIsUAMKt+Khd+SpY8icgjYY6DYrkGbf9YhJab5wDz2BWdQ1pJEHjk8CfQewmSnLS+vv6fzz///N6bbrpp4zJa8ys9fZWI6GmBiRMnbnjQQQfdUK7E301iTgtzeFn7WeeOUQE1PvDnm/pjj+96yDtzdc8k0+SEW2j6Q8XJlXEeE73vuIgkKRt74YMPE4wc9QHuuQ9o0frwVE/qBfTqBWy6JdbZYz+sudl2aJO90KJ8tPkKMjAiC2zx1wNPf+8S3Z/qWhMdvSPJ7qf3JpBKmnM4WbIuAq3BrB0957ThX66S9jATQe57k6o3ffUaRZp1HXylM8S+ubWAtYC1wOdZ4L84er6ERDqa/SOrhVMeljSzLH9y/cppoXuJxGPK3qTAdeZTefBd16iQ5oAoAaI01ZE9E7pJIuEJgVwSo5eXIJ33IT589hE0/Z399+8ArOnnM9TfUCDYoR/6bTkQQR/W5VuhonYdlJUDpQnIjN4JgYJVR58ijEP0XFiLqTe9BrwEuO30IdRc0UACnVzWkTxR/QZp33LyySf/4qqrrhonmJJYiY5VxtErpcKjjjrqf8aMGXOe67oNSZIIVxCVyYY07gJ9REgRe4nmRN5qPeCJB3+AfPoKfGeejvg18J7ZFabH3VpU6HwRIgwHYPoMF7ff9jLGPwDMnGOieEVvHPYBNtsWDbsdiIFbfRdOz35ojaWO2h0/QAwyJ5GMoaspqyF5RlvbCZirnpPNAc3JnP0umxedIJUu02RxamzxzFm5ptFKNKPtpVgLWAusOAt0LcYv8ammel9d8araIbpWv5gKRGdXeXw2MUmnW/3lf6L6Dl2BqKOEvB+hh1dGy7QpeP9vDwEvPAnMn2nkcFkfqDdyuH23HYj+WwwA6iXmxfNRLkgtWEN9e93u7ArNaltWHnrFvdD+6By0jvsUmAMUpQDztE4YIK5UJWgJ4NY3kQwcOPCvd9999+nbb7/91BU3AEv3SauMo+ftPPnkkxsOGzbs2lmzZu3smC2UztAYbKaLmF3yzMl7EoX/3+7+2zMbcMqRa8NJ39LsdppWlrzz0keMvoDfDx1pLcbc9jTuvRt4+12gPQYixwfCnsDA9TDwgJ+gfuNvIb/W5mgVBbQQg0HGW6G0NC15kC3qfekmmz3LWsBawFpgeVogjhVyBUbZrN+3otZNUFtqxvxJL+Hj559E8sITQLQQUE2m/DrIOPx+W6+NAVuuiTlqPlpFGwqFHFpLLWRWg+/n4KMBuU/y+PS6ScBrQFgGQrjoIN0OKwgaW+Dr9L/OvTrOomOPPfbX11133a0Uslme97g83muVcvRE4B9zzDHHjBo16neFQqE3+xZ58Cbo8HXZ3auFUtyTRdhiKPDcQ7ui6JDJqFUL3bRTrMDrB69jXbz4z0X4/c2v47W3geYF3MVx11AP9FgH2GEPDN33YKj+60AVG+AIX/fDK2bkOdDMOGVl/qoW8/IYEPse1gLWAtYC1gJLZwFBLv00hUgTeJSycYUu53pRGcVyCz79x1OY9ei9wPsvA26zQefTWawJ+Jv1wFq7rAvZT6Cl0I40HyNBCemiCBu4QzD9wWlo+fN8oAWoUaHmPelg3jgjKNU898JBPswldXV1D44bN+6MnXbaafrSXfmKPWuVcvQ0zfPPP9/3hz/84a2NjY17pinzLcZgpChmDVyhVv8sRSvqQ+C0o4GzT/suQr8FsYqQ1vTCP176BI/95SOM/TMwT5Mp8MXsm+8FfHNXbLjXQajf4ltoqalHu+OjtSOFEzuo8T0tjRtFpv2N5XujxGwPawFrAWsBa4EVbQGHjl5KrU9v1n3jEFg7zyNGz7gd3rwZ+OiphzHrifHAvA8BpbVlgRoAawE9d18HdRv1APpIRPkI+YqH4lSBKVdMAT4BvErBaNYjQkIZXO1ssi8JFfjBnGHDhv129OjRNwvK6K2Exyrn6GnDk046ae+rr776L57n5Vird7S2XdXRm+ZGOmTWfzYeDIy++RBssGmCye+8hSefX4Q77pqFD942vZtl8srmBgAbbIveu/8QA7bfHejVV7MrNXe0oK6Qh+twN1dAFBsJWemmcDVhAvvxfctOtxJObHtJ1gLWAqu/BShy5vs+pO6+ol69ETlLI1KjRKjLB/DTMmpRQfPUN/Huo/cAL/0daPoUUC1ALtYp/fqtc+i7ZV8UvtEHhUINJt32POIXEoDY+bTOUJuC5V+DtK8StTmOSOpq6ic89thjP//2t789Z2W1+Crp6N99993aXXbZZdzs2bO/R3x71bhaNUilOsgPMiYHlmV++tP1sMFmwGPPfIgnngFijhkPwV3cYPTd7UAM3ukAYNCGmKVcNEmJmqJAzpcoNy80VIqiBpVEgPKLbsD0fRkySeDJnBZAsIe1gLWAtYC1wIqzgCZGVUrrlKSOr8upmh6F1OMuUMgB7WytZ6k1jlAvKuiftqFpyj8x+aF7oV55xoD1dP1eAn2AYLMc1ll/MN5/5B1gZqY3LwsZ8RqR9pmj54dz2Y/ReMwxx5xy00033SlEVUBlxdlgaT9plXT0vLkzzzzzoCv+eNXNaSrr4TBfkxVOJNsuFBwZ69/wyOUAUucuIue8HiAH6LE2vO/sgW/88BCgYR1I0YBU1Oo6PdPybg4oxW0Icr4Wo4llCM83ZDfcJ1TSDkiZIC8K1tEv7Wyz51kLWAtYCywnC+iATtfJKVhudGa0urhnHH5cAXLsjlZAqBRE3I5QRci7KVoXLcCi9ydj3u0jgea5wILZ0MV4tuTRcRDmZZK2mpCfYG/dOcAaf1VT1EHav1/fv9977/ifbrfdditV3/xnTbzKOvrp06f32P+AA37zxuQ3T4bnBZqmSLPdSriancFo1XPA2XtZilIoLwSKDcDQzbDFj45A7YZbYnauHrHfAyj7yLkeZedRIj99jpsCo8BkqHPZDWrej2AM4RluZhUzfb/KmnE5PXL2bawFrAWsBVasBTQIm5S1aWoanzwXsaMQsTXacXQkzx0Am6g9GYHbAYL3uJ7HAqiVZRRmf4Bpjz2MlomPAgtn6fq9SNvI96dJSzMGdTjSNHFTAJel4kSRRR/zRowY8dPf/e53T63YO1/2T1tlPZRSyrnxxut2P+Pk0//YUalsmMJzHNeDlyaQSJAQMMHDMCoCvgsZ9sW6R56HgTvuj5ZiDm1BDiViNHUfPNNAhoxGH5mwTFVMpmpaw5yfSS86RjFxSXLHZR8E+wprAWsBawFrgWW3gEnfs/Oq2gPF99AUPSZIS1PdG0+xHKWoRM90LTXrHThpBYW0Bb2dDpSmvo1377sb0cQJKKhWSLSTmE+30mlWc01tb1q4Xc9TaRJFm2226dUTJkw4b8CAAab9ayU+VllHT5vOmjWrcPSwn536zDNPn9GeOj0c4QstWONIRH6qPbLmjuccYDpm8DdxwIXjMLOwJuaGPkoBWfIyEbzPAc9XxWg6dZb1QBppRsNSV5VntMj7lXiO20uzFrAWWA0tYBQ+DRiLDHxc+/mV6ehp6nDhekgVRdAI1iMvP3nqjdtTOusboyBb0SdegHkTH8L0q65BnWxFhHakWcDIj2Bbte/5iKhXLiCDfPj6tddec+oxRx75/MrEaf/vhnmVdvS8qfvuGrvpcaecesPceS3b6uI7uW51mF0290wkphsglREQNqDvoadjwwOH4+NcD7S6LjwOtnSgVKi14LUT58A6ZHWK4YhYR/muZLTvwdG9FUahYbGMrHX0q+E6Ym/JWsBaYCW2gFa7y5y2FqSRpNolSS2pb5nZJZFOTgd62v8za8t0PlujNZmtoSevle0I507GpIvPAd5/G26lCcITSAjd59rPdL/O4fO1utGutMe++1497pZbLmpoaGheiU3UeWmrvKMnic5Rhx86/Nbbx10CP9cTCVltuOtKADcrxmjYZQr4BaBhMDY66wLgGztiUVADRysOkec+1ISNiyN1ThbWdcyEEMrVTp7OXnPNZ+POHaV186vCVLfXaC1gLbA6WYCOvuIKnVklyy07nhnZc0UW2rObFD7b7vQ5TMHT3/M8JPCFhFuW6OeU8OKtlyB95Hag3KgT9Lotn6JpWlfEYQe9qQFLIXv26vXMrbePPWW/PfecsrJx2q+2ET1vbNKkJ3vvu9ehdy5sbto1its5LvA5JrEBzpmdGHXni4a/drvv4ZsnXIim4iBU6NwzSVjKw5rTjWBMJjds0vVdtkRaqIEkDTphoOVlVqfnx96LtYC1gLXASm+Brkp4RuSLojT8MhwqWUK3U+uewmEUzRGphC89FCHRT0T45NmH8fF1FwLlOUBprpERJwOq8lDQadtUlwAoTJumcsEhhxx6wZg/j7lBCEaTq8ax2nioc886Z5cLLr14PFxJajyhZWg5RBqtQUGbHBS3aUzd9BiEAb/4LQbtfADmyQAVl8ANQ3VkoncOstGup4OvyhhyzM2EMvUgI73I81YbM64as9ZepbWAtUC3t4Cp0VeX3yw408qki2W+yYemlUtdhUSyDCvhCw8BPNQnFTQ0foRnLv9f4DUSrDQCDj18lfnORVExP5BozxADcuAaaz54xz13HLv99tvPW5UGYLXxUDNmzOi5374HXDX5jSk/zajv4TC/rhKdZi94PuJEouymUH4NsP538c2Tz0PrOhuixS8aIAdTOpwZWfVGZ286/XgXkXjuJPR5Jvq3h7WAtYC1gLXAirWAQdwv7pQyDdB0/soEZ7oUqyA84/wpf6uZ83S6V6KubTZm3DcSix6+E1j4Kdy0BN8zqPwyaVB5ZGldraLrhR2nnH32wZf97vwJK/ZOv/ynrTaOXiklRt0wartjjjvhZsAZ6oWhSCrtGkznZ4G8zuaQ9paqBmFf1O93GNY7/ETMD3tklmQdnmp0Ve33Lo4+y9KYSL8Tbm8d/Zefg/YdrAWsBawFltkCTNWzj756SEdq3XvdVufwu4NUsZ+eIb2O+RCKBKGbAO3NKM7/EK9eeCow8y1QsSzkBoEI/YwzX6PzuUNgi74SycabbH7rhAl/PWVVaKf7rDFXG0fPG5s3b17Nz39+7OkPPPDQWQDIW6g7H1xHmLR9tkPj4GtGnEI/bPbbkch9YxssQIoyPAhZo4kWNODSARLi+HQPXoa+T0mqy4NbPGXJcpb58bQvsBawFrAW+PIW0I6esuMUGvMkUkrMSicrvXL1d1GWAr5vCO1CrX/Sin5ejGDuLDx/yzXAs/cB5UUM9+E5LlKZwmELHoN+TaaiKIErVYpPx4wZc8QRRxzx5Je/8hX/DquVo6f5nnjiibUPP/zwK2bPnr2flNKjihHVjboenb8LGoAt9sB3TjsXzb16oy2ogUIBlTKQIyCDLXTkTyaIw4l03Z4RvyHVyVL5tj6/4met/URrAWuBbm8Bmn27iQAAIABJREFUA74zjr7iM4InSp4lWK7TBnHP5G2ZPfCOocvNoxm9KovQ9vJzmPKH84GO2UDSbqJ2z9O+goA9flUjOiHEwiOPPPLc0aNHjxZCkBx3lTtWO0fPdrvTTjvtx1deeeXFruuuqaVss0Gkg4+iSA9owra6XA/A64XiwcOx2bBfYLYTImEtX3pwEvLnGkEEKRIoxwjSSi2IC3hVOL8wqR57WAtYC1gLWAusWAu4yrRE68yryLhPIOEngXb0FeKucpQWl6hxJWpKLQhmvYfXrvhfYNrrQNSmYXbVYLBrYMjWOaVUsvbaaz8wfvz4M7fccsuPVuzdLb9PW+0cPU0zZ86c4rBhw37zxBNP/JK6B1Vzua6rKRE7Dy8P5BuA4hrY8NeXIr/p1pjDpst8HURF6BYNCuQQ3GGAeSY9RISGlwSGdU+jPq2rX35T0r6TtYC1gLXAslogg8oTNU8oFoVolOmhFwEgPQW/3IS1yiU8O+oq4PE7ANEBtLfAydruukTx1ehe5fP5dy+44IKzTj/99Ikrq9b80lhqtXT0vPFHHnlkg3322ecJAANzuZwolUraHkuk8tkwSc1Zrx7Ycmdsf9KvMW+NwZibeKgPcmCLnkjo5NlrnwE8XMO45yQF/d1k7q2jX5rJZs+xFrAWsBZYXhYwmGiz9npGeUyD50yhlvTmBOsJRGmMOKygL0po+ev9mHH95UaatsLaPNl05BJ+oZrCl1K27bXXXpePHDny0jXXXNM4kFX0WG0dPcfjlFNO2eeqq666VQjRwClBOUMeTNPo9L3mRnSBfC0gC+j14+HY9Oe/wgeRoweeqnSuJJLDKB5JhwC8bLxlvkp0bx39Kjr57WVbC1gLrLoWMH30huTMY1CWrcRVtlL+7MZUra2gmI8gZ0zBW/93BjDzfUB2AKRF50aB1Llc70mcpkVwdOZX9u3b96Vbb731J3vttdcnq66VzJWv1o5+6tSp9QcffPBFr7322tFCCJ8teNUB46BWq+siCKEoQt9zbWx41pXIbbUD5qgE0g0RpnndYdHZT882O92U6Wfms9H8qv4Q2Ou3FrAWWPUsoMnM2PlEvXnm6FmrFy6UMGVX7eBcoJiW0L9jDp4ZdTHU38cZ8F1Zag0UJRNIaQjuupR2VaFQWHDqqaf+7Pe//z2zwqv8sVo7ekrZ3nLLLducccYZlzc2Nn6H+Rw6+Gr6Xtdksm0gCfNSrw7YZBfsMOISzO7VF+1+EU5kUPbkx9HMeGy3oG+v1uUt6n6VfwjsDVgLWAusehZYnLqX2rGTpTRla1yXCN8RCfomzZg1/lbMHncd0DZN99TrLw2slhDEYHFdZ/CnlPI8Lxo6dOhNzz777IhVRbTmv43eau3oefNKqfCII474n7Fjx54LoJfneYKI+87dG503OXCYxXdCIKxFfs8fY6vTf4/3yj48N6/FcTip+NXRkaDge3AhtWaObs+3zv6/zTP7d2sBawFrgeVrAaLs0wTC91BKJVzfA6uz5EBh4MZ2ujqnHf601/D6uScA8z4A3JIJ7sr8RnU7U8rVbt90Y6W9evX6+1133fXLPfbYY8ryveCv791We0dP006aNGmtn/zkJ1dPmzZtL27YljB3tbDD755vxOsb1kbdUSMweM+fYaH00MFJk/fR0tqBnj0KevdYbi6jkAuQSKte9/VNX/vJ1gLWAt3VAlx5PSqXeT5KvkN9OcTtCWryng7cilEJfTo+wUtXnge8NAGIFhlKW02QKqAoPSscHfTFccxMr3Icp+moo446/8YbbxwphMi0zld9C3cLR89huvHGGzc45ZRT/lypVLYiKq8KunCE0hz4OqwnqwLrNU4eGLoLtj7xfFTW3QyNXoByWkKQyyNmiT7RtHuQiYRktL/qzwN7B9YC1gLWAquUBagi6spUR/Qt1J8XLgLS2EVA3lPoW56H6Xdci4V/uRGQTZrmFm4IsMVaJZr3Pivtw/d9Fcdxy4477njDLbfcctG66667SujML+2AdRtHT4MccsghR995551XK6VyVSCiSwEb1mZEBtvkjo9td6I/crsciM2PPRNzC/Vwi3k0VyqQjq/l7OpcHynljFxLmLO0k82eZy1gLWAtsLwsQOfF9Hyq6ctjSMdFMRegvKiEgQWJ5n9OxNSLzwJaZwEiApIUwquB0oI1Fe3oGdQTquV5XtK7d+8HRo8eferqgLL/rI27laOnwt3ee+996VtvvXUkE/WO4+kiu3DYPhebyFz3ZgZA7AK5vqgbdgI2+9FRmJUClTCH1A8B5SGUAmms+E8b0S+vJ9e+j7WAtYC1wDJYwHME4kqMQt5DJS4jVS56IULuo8mYdP1FwJvPAFGrXtd1dxWp8qDguw6SNDLAPc+TSZLMv/DCC392zjnnPEVGvGW4hFXi1G7l6Dkizz333Cb77rvvNYsWLdox8ELCNJGylc5J4IYukohbPKCgHHQw8F9jQ2x44jno8a0d0VroiQXlClwvR/kbJBUJ4dnU/Sox0+1FWgtYC6xmFhAafEeGHN9TQNyBYgAUFn6KV2/+I9K/3w+kLfDiEshoXo3IBFy4wtMCNozpFWTH4Ycf/usxY8awLh+tZkbSt9PtHL1Syj/nnHMOvfjiiy+CEn19eCKFRJrJ0HLmCBIosAODkb1fB6y5CXa+fDRmOD2Q1vREQvnCNDVteqvd3m91nOb2nqwFrAVWPwsYLXr2ypcToEaVMEAtwFvjx6L5thuBUiOQVkCYnh8AUWyCOKrTQfmgqK3ryPKWW2121V133XXx6laX7zre3c7R8+bnz59fe9RRR53+yMMPn+LA6eGwvT70EVUqCH0PaRxpBKfjuZDcCtYNBL61J7Y5aQRaanqjWfhwmPpJJOjzzWH679hvr3/K1I8WG9jsCKpteqJ6ok38r37rj70jawFrgaWyQHV9rMZL1U7lz9KUdCbTl/iD0E4+ihQKnkBDuhDivefx6u/OBBpnA1EJwiG+PoWQCUKfzr4a2IcE5qf19fknR426+YyDDjpoyuqYsu/inZZqPFa7kyZNmrTGAQcccOXcubMPiKLEZ3RORhxC6xyX6XwjfkMSPMWoPuyNvj87BusecCg+dWqgcj1RSamCKOELwFWO/jnyMyxfREEcwEnZ0UFhnBRKSCQuuZg9OKnp8jMT3aYFVrsJZm/IWsBa4D9agGsfCch4VGlrq6Kg5KnXKyOj9XKMHjU+4kihvdSG2tpa0+JMjFROIG2rYB23FWLqK5h05bnA9LeAqAwfCqkTQDL7ykytirQmfSSBxBfS87z3zzl7xLnnn3vuA6tryr7bO3oa4Prrr975uONPuvP//7MfuRdcuAj8HDriEuDRwxsO5YSJfArf9BuCIT8/DQN32gfTyyGQz0FFKRRbPBwXynV1RM85qpXv2K/J1ACFFkSile8k0/3w4CZUVyJJj3X0dj20FrAW6H4W0Fz0xMYJhYSdT47KBGn4e3ZCGQla1wfa2zpQzIcIAhetrW3wEMIPfJRSoI9bQZ/GD/Ds1b8F3ngaaJpr3lcT4Hnw2RZdLsOFQuAqRGmqUgeN+/54/wtHXnH9yAEDBpAqZbU+umXqvjqirNcfc8wRh40aNfY6H15o5gbTQS4SVTaeOgG8IERS9gCvB7DeFvj2Kb9GuvHmmFkWqHGLiAQQUQqR06ok4RKqR5Ae60GaLjdB4kaaQpcwfVd68DQ6pMqhbyP61fopszdnLWAt8C8W4HLoU0dEABWPWU8JX7JyznXSiIkxo0qauzZECHMCXppqwLQX5JGWJOpEBWuoNrzxl5ux6K4bgcp8IG03n6WXVXLkORljeQrXERQzS9bfYJ3H7rzjnmO23nrr2d1haLq1o+cAz5o1q3DAAfv/7xuT3jg5TtO8J3xRUbEOxTvb7RRT8zmksmic/Rbb4NvnnI2WngNRinoi8YAolFAqhldiOj/UrfgVkja57LVnNG/AnK4M4EgXvpZVZBef7cPvDg+avUdrAWuBJS1gUveUAFdIXFPa9KTUOvKO9CGUgKuAUiLh9XJQjmKk7e2ozdeSgBx+OcaaqhkfP/1XfESN+ZbZQLwADnvquXhrRDUdvgMi7ZXupZZpmAum3DTm5oMO//Hh07vLmHR7R8+BfvzxxzcaftgRVyyau2j3SCUu5Q3gK8RkxCG1TgT4JFNSeUj0hPTzwH57Y/vjT8Ms2R8lJ4c06kCY83WeKU0ApgdiAj8CM4m5NWWqntE801JV7bxqbaq7TDh7n9YC1gLWAjrg1jKzhoPcY6ubSLQwDR2zK13t6IlzYvUzDYFSJUKelLVCoFwuY528g9KLEzDlxiuAT6cDSTNclOG5CXS7fJaRFa4HFUsEgZdKqCkjzj3vlPN+85tnV2fw3WdnmHX0RvjGu3XkqN3PPv2si5o6WjdLoRzHE4jo6F3ACQDRwXnDnWEBZa8WKPqoH34ihu7/czT5PdDe1AI3LCANPVTKQC0z9gIoCwJCqql56ttnADwS9GSpfCuKYxc+awFrge5mAa5/sUNpGYWQtLS6zZlhOB29KW1KqeCHQmdHuZ6S9jbnpsirMtJpU/DWtRcCb00CVAwRt8KHIT6LtXZJhnZmzTRVTJ1+ctiwYb8de/vtt61OPPZLM2+so8+spJQKzjt9xN7XXHvtle1Raa0EMRxfICZik86eG4KYdPgBytIDghBo6I9Bp45Aw5Y7IQp6oz0N2MiBJAHygd5BQGn5RDZ4mHq8gdnT25tUvqMCCF28t4e1gLWAtUD3sYDWk6f3FiaiN51zTLFniHsGSSKBSB3kBMnKibRP0Tcv4c16E6/ccR3w+AMQaQUqLiHQrzQlV+U5iKlKZ/YL/FVp8403vXPc3fecu+GGG87qPlY2d2o9TJcRJzhv2AE/PWbc+HuvkEBILCidPOcLkZ9606m77rKaDyP7wRtgg5N+hZ6b74Z5UYhKGkD4AJly21s7UPSY7hdIOKmzHntFSH7m6Fmzt46+uz129n6tBawFtAfOUveZl6+2Iem6vU7p+w7KbRXUeKEWE8v7Ej0qc/HuAzdi0R3Xa3pbt2JA81yVTSwlUIE0idLQU0iSuE+/fhPvGDnq1N333nt6d0rZV2eZdfSfed6mT5+eO2C/g0e//ubkgwDpu06mdEdHz7qPb2r2NdIhDhRRGAIbfhObn/47yEGboEnmkbg+pErgOS7cxFDk0tGzJ5RIfP6Ns1YIQkR86+jtmmctYC3Q7SygK5eRRK7goo3sNWxLpqKclowV8D0HsiyRy3loKwO9fKB3aSE+nHAH5t1yCRDN00AoLsmpFqdxSG6ruVA0o72mOJUSgffKFRde+rPTTz99WrczcnbD1tF/zshPnDhx0yN/cdwfZs+csSsS5XqeIxLm47ldZLdGCvRUHiKVoJ1qdsUG4Ds/wLbHnYXGYj+Uij3Q0l5BPp/Xu1Dt3FOdsIfLLj0thCNBqVxOTVuj766Pn71va4HuawFdRmcgRBIbgu5cLQ+PgOKhUIhKEfJeiNamMup75FBXbkLL849i+siLgY6PgVKTTspThY4lUsm2ZTfUAVScVAiA5vZh7qFHHXHa7aPH3N19LW1T95879kop97pbbvnOL88645JKc9t2Kk6cQLiIVQqVZy9dpIl0co6LkkyROiHgN6D4/QOx7alnY6oqoM2phSRVrjCYEC9WkLpm5IKieZyg3Dzo2oA9rAWsBawFupkF6OhzvkB7m4TwHb0uVtJYJ941jk74kDJEXQDkys2ovPsPvHfp2cDcqYBs0dgpN+cg7pDwnFBH9Ox4Ep4HlZbZod+46047XjvqlluuHDx4cFM3M+8St2sj+n8z+qzX//K8ET+84rda/GZITnhCKgnNgk8UvVKmXU4H+A4g8lBBHXodfSI2OugIfIRalP1aKCkRwmHBX/eMUlch0RgRCZUR5Vu6nO78CNp7txbovhYggU2lnMDzPR0UEUzniBhSpgiCEB2lFP0CB/jwVbx+6a+BGa8DcRNcDaTPMqz8e0eWbiX5PVIlfLd18JBBo+66fuSl395llznd18Lmzq2j/w8z4AP1QXjWT0eccP+4e0fknaBHKiMhoZBoMJ1xz57rIo1SXSeKcw1QogYDjz0Naxz4M8xCHiCnfcy2fBeu46PiAEmqdLrJ8xykqSXM6e4Pob1/a4HuaoFEJQh8Ru6ALEnUegKBk6ItKSFFBT2LBWDGe5hyzeXAK08Acr4JkshrohfgzIvFFA734Liugqva80X/jjE3j/6/gw46qFsw3/23+WMd/X+x0Lx582r22mu/P702adIhAiDRrZa1dWsLSModul5Pn+9TLtEJUFEFoOcaGPTLc9Brm11R8evREbtIicYTpMZ1tQKy3mWR3zn7938bKPt3awFrAWuB1ckC5LZPkcL3faTlBL50EEqBtFKBlwNqgxRo/hiv3not8Oh9cOJmeG4FcZwJjnmuphpPK1SmK6ISJcp1RCpl8sjY224447DDjvlwdbLXl7kX6+iXwnrvvvvugB/9eNjlb7455UBXpgH7OBJuKbN2OW4tfdfXE9DzCkjcAlA/EJuc8muIzbdDU7E3EjfUKfuAdI5CaOAJe/Q9QQaopbgIe4q1gLWAtcBqZAE6+kTEEErCrSSoL9aiHANJDPQpAsGCWZg87k8oPzwWqDQCcUVT4nLh1a4+Yxv1BH/2GEClLvDJ+eed89MR55//0mpkqi99K9bRL4UJlVLi5ZdfXv/QI4efP/Wddw9SSD3qLRi9BNc02BN9H6dZzd43nPgDN8AmZ/0fymttjLRnf5TI5VhO4VHX1pOIUurYBdrRmya8xZr1ROKbHlMeJIIwmABz6J+6XLndKSzFMNpTrAWsBZazBapr1OI1zKxiVV15vVp1Wbf0v4WC0l9S09uEgQfZXobvBihFCg2Bh5q2eZhEkZqHbgJUIxC16Tf2E0OoIx2pwc0smer2ZXjSEc6cU0887v/+8KcrRwmh5XDs0ekxrCmWygJ09g888MCmw4cP/0NTU9OuUpKMOasPMbLXADtHizKQw0mLIlLHfr1vYvOTRgDrbY1G5CACMjbxQWg3rXVpTj8IDucle/FASVtWoYKsF9QAKVyV6C8KPih4GgDIhynjkFqqe7AnWQtYC1gLLC8L0MlrqlkAAUnFMoAyicESh4EKgxOVkdg4pr+4wtiIHptgZIk0Jtre1fS2aRSjIe+g0PQJ3r57FDruH6PV6Fw/Qsr+uYrS1LiMr4QjdYbUcx0GTNJx/YXDhv3s4ssvv/zGvn37ti2ve1xd3sdG9Ms4kn/4wx92+eUvf/kn13U3TtPUIchT0eNSackRcFOS4AKhH6CFdfmwN7DJNtjq+HNQ6bsOWvwivLoQ7eUO+GTNi4TZ8RLJL2Lt6CnsoOF9OqqvOnqZOXrNF2Ud/TKOmz3dWsBaYPlaQFN7Zx6Eol8MQXjwdyxNan4xVyCJUi1Sw/54itTECRCpitkguKEW/yKTqFtpRa/KQkx/4n40jr4CSJsB2aoJyng4wpCLOUjADiiS6yQSMszl5n7ve9+7/IYbbrihO2jLf5FRtI7+C1jt1FNPPebqq6++CI7olSaceQ7yfh7lcrtOqrseCRsY4juAQ2nbOmCrnbHLCWeisb4/5iGA16Mn2tol8q7RSqaGw2LxGwJHq/kvM0Q6NcbIP0vxU7vZpMfIFmGH8QsMo32JtYC1wJexgI7YpYEqKVdTfVfXMa5VWp2OWHgFBBSl4Rrn08kTYq8Qei7Ia+MohdBtR++oETMfHIfZ99wKtHwCSAbmEo7nwC2R4JY+n//nrkJn5pk0aN188y2uveWWWy7dcsstu3Wv/H8aSushvuBEP/DAA0fcd9/4s4JCsSbqKOlqOvtAU/aBBq4hx6EoMvNYlLX1aoBv7YSdT/wNWnutiTlpLdLAI56k86C2jd4Td015SbMRyDbLJrzXaf5ypn4XGG5de1gLWAtYC6xAC1Cqy1cm3E6R0wI1XO50FtIsZBq+RI4xJ2Ykn0KGbIkTSDVdLeBEQJ0qoT6Zj4+eHI+5Y24AFs6En1OIS+1mvWOKXhHN5CMNHFT0Z0oFmSa9evV5YOJfHz156623tm10/2HsraP/gg/GzJkzG4YPP/qMxx9/8mTP9QpSxcJw2GdpJt+FZMpKAR4nJ2GiQQ9gu72w2wkjMKdmLTR6ecQZcp+dJGYXbGRt+cAwm+8njn4PbmC12iJLXVrrtmwifWkd/RccQvsyawFrgS9hAdbkPRVpUF1EzXeilDT+iOl7A5rzNOm8oahlyj30WL930cpNQCzR4CUYGDXh00fG4aNxNwCN0+HIEkRKKlwBKX0kxD15PiLC8bXyJ9/aSQD5znPPPHPIDjvs8NaXuI1u8VLr6L/EML/55syG444+9IwX/vHC8cJTdUmaCC/HdFTG5iAEQkeB/t8PgHaS54R9gO33wXbHjUBLXX8sdB39UITcI2QJAOkovQEgk56fCO3o6duNfrNx9FID93gOswJ2GL/EMNqXWgtYC3wBC9Df+pJrkUTMmrxpJtIKdCqTm/UcoFIB3EDB9wTcSqQJw5JciLwP1LXNwqynHsa8W64D5k1H4HUAkVnbNAgZOUQ6T6q0KiiSRDmeFysnfOu+++47bv+9vvdyd1SjW9bhsh5iWS32mfOnTppaf8jRh5z98uR/HKcE6hazDXpwyPgUlwyhDtNbLlNbRaC4BvDdH2C7w4/Dwvo10Obl4WsNWzp9A3CpStrSwWtHzzq+BrosroPxUnRwb7vrvuQo2pdbC1gLLLsFFrsPxQBbdwxxTXLgpa4OVFiTLycRvFygSexkawWhEAhCD0HbLCx6+VHMHPVHoHE2kJbgJhXkPQdRYihtiQBQSJASqGywybEj8Nrddz9w1kEH7f/Msl9z93yFdfTLYdzfeOONnkcdeshvXn/jzZMkfboG0lOCiUX3rMszc8ZJkAdUCNT0BrbdAzsfewYWhD1QcUL9xeheZhrNprdeGhBeVocnuIWzXT8Huu2ua3/9crgZ+xbWAtYC1gJLZYFshaK8LPU4nVSn710pEGpGG4XES1FJYgg/gCMVvEShfz6Au+BTzP7nE/j49iuAeVOBpAwq0hC4xzZldh25CJFQWwQxpIhZCUjztf6bf7zkyl//4hcnTFiqS7QndWZHrCmWgwU+ePXVPj869Ke/m/L2+0em7ANxAmEa4Vmc0k2iGZCOAjjUYwwAtw7Y9vvY+eenoKXfWpiHPJJcHhXq3ROhGlV03z03DHFqgHt8EDR6VbEPVcGhxqM9rAWsBawFVrgFBJKMK4zQewLvmKrXJcgoRhCQolYijmPEiYN8GCBEhGLTPHQ8+zg+uP06YOF7gFNmSl6nLH1F/hBK15L/PtX98kpWVBhCVmJ8evFVF//Pr0781eOWEGfZBttG9Mtmr/949tuvvrr2wYcc9n9vv/veMAgS2/M/Onl6/MzhE2GXSuSDHEoVART6At/ZFVsNPx7JWhthVhIihocaD5BxipQFftYD/BD0+ewsYUsKnApcckR/loZqOd6PfStrAWsBa4F/bwGhpWVJPc/EpXb0pA4Js3bhWKJSbkNdTS1cVyBqnId+fopPn3kMs6+8GKgsgOuVkFbaNQeJ4wRIYsqGOZnIfAwNcDKt+fN/f8n5J5995rn3Wie/7HPSOvplt9l/fMULr78+cNhBPz33o6lTh/mBKMRRJNhOr2l0lIIb5EB8KoUbDA41n6Hxd8UWR52I9gHroTmo0RE/53iBr+V8Z8sKAS86S5DCZx+9UkgF380O43IeRvt21gLWAktjAUcgihLkHU87eNJ8lxNN9Yk0TVGfJ/sn1eYWYZBTxtR7b8Pc20YDcTtQaQZESS9qRWYzVYoICkor0sWaO4wNSLW1/tTjTjzl1xf97rKHhMhQyEtzbfacTgtYD/EVTIYnn3xyneN+fty5H3747s9cB2EidbcI/DBAXEm0WybJbTGXQxwrlKQPFBqAjbbAN075NZx1NsYnrRKFmh66z5Qpe2boI0X0KdWeiEUViMsxpO9bR/8VjKF9S2sBa4H/bgGtwCml7vzx2B/PinqSwA89uPTxJSBMW9FHNGLy+DEojRsDtC0E4rIpa7p8BcF7WmQWFc0MqoF38DwkMsF7p5127IWXX37DfUIIQ6dnj2W2gHX0y2yypXvB0xOfHvw/Pz/0oqkfzzzI8+FWYhN2e5zOvodUpEjI/UhEvZdDKl2g0APYcHNscMQvULvxtmhSRVRKDjwvhBMQiS9RAntJ+fD4uhogXQOIsYe1gLWAtcCKtAAXNJUkKBZ9tFQSHcEXXU+j7jU9bhyjUADq2ufig7tGYtFDtwFtsyDoyBNP+3nP95GwP16zeyoEHpVCIshEyRSYdvypx5x7+im/uX/w4MGGOMQeX8gC1tF/IbMt3Yv+8eyzGxx51GG/ff/Djw7IhYHXUYmE5waI08Qw4LCgxTRX1j6XhgVA5IFBQ7HJyb9BfsgWSAr90CpddCQREDpwQ0/L4aqyROD53P8u3cXYs6wFrAWsBZajBRhiqDhCmM+hLUngBZ4Wt0naSyi4AjUiQi5dhBfH3gD89R6gfS6QtGrYEhU8ZepApkTqA8iFIOm9IwScJJV5VywcfvTwE64cefODNpL/8oNmHf2Xt+G/fQcq3r344ovrHnXYked+OHXawQoiJ4kroZOvstZS5lYqiJiqd6xN5ZCw17732tjk5LPhb7ENWur6YFHqoJII9MyZSJ4lfopEaGS/dfZf4Sjat7YWsBb4PAvQ0QcaVZ+iHDsIanzNAOqnEgPCCLl50/Dy6CuRPD0B6FgEn2I0qWHSIyc+l60c+UEUEHEtc12FWEnX8WYffeiRvxp5y8i/CB3+2+PLWsA6+i9rwaV4/avPvTpg+LHDR0x+661hSqS1LGi5gaMpIPWhgP/X3nfA6VVW6T+3fmVaJr2SAikkMUBooQsoggiKIIq7il0W2wqou6D+sa2ra1lZbODq2hAeLuR3AAAgAElEQVTkj6ChCFEQgkBCMIQSUiCFkN6mft936/v/Pee9d+ZLQAj/Tchk5r06TGbmfrec+773vOec5zxPwbWhQurTE2LagMAtA4OGYeynPofWo09ErXUctnYqeJYPh4kAsu2RhaeHK1+r3lBkQtYLWdudFons3Xr0oPVORhBnD56f2cVYoL9bQCfOs9cRxWjYG58JacmrYjcD5JocUIzCXSk9siYfxjGGFxO4G5/B47/+AXDP74BaByyVSCBDxryU0GSh0CPFt9b+qvJPFmK3UH720o9eevX3vvMft1mWlenW9Xfr7/v7M45+39tYzrBo0aJR73//Bz775FNP/JPn+z7R+NJSQm0G+lvbFSEcNt87toOYvyS5TuMwjLj4Y5h01juxvTAMHaGH1HFQcIBaTU8SrwhEqUIYdaHo2pL+orQj21VSgbDqSSwgQPmH5tPnyloWBEb97jUaBeY0xgJ9ywKspXO9nzNv5vTboiXPV0WQoOB6QES1OUsqjbUwgFcsIKXWPJk60xRxkqDsRBjs1FBZuRjLbv4x8PA8oNoBNyG/nY1Igg52CcVw7Fha8kS5U7PmxrZtL//0pz79tW9961u3WlYm5tG3zHXAXo1x9K/ho1uwYMGQSy655OrFixd/0PO8YhxF7JiD47gIssjcYmQfhVrZyS8icktAoRUN578PR573Xmyym1ErNCO1HOmh9z1gR3sAv2ChoZGo/hrSNIbvFkCMC7Gs/G9Ok0tHz8msrCRTmTKO/jUcAuZUxgJ9ygK50lwe0Yu0LDuBM8/gK0v4O+KqQhAE8EtFAQYHbJljoKIssIPOCbrRmnajc8UCPPPDbwLrlgII4IUVWKGCVyiiEghjvYQdljDe9WQREs/znr/yyis/e/XVV99unPzeHyLG0e99m77sERcuXDjyE5/4xBULFy68lM6ekb1X9BCyWZ6TgNy2yoJjMx3G8NsF3AJQbkXhlDfgiIs+hO6h41ApDcOOWoyy7+soncBVZgaoDsWA3k7guAp2nMJNSEvJpYMlh9fiE9lEI82eiehf41FgTmcs0EcsYHHRrxlpJCxIdHTfExi4FipdVTQ3lqSuXk20sFYQpyiVbNQqNQxWASZZNaz5yx1Y9ePvArU2IO7SvfJC4xlJljJNyJbnIoxiWA7BeEqRORfA5q9+9av/fNVVVzFdb2ry+2BoGEe/D4z6SodcvHjxoEsuueTyBQsXXGr7TmuaJjmtvaaUAutdRSRJCs8m73Oi0fVE5R99Kg6/+FJEI6chbh6OnZ1daGpqgQo0QM8ieNUBKqx/eYBLNGwmjMMEGnn0RXgi48g3ZDuv9LTM340F+rEFMkev1TJTuBSk4ftC3kPkulEgLp5S22FGfecWbVTIZxNUMaygMCxsx8q5N2HLz3+onXxNI+uV1qbVwGN2GqlEFhD8WyqQfUSFQnHlv33ta1dedtlldxknv+/GmXH0+862L3vkZcuWNV1y6aWX/+X+ez8OYHDJsaw0VggyRw/4shp2EAAqlMkiq25/CDBuJqZ/+Aq0vu44bHPKaAtilLwiCkUPnZGU5+Exso8lHyDyzbAjAepxtZ5YNmJLE+0YUZz9NADMaY0F+oQFdCpd2YnIzZLIy05c+Jm2hrxLykB3QEcdo+Q4iImc9320OAlatq3DM3fchPabfwqEO6UmXxC4HYMK4onYJcQgPQBL/ZT84AktC4FfLC35ype+/LUrrriCTl6nGM22TyxgHP0+MeueHZTO/jNfuOrTc2/73WV+pJp827KrKdmlyPXMCaKVmzSTHvnugZhEOe4gYMwMHHTBezHupDeho9yE2PEkiq+mPsi569GhR1pPRx+AMyyW4xDbH5NiV9TvmKYzvfh79sTMXsYC/ckCda9/0m/SQdupCGXZqQM7Jf88UKWf9oHGMpB0dKKQBmj2XXSsXIoVf/g18Jc7gVin6/1UK9BxyUDwHam/naKPJOzWhlNQBc+KUmXff+211339Ix/5wHzj5Pf9mDKOft/b+GXPsH379ubLL7/8Q7/91Y2fTeLaMKo5kOY2YSied8bxKXGyUdfeI22uA/hNQHkIxl14MQbPOQnR+PHYSuUnZxBc24ETUC+3t9aW8qh2SmgroLRWdK+OvXH0+3kYmNMbC+wXC1h1+Bz+k2h7duTwXcGOHErOqljB9mxYSQQvacdoK0Rl8SI88avrgWWPAgmdOIF6BYTdXfJeKbk+QpJ8aR0u2IzmEyiv6AZNpYY7fvmLG7509tlnP7lfbnoAntQ4+j7w0JVSxauv+sq53/j6v30+VeF0UuZWqHiXk+rUOXom422RxVNIiMj3W2C94S2YfsG7UThkJrbWCqgkBRQcRzjyGbFTK5rTLSF6lnr3XGWnOtDX89w4+j4wDMwlGAvsBwtkLoCZvex9QEcfZ86ebXUNBU/q8eWogtFeiOcfmIe1P/kRsGkVHLTDimtQjoOE4B8JLiw4iCTQ4MYYhSK0lm9Xxo2b8Kubb/jNN4899tjV++FmB+wpjaPvQ4/++9+/7vCvXX31VzZv3XCG7cGLRPJOg1cUU/bwYBE8owJNO8GIv1gG0ABMPgbHfPRy2NOOxHrlo+oUBNlaUEDQXUG5WBS1OyQOSMZXo1iOo0GxxtH3oUFgLsVY4DWyAAvlKlPEFLJOZgxtcnKwfS6G3+SiI43gphUMs2pobduKtbf+Dpt/d5MWpmGxMO3U4jVSYfdhKQYiJMeh2DZr9axC2kmQWhsPP/q4a3/865//6KiDD25/jW7RnCazgHH0fWwo/OY3v5lw5b9c8a3n165/i+fDj0JYlhDouCJdC2JWFPvmU60DzdKaUwJUMzBiMsa95yMYcdzr0dk6GJurITy3hGKxiLQai9pdS7kk/fedAdDQCISSXTMRfR8bBuZyjAX2uQXo6OmfWc2jiJxHNHzGVOcVgB2dXSi1OCgnO+FtWIGlP70emH+/Vp6L2eLDL600J+3AEd2Ji6K8ryoMRhhaUJxm9dlvedu13/zW9T+dNm1Y5z6/MXOCF1nAOPo+OCj+/Oc/H3zlZy67etHflrwdQMlyfQteATHDcPJLlzyEBLcwGudMTW00lAehuwqRux3y5vMx9Z3vRm3UBLxQTWCXWuCFBM0qpGTiYw3ftWTlTjpdA8brg4PAXJKxwD62gJDj2JaoaNI5e1TDjIWnDqKc7cYYlHag/YmHsPxH3wLWLtOOvdoN1y4gTROkbgSJHFiE5wspTmBLj3zE6CEulxv+9k//9MnvX375J24ZPXo08cJm2w8WMI5+Pxj9lU5JMZwVK1ZMvOKyyz449467LoZljQaFnyX4zij0hK4qhut4UFECVxHnWkANPpTXCBx2DI795GdgTZyGLZGDauig3NAEzuMgiuEXXXRXQxRkgprNWMBYYMBZQMqAVMNgHd5FVI2FlbOxyN7cdpSrbVh7353YfNP/ANvWAWAk3y3Kc3GosleSLTVApWIIKEi39bBHvjZq3EF3fuqTl/3n5y7/1KNGgW7/ji7j6Pev/V/27Js2bWr4+ne+d/qPrvvB14KO9ulw2SxHxhslDHqUqQ2ZQpOGuawFj/2rTiMi8uQPOwij3/GPGHvSmQgGj8P20IYiQx77Zb1Uz0cu3VmoM5uxgLHAgLIAG3nZDkd9jVqg0EB6W1VDq1ODv2EZHvjZD4C/3qf74IOa7KcIrWNUrx06XEXuegtu0UMQVgggppNvnzh16g3f/c41//7WM85Yb1nSu2e2/WgB4+j3o/H39NT/9eMfT/vmN7/6s3Wr1x2ZqUJYrmIkTnkIzTPhumx/SVG0XYQJf+shcRqA5hFoPPdCTHzjW+GOOgQ1q4juOEHsWLAcVzt+Q4G7p4/C7Gcs0G8swM4dz0qRBDUMKpcRde1Ak9WNjmWPYflPvgusXQ7UKnCF5YZxP+l0qJGRwPES4elwFT07lwyxYkOPUnjhpFNPuuG73/juN4466igDuusjo8U4+j7yIF7pMm655ZbZ//aNr//rYwsXneo57mAHjkWGKtJTsg0v57yxLJtMk7AdT8f55MT1y8CxJ2HGuRei6dBj0O63oj0pgfg+om0NGO+VrG/+bizQ/yxAMB474nwLaI7aMKi2GY//7n/QPfdmIK4BHTsEneexdS4hDXciZFyuZyMiijfzHm7BU1aoIs+yH/vAe95//Rcv/8rNw2cO7+p/Fjtw78g4+gPk2Sml7CeeeGL8V66++sJbb731YwDGZi2rEpCL/E2xqAF7ihG+h5iwfIHE0tmXgBHj0XDuRTjsTRegWhiOnbGLxHWFWpdpOS1hy5S+nR2zd3hoYo1eZnwSa8gSIdvFStnbn8ngMqvX2557gFjYXKaxQN+1QAbQ2WXO6SlZN0d3757J/qbnpZ6vuTIdZzJ/54YBhvsR2lY8ipU3/zew+K9A0C6RvJWyv1cn7NnW6xcLCKiNLaqZZYRE35NgM0mDkUOH/enfv/D1/7j4Yx9cYOrxfW8cGUff957Jy17Rli1bGr/97W+f+p1vf+cncRwNIxRG0LP5p9gcnyqp2bPX3oNLCA1iKuA5RaDYBJx4Go475wJ442diHYYiKZbgpinSuAabmtOwUFPssWUnrAPXAmwyXsQJPIe0mIwEUiSWEiUrbn5iw03Inc+fLM2wRVUskcTtvSUuCPQCISfXMK19B9gQNJe7Fy2guLrOWCpzlrp8vmgJWb24plMWl5vNdUpicCpxrto2GewAl8I0sBCGIRKVwvMKcCwLSS1CgXOW9LS+h64wQlosoiXpxMxwMx69+adYf9/dwLaNJN2Q1jnpxElDQdAnCWVmXUQhW3ttOLYHS8RuUqXsJBg3dszd37/2B1edc845yyzLYnRhtj5mAePo+9gD2dPLue66647/l8995sftO9snsqkuIRV+qYyoxsZ7puTpojVIz3d9dMYxEpLlDx5GNgxgxCgc8q4PY/SJ78BWlGTVzlabkA6cjDpuQcRv8gVE1jwjTbFpFGnErecgkDQA4CWWcGMLEx/fERmdZv69PvLX95gPPePo9/SZm/36nwXE0UsijZTUva9jTUeb3y+dvKqjrNa/l30cG2maIuGcFOfuwXEcWUhzioY1yswRVe/DTkKhsS26PFoMtf4ZLP35t6GeeBjo6BCOWmG+SRNpu+U+QtPh6j/JJqJbtiLvpu96G088+YRrv3vNd6+fOXPmjv73dPrPHRlHf4A+S6by586de+iXvnDlR5YvX3ZBVxCPlAIaZyVZL/j+UKnU39JU/yiO3vYBuwCQPrfYAuvkszDzTW/D4GmzsTFU6LZ8WL4nwD6m8fnCCNNQnD4jBztVcCwXrrK108+wfFrPOnPhhA1kmtaE8OTOXl5OTAZmUX/2ujpAn4C5bGOB/70FtD51XhSr15/QPpXzivOHX5xiErmnzKBpHQs6YJtYG7LTsRknK6lx+rKu7vou1+wIQwU3qmCEq9BS2Y5V992BtXf9FtiwQmRlpZOH3r0aCLSuZ4nPa5CSXvbFVF1qRYOampd84OIPfOPbl3xgrjVzpia1N1uftYBx9H320ezZhW1YvnzoZ77whQt+/dv/+xm3qTwhrtZs4aQkIk/FOs3OnlfW7R0XEd8cdhHwSvrtwe8HT8fQN70dU04+E2HzCGwNUsRUsHId7bEdnYaPSZARKxTdAtwEqFYVfF8DeuLspcSrFgnqzNHrF1ld+j6vG2bf81r/nt2t2ctYoJ9ZINOD70nf9+BcmKjvdfacXzK3UgixjZcQ8a6zZ6Lv7mjuLKGpYQqfqbyM9a7WXYWvQowrO+h8ZhGW3XUr4vvvACo7NSVeJj4jK/cklkygSMjrDroesK9dsFVaS9snTZx032WXXfb9j33sYw8YDfkDYzwaR39gPKeXvUq1enXxO7/73Wlf/vp/fKK9fefpUNS+Sy0p2lGUnk851s7XtRwk4mQdWF4ZEVfyvgc0DQaOOhmvO+fdaJx8JLZYDai6NiqVGJ5vochjpQpRzLcLMf86U8CXDbdekE9dVp5OXiIMXQDQwYatU5TG0feDkWdu4X9jAU6ByCaehXNTyZebxtkimSqTuqVNsC7ZlMlBrpxMjOzLyhI22oTQHE/z1Pd0zMZUkQMGWyGadq7Dhkfuwarf/Dew7Xn9TqgSGM+5ydQcpa5yXI92C1GWjbN06p47bD/nLW/++lX/+sXbKUpj5GX/N0//tf2scfSvrb332dmYyn/44SWjrvrSVR+57/6/fBxh0AJL4gANh6fPzYQr/GxKswIXMaLwC1l03wyMn4nhZ78TY088C2HzcFRsH0EKaadh6t71XEkXsqZfIDl2yFdR9rqgSIaMqMz71zn53huno+cuOkQxEf0+GxLmwH3cAgnpZzMHTrCdpxIBxTpkudS1cBBWq8tuBLbq9XHKCcReds5nSaWxsUYvCCqREnrrkgd4cSDsdsnzy/HM7Tci/es8oHMLkFRlijqugyQO4TgaW6MEZd+7ZUsApSxUW4Y0r/jUJz5+5Ze++OH7LGsi8b1mO4AsYBz9AfSw9uRSN2zYUL72ez869b9/+pOPbtm2+TSFpJy5elnFe0zxhTq9XvRthFEqKT9xzW6zKOTBawDmnIoj3vFeJOOmI2odie4UqEbkv9Z1wSBIJcr3iMyF1rmPCN6rSzHKKkMOnKOF2banW/dyR2949vfkqZp9+qMFOA8S6WXX0byukmlHTy14vWTWDjzuIa9kG2wqTl6ibs9HohR8CtTEKeI4RnPJQ6OqwNq8Gpse/iM2z/0tsG6VFqNhGg4xCgUXYUBxjJxRU3/PN8J6PM9PwjR54fgT5/zs8k9/5mdvfetbX7DYZ2e2A84CxtEfcI9szy74nt/fM/rLX/3y5xb+7ZELwyQeDiebx9k0pWIV6an5/sgjcq4EKDCpCNYrNQAtI1F6y0WYeNKb4I+bgh1soXV8WDapd7lQYKhBHA4R/TZSOnE5Wha1y7962S9FLkMiGP5WDz2pMZpXx549VLNX/7KA1OfzslZW0srmhE7R59gWLpQ1OJZzxUm5r14ARI6NKI1QshSKaYoyEhTDdmx+YiHW3Xsb8PCfgKBDVvdWksD3iogjPWdJqC1nqZt/bMdLeVrbDv1i8f5/fN/Fv7n6i1+8eeTIkd39y/gD626Mo+/Hz7tt7drWL3/ze+f9/MZfvHf7jm3HC1yeiThu/K+gfSDtNnGsZOITYatsFyl3I1yXepXTjsDEc9+FsXPeiDZ/MDqToqB9qkmMtMh0fQqKWNmRJacQBLAtWX3x5PJyYh+wCO/wlIz+NZTX6UHh9+MHYW7NWOClLGAxVc6MGH04mWdcAcDlEbwsitMEBTuFpxRUEiFNbFhOAalrI6SGjAp1mj6soTnqgr1hOZbdfRu6778TaNuiJ7joYWSCWETiS97OQSL/6930/GeHvNVx/Akn/PJjH/unH1900UXPGgKcA3/4Gkd/4D/Dl70DpZR/yy1/mPGvX7jq8ytXLD0TrltCHFqgQ6Y0JVyEIVN4KVwXonEvCP2eujvfCo1A41DgmFMw7W0Xo+XgWWhPXYTFErZGNVheEY2WD5/98xEk2icckN18XDhwkHmpEtIPxvI5mpgO387IQvr5YzC3ZyzwIgtIG5sVCjmNnRaE9YI1+5AYWo3FEyde6wxQslh3dxFFichMx76NJIgx2ElQDNrRmFSw6qF52HTLT4HnlwFBlywbYk5A19Ptc0LOk7C8j4JQ63CZkch5UoJugKRUalh6wQUXXHfFFV+4+bDDDuFKwWz9wALG0feDh/hKt0DZ28cfX9Pys198/5Qf/ejH3wir3RPYUE8dO5+Onit7joQCC/DMz7NBV3NgExQUSZ3Q0zS6Q0eg8azzcehZFyAYPAY77RIipvpDG2lswbItOET/KsrhAp6XOXp5z+hWOy4qUjuVVL+tbCELMZuxwICzgEVWCS1KxXlAj8sSWN6qKjOFyHmyVZHZOkqlA0Ycs52i2UrR0rETXc8sxtM3/QhY9ijgVKRtzsmabbKGG1BxRrpwuMUpXLbfMpPg2ipKuArAtkOmTfvjZ/75X778kY9cvMYw3PWv0WjesP3reb7i3fziFzfO/ME13/vnxYv+9gbLssamKrZhuVbkuVBJoMN5LvkTRuCAr2y4TLUjRkBn39gEUMN+wqEYdeH7MXzqsbCbRyIuNqIjStGZKCjbFwdP6lyVaV8I/o41SWECS7PvgM2+IKOe94rPzezQPy2gX8DZnOjpOtVOn5kvUllUq0CpABTZQlerooGI+7Ab1bXP4tl5f0T6wN1AZROQtANhB4pazBokzfFdG7WYcjQ5fobdsRbLAMrzLBVGKhgybNiSt5//tmsv/dyVdxwxcWJb/7T0wL4r4+gH4PPfuXrnoH//z6+95X9+8bP37OzsOCGMo7J2y/y/DU24QypMphVzsB7bfEigY/PtoRcDdgO8o87B+GNOx4jjj0F1yFBshoVq6sOLPXiBIylHbpEDhI5C7JBYi0l7fjmw8wbhAfgczC0PbAuQT0La2gRVzwxXrOeFEOK4sJSDahTDb/QQqBhe3I0xbgpn/Vqs/OOd2Hr/PcCGZ9kQr726TXceyoK9wO6arADv2i5i0moQomMpMl0qu2gnSRyvOuG4k+6+9JJP/Pzd737H3wyivv+OR+Po+++zfdk7Y+3+nntun/Sd71xz9j1/mvdFJGgsFZvsao00GVlUT7BQrlInLByU0GGekVSdIZQi9+YQYNBo4KjZmHDGm9B62JGouc2IIg+O3QgrcqQsEPLFY5MghI6erURaLc/icc1mLDAALSBTKeO2jbN5QWQ9e+lJccs5UvBcxEEHGks20h0b8Myf5qJ27zxg7Sqg2g7Prki5zfIaEEYsAzC97yAOa4K5sUiQFSm4ti/Mlp5tqSANA6+h8MC/XvUv//Wu89718LRp03ZaVgb/H4DPYSDcsnH0A+Epv8w9KqVKn/8/n3/zjb++4ZI1z60+mbi5gu9Z5MkOhO++jufatiQC5yuB6XzP9tHF3DyR+aTVbRkJ77jTMP2N56J08HRsgYeo2ISIKX9S6grbR28vjyISP4v4B/hjMLc/EC2Q098K6l7zS+TNqKShLabdaEkr8Heux8ZFD+L5e28HVj4NBJ2a/SqqyHzSZTFW1BykytH0eMTyK300EuLYNlRE3WqFttPfePp/fPHzX7z55JNPft7U4gfGwDOOfmA851e8y0WLFrV84crPfvyvD/71okolmKzYgSM4ORuKLwzieLJAn38oWiUEKkBIFSz5m6dlcJ1GYPg4FE4/E1PfeBYwYhy6nQbEiu1DHlRKPL+l2/ikUqDJdPR/eodjb2/932uyz/fdVQaXN5qL5uSCIfrmM/EQUeV6qfO8oonMDv3ZAruTOeyCG6l/Te46Hl9KWraHGbJnLO5muDxLZjFdr8mjnEy9TmhwVYRS2o3GuANbFj+E1Xf/Dlj8MBB1Agh0u5ykA/RYZzWNTNeysfRG1irqy7kuVBywFyaFle4YOnL4Pf96xeXXXnbZZx81Dr4/D+YX35tx9APreb/s3SqlCtddd92M/7rmPz+1YsWKE8MoGa/Zb2B5vtajFj5daZOzYdmOVtZKo0yHnu8ZDzHJsf0GYMhYjDn/H9By6Gw0HjwD3X4zuojOp0IeLOHZT50Aju+hUo1QLhVRqwCFgibxKpeosaH0QkMiE53mp/YGAfwi5iEpz2ydwFa9jHCEdU4trlOH9O8R37Glz58b5XUNYc/AnQS5TGxvLJ35S0HB7yod22MlRuLixC0ByIWhFpSRdlJxtmAErTehkVciLsXfpWS9Y0nMVogShTT14brMksUopAFa7Qiljm3Y+MgDWPvQfUgXPAjE3UBaAVSgRWh6KKYzSei8Fu/YiJmFY/bMcZBSSB4Ihw0b8vBJJ510+6c//emfnnTSSTsH7tMeuHduHP3AffZ/986XL18+9MYbbzzlhz/84fu2bdv2+jiOG/Jwm6l2ptxd10VM7WqRygI8K5WWHnHE0g3kAsVmwC4B46ei4cQ34pATTkdp9CTpwa+mDiy/hG4VwC+U5EVIwi55P2a+mT6avj0lWYi8QJVkI3XK3wE7hvjv3u48PZxztj1G9Gzp0zpgejHA9iX+htSjsngQIh8zCAaiBTRvvL5zGRX1Eg3y297XY30WKLcV9xd2SfapuhmojqIyVHkU5LuFgmsjirQCLPeL4gRRFAgfveewo8WCmyZotELY7Vux8fGF2PiXu4EnFwGd24G4KngY24ph2SS44cI3uwK9cpAvLoJZbuNWLBZVrVbjD8+ddtppd37yk58kfS2JbzTnrdkGnAWMox9wj3zPblgp5Tz00EMTrrnmmpN///vff6ZWq03RgpX6Bab9ccaskwvUZUIctsVaYZaK58vI9nVaf8Q4lE5kDf9sFCcdgq1JETXVIpr3Io8VBgI+0i9gX3cY53XLbKTyVcdmIUZinuOIbo8AmrItfwfy75pyt5eCl7Shmj5ULwa46WyA8fR7Nir61165ehzvKtd55/cezndLIaFzlfISiZ6IM6FHZ01L24KlK7/gyOeTiKh5PT/4Z8shhl4hDhOJ/n3HE/ZJaWqRWDtAi70Nftsm7FjyFJ69/y/A4kVArQ1Q9Mk1iB50Snk6OnQ9AbPlLCzYoDCVX/AQBJr9zrbtNE3T7lGjRs27+uqrrz3zzDMfHz9+vIni+9fQfdV3Yxz9qzbZwPqAUsq94YYbJl533XUffuSRR/4xCIIhAtgrFKwgzGqF4tP5CtLquBpwRzZ70m1yOcDQvITYJ3VuEWgdDrz+dEw79VwUh04D/BaEbB8qFVFNIyS2i+4ghuOX5P0mL7D8P5Zuz4vZ7Mc+f9IA9Eje5hreGtmvf51xicvKxDj6gTV6X/5uc0fPRZ9IOAvSPcN4iFqcdvD8LoRS4ujp5PViURakPpejMaxIwYpTFBwKQGS68K6HWhigXC7AZx29O4ZVraHR91HglOnehBcev4n+3tQAACAASURBVBMb598NLHocqJGaKoUdVxCjIvpSFIvVK1L9VbJJXusI4x2dvI7xU5W1xnWXSqWVn/zkJ6+66KKL/jZr1qytpmXOjHhawDh6Mw72yAJ0+N/4xjfmXH/99R9cs2bNm5RSw9M0lao5Ix3tj7P2O6RwGPjEuoWOm1QWpWjuAYUGwC0BVgMaXv9WTDzmVAyaOgvVxhZsYWTU0IBIpUhVrF+ICZ06a6bsF9IRv0REZO+T49OxW4gyHJK4dtZJiSXIaHd7Xsy8Xip7ErRErn02FpiAfo/GQH/eSco8uTfNxrIe17naYsYllau9SZE+ReJGSFQsY4h00jY8UZFLEgfKsWSYs4ZvxTU02wGGowZr+0asemg+NpDoZuUiHb1zfNf4PZJSkyxS9RClrIT4+4zMLis0ZG2pVpraloT/yy+44IJfvec97/ntOeecs74/Pytzb6/eAsbRv3qbDehPEJ1/zTXXvOuee+558+ZNW87w4Pnku7OobW1FSOJYgnu+hli/7Omey7S0szKifrGxfl8aDJQHA4cdi9EnnoaDTzwVO+GhSmCR5UoalDo8BDQJiR98pidzMjHYErkrcdyi2d1Tc2WPMq9Dy3pqYL+OzAjEi8XRM4IzFLwDdUBzTIjcq6z0dMgsKfpMYZEiMzJO62r3vf5X759SUz5NZEzyi1z0HKUF1xW9iIQRvZOgIe5C9/rlWPPIveh+dD6w5lmg0g7EFdip5q7oaTzJmO2IRxGiyrquVAHZyeXaCq6TIAqfP/74ObdedNFFt3784x8nmp7SdGYzFtjFAsbRmwHxqi2glPLuvffeg2741Y0X/u6mP7ylo9JxVILAy4vlEt1onj0BzzEhKax6liUIYzLuuYmSpGTCCN8pAOVGel9gxtEYfPgcTDj+DPijJ2NTBESFRukhorO3Up0lsLkA4OeZVqVHZ7Qvm9UjlFMPxquvyescANH/u7bavWpDmA8c0BaQdH3eh56BNTkmhKwRVGXcFcORs0T2gPZSOncgJNiOiHsG5VGIcslB0Q6RbtuE8b6F9YsewoaH7kd15VPAxlVArQuwWPayUJBOlpTVeC0uIdG71pogDoAgPq0omSFkZEVgJ36p3DVh3PgbPvi+9959wQUX3D9p0qQOk6Y/oIfjPr144+j3qXn798E3bNhQXv7k6kk/+MmPz5o79/9+tBZUJvgsgwsKTt87oyJleSJgw3ZeqWcikvKjxEQU1sr3Z3+S3QD4zcC4Q4Eph+Po8/8BUfNQqKZmBI6LMGV93oJKLcQih+vIC5ZAOxLy6FQ82+w0dF8cfD3pl7wxrax/mS9zk7fv36P079+dRPRS3tGIEk1Yo79rJ6/HEKP8/EWpxWc00FSibaLsY6BY4Fo0hYra0OKnsNo3YcuTj2Hd3FuB51cDW9cDMQWjAjh2rMefqMjpHEFgZfoPsjrWk8PNdKN7yl42W1vs7oMmTLzrw/948S8/9KEPLRg5cuR2w2o3UEfwnt+3cfR7biuz59+xgFLKvv3220d9/3v/9Z4FD/71fZ217tEKdoPOPDIm0crz2vET8cTCI9+kGZgv97UJ3T9DmgzY5/mAW4R19Ik47Ozz4I2bDGv4eGxj73upEZXEQkDnzj7kzJ/z06xlqkRpMh6lUCy6qEU8lyMFz5hZAdcW3hGCpCgTaraBZ4HcmQs6npG9pYmc+G9Phi3bOWP4josoCOE5viwwSS1LHKq01XH8hFU0WzU0q04Eq5di1UP3YucjDwLr1ugdU2bT6a7Zi8dZkTW+y0pXE0jlmwNbHHzC1YMsVxOlbDtO03TLuIkHPf2+93/g8/9w4YXLpk2bRvYcsxkL7JEFjKPfIzOZnfbEAmzJ+/3Nv596/fX/fcH98x84syuovg6WapAiu0p7e33l7cg+I6YoY/H5dMJ00KyZs7eYmGKJZIqNSBiylwYBYyah+Po3Y+T0IzF04iEI/EZUvRKC1EEQkZffhut4uq1Oev0lByv/DqKA3L4SsZHal3zg0upEHEG2z57co9mn/1ggdSwBfRI0x+oPHT0jdCUEN3rcOA6poYAkiOBZTFcR+6ER9g0FBSdsgx3swLblT2Lt/HnA4wuAHZuAoApXMldsy+Pylq16elznft32XKQM7WMldNKWkN0kuuTFvIHtxGEarZ8xc9Zjb33rm39+0dkX/XXm8TN39J8nYO7ktbKAcfSvlaUH0HlWr15d/MtfHpr2s1/+/C0PPHTvuUjj10FpAD3fc64o4rnikFlrT5RuIcrR8j0IfteX/nphI2F0zxDMLQONg+EfcQyGTjsMQ2fPQWH0BNilRuysJaixKOAVRbkrqCn4rqUTCMwVuPJO1VEb66lBhJLvvQh1zxe82fqHBfJn+VKaClw/EkzHceczA0TiGTpySsTybyS4sYBaLcCgpgKKzAR1d2BowYFX7cK6Jx7BtqXz0fbUImDFKrLhaBW5hBF8LBKzMaWfBZnay2hHcii99s0a47MOEsb2RaugYhUnyrJ3jhl/0C0XvutdD5xzzoV/Pv74WdtMir5/jMn9cRfG0e8Pqw+Qc65bt6502z13zLj1tltOv/fuee9AiplWCt9jVl18KfHJnvTES0sRa+5WIqlTyYlyD0boUQDb0uQj8MmLy5VCQbfpTZgKTJqG0bOOwtjph8EfOhYdqY9K6sEpNiAkGJCtSZnOB9+tjNbcgl5Y6C4A49gHyJDc5TY1U6LO+rBoxIjaJdcC2y8FPc9xGaOx6KKMAGnHNqBtE5Y8eC9qjz0MbFsHtK3V4DpKMzKtn5WnNOxEUKO6kM81qm0jjRNx8IIUIbuklwj4jqpyKlRce3RNHD/plvd94AN3v/1d77hvypQpbZZl5Uz2A/ExmXveCxYwjn4vGNEc4uUtoJQqzpt3+7if/vQXc+66+84rO3Z2jy1aKEtZVPD5vvDdRZLWlHBfgE1JnPZw6PMMRENbnq0joZ6R62lefdLtjjgIgw87DuNmn4Dy+CmIm4ag4pXRGVtI/TI83xLHHtZEuhuep+lIcvY8o6Q3MEZyfcbGI1YjJhCO3xMpLzWR6iGM0ZQGaKy0wdq5EWv/9iCWPzgP2Lke2LFBqGllRVBlC3uGJs3GJfveWQpIIqHYyemexLgctp6UpmS0KwJKRUQ+wbZZMw/9/aUf+ehN737bBU83jRlDB58V8wfGczF3ue8sYBz9vrOtOfJLWGD+/Pmtv/jFT974p3nz3r9x3cYptlUYE8SJn2iRe1iOQ8UtifAl3Z6RhjDIj1nC7IE/Z8hkFjNlEeBqml23ASg0AVNnoHzY0Zg4+zh4Q0fCaR2GaupCuWUou4BqJZY0PlVJBFtdl67PHX7O628e5IFrgR665pcoxwjinlruSNHQ0AAVRXDIQ1/rQuWFVfA7tuOpP90OLP4r0LUdcCOgRgxcBNu3kQYco6yzMwWfwvYtpMw20T2ngEewHjUdUl2m4saKPRP3tkBC0V4e1LDm2BPm3P6ud7/75x/8hw+uOnAtba68L1vAOPq+/HT68bU98sgjzXf++c8n3HLzb85Zs3btid1tnVPp133Pt8IwFJ4dUQDL3pDCa6K7mmDZPkSYK2PF81wPEV+b/JkfYtqfkGjbE9Q+XncEhs88Umr5rYfMQMPoiehIXCTFRtQSBzHrpRkgTwvm6GlhHH3/GoD1GRs+YlfFaPIi2JV2lKMqOp9fjc7Vy7Fj1VJ0PvYQsGUdUXhaGCEiax176bS7FslmvRQVIxFkl4snCZBPVB3r7KdsijepMGAxCV2TDpn8wAnHHfvgO887f+7Z551NwZmM67Z/2dzcTd+wgHH0feM5DNirWLl9ZfNDf3royBtvuPH19//5L2+odFUPs4CS67g21fFyZr08INPV9LwFLzdb/kalk6a6FwF8UuDPWup8wCsBTa3AxOnAuAkoj5+M1805GU7TcNQsH5GyIBAq5QqJj7D0s6b6kuX7nBBdn58v9Zxit/57b/phXzzevOF61/P/vTO9El1A79F2P0L+l7+/h/7EK++3u516P5efczdjv9JF736pWX97fh79cBh1J/BUIgh4+a4SOEhEFnbNkwvR9vwKVNasAp5aDGwje2wABJ26th6TDUd3xsktSn+7I8h8kkDJAlT+l1Po6my7QO+yhantOSoNKfVobzto0iH3nHfu2xa97cLzbn/9nDmbLMsSrhyzGQvsSwsYR78vrWuOvUcWUEpZmzdvLi9ZsmTcH/7wh1lz5849//nnn3+zbZMjF5Tj2mWcOqQhEyCdfqmSelQUw1L2zdeVNbO2PU0Y7mgEnhDouFrsfvgYYMgYDJt1FCbPPgbukJEIioMQFlvRmRZQU3T2GX8JYQEE8REwmLC7uQaX9d00EfU9h0x9lM5N2UpFdj5eVxbtMUuQ3YJcUib1S/ld3VvYu+2OE+hZ4GRUqLnv65Uq1TK9JAva1Uq7mj5nBsyBh5pQSJMLiQ35+bqP9JRI/s4T7GGHyy4/v578GJJYYedYBn7kYUS6VeyjSWrYDsmTyrGy/cU3U5ZYLljzIOTPVySJ5RmTnUFTzqZWpKWKExu25cEhJW2GYpduC5WiyU1RCDvRlHShXGvDC08swtOPPAi1YS2wcS1Q7dCE9OxdFxKG7LvuzRQL8LhCwyzPlZV3Ut9m/SG8jpQpeX5ZgjTN/iQVp1KpvO6I2bN/+Y53vnP+W88+++mJEyfuNFS1e/RqMDvtJQsYR7+XDGkOs3csQPKdjRs3Fm+44YZDb7rppvOXLl16Tnd392gALS49K/VBYg1Cdolazv6dn70+3U5glTiN7OtF+zC1z0ifyiOFMjByHDDraEw84gQ0jZ4Ip2EYUr8BTrERMRwEcYLYscjsL1CqmHRAro+YAjx80Uv/deaAUgqbaI1zXge7BoSzXPTKU92zzV/kmqjMBmeOrMeS2SJg9zozf6aj0cfLsgssP4jYj3b8+sApSMCSrW7kuzjVzEv3Bsx6YSKfy47zck+T581fHFKf5vXU/ZLOMHfI8jyyDgrZJfuSRQavv14PYZcVT28JJUkiAcwxW+P7PjyPwDkgCGqwrUikjR1efJjCg43GAnvSI4Td7bCiTkQ7N2P1kodRXfQwsOE5oHMHUO3SDj2siMpibmO5n7rN8zxEbNvYrZSTP7/6/V3XVdySJAkcx9k2ePDgJeeee+51559//uKzzjprM/MChqZ277wnzFFenQWMo3919jJ7v4YWYKT/hz/8Yfgdd9xx+p133nnhCy+8wDr+BLY9Z4lUiy/i+pdt7mDqL7M+4hcXaNuZU2VwX5BIHAU22TO7SlCfAzQNBYaNwbRTzkBx8Bh4w8bCaR0NtA4Top4u20Hk2OjuBqi+SwR/mgAxA0NK7toOHEdHgdwYxTIlIN1cbOvSv5SINvf1GoOgHZwGKTB7oBcFeWcAHTmlSR1mDehgyRKYtSr2EAzqtIV27OJke3/WdtnVmdER5yWHFzn6+tqFxfR0ngHgwoAgNEavZJDLFi+8smwRw17x/HQ9YEelbS/3oVKUm1wEkUISURHBgud4IM8RH0UcRrKYI/ER7RHRvnGsMyiOA9cm66GFQhKhlESwOnYi2bYBqm0TOtY9h82rlqFj8cNA2AkE3RlLHQ+S6H53UY3RJDX1myzMBCDC1sze0nm+cMzHW3afKvs5sSxr5+DBg5fOmDFj8dvf/vYbzj///KfGjRtHWL7ZjAX2qwWMo9+v5jcn31MLPPPMM0PuuuuuI2+77bbTFi9efExnZ+dsy7IayMa3C4doFnn1OvNep7Y7uM53C9LXrH2uVi4TL8OXvETK5N4niXkJGDwWmDQDhQmT4Q8bi8ZR4zBo9EEYOXYyumoRakEIMq1xocDUPXVJ0oyHX/K3lNIVPRIdyZN2VaL9LHXNKDgHG2pHqBnVtDOpT/Hr1LU4TqXgk+OfN0CSlyySzx2+TulnkfouhqYwEPfXcqjaH+fLDb0MYCpfNi486krnlhASZPkCcsCTPpYrlpSAxt4dSXlske2QZYssTd8TzWcZcR6pmlTheKR9ZdnDQhrrxYRv0ZGTeyZhCkf0XoquJQRIokaYJnBVhDXLn0Rl+yaE27ege/0apEv/BmxYDcRdQFoBiHEj13H9PSQWXKXLP3H2ZPKxsXv2ZNeykM7YZPZXtm3TyUeFQmHtlClTHj755JMXnHvuuX+cMmXKxokTJ5ra+55ObrPfPreAcfT73MTmBHvLAozwN27cWFq0aNHEefPmHfnAAw8cvmTJkrMtyzrItm3fsizW83sifL608/R+PZq+hy0NLnwUtdtyFQKKjkjkrSVILd+D45UQB4HeR1D8vpYqaxkkEb81eDS8piEYOXEKDpp+GBpHjkPFKaFDFRC4RVQtB4lnibieiJJJjTkSJ0asQRrltd+sFiwp+TwS1o5elgiZE7WJA+hBKKawU6adsyJ35oKlXZAOSRYAQtuy6ybOWwv65LK+9Xzr9WA2KRPsku7X1yIV/Sw6txw3wyjoUkJ92n53zIGQHlF0iAsY4ZhhhM5npssOtuUKs4KKE9hhDa0FDw1JjIa0hrR9B7auWoZ1zzyJzi0b4UdV1Das0aIxUZgx0EUaKa+YWon0sxTlNz4AMtdpAaSCxZILaZYzRQbKv9aNHVnMZLX3euNlqffE9/1qc3PzvLPPPnv+nDlznj7uuOOWzJo1iwIzpvd9b014c5y9ZgHj6PeaKc2BXksLKKXcHTt2lBcsWDD2rrvumj537tzz1qxZ8yYATa7rugTw5SC++nqqOK48KhMfwMiOTpHuVNOUup6DOGIv/65bj164IAXoqYW0FLAos9sMNA8ByoOAQSOFrW/E5Ok4eOYRqFqs6TuA78It+BJmMyVcZfRabkHC0gGzCrII0GdlNCzpYwqcSLY5d/b6d/nG+nIWg+tf8fNaPGCXi+8Bz+3m9XP1PqbD8+3FoL78QzmAr9eXqVQDIXsvSEfkZIGTNrMk1gDJnmhfywxrnEGCZt+BFQUIwxAqiQT05qYx0qCCtKsDTz48H2o9QXPrgI7tQKUD6NhBfmOAfRJ06szzy/G0CI22n67CSMJGVzGyL16dDV9w94nYKuaC4O9sLA2x7h4TJACEI0eOXHn44Yf/6rzzzlt0xhlnPDNhwoSd/L2pvb+Ws9+c69VawDj6V2sxs3+ftcAdd9wx8rbbbjtq3rx5F23YsGG6UmpUmqZDCPDLnP4u4z0rg2vH4FiI2Zsvv8wldbVz8F2d5g3jCJZNJD530o1V8P3Mm+Rmyfr46by9ok79+43A4BHwxh+Cg6bMwIhxE1FubkWtUMY2ggAbGlBqaITleAiJSmdULNkDD7UogXJcKMcTX5VJlesovae434Ov01S/Gd5O1iPM+md4vXo99Z6PZj5cS7TqjTys4hczLEFPqT0D0tVL+9oEJ+YAQy1KLF92kki2oVRwYSWh6L47BC+qFFFQQ61agd3VgVL7DjTENdQ6duCF1SuxacXTwPo12qmHXZpijsCHHiS8bpmTTeoSmkmRpQOCIQU2kN03fbznF1CjgpyAN32tUBczo8HSiNaH0ws8DZqkU89q7kzN19I03TRu3Ljts2fP/v2ZZ575+ze84Q3PT548uaPPTgJzYcYCL2EB4+jNsOh3Fli5cmVh0aJFo+bNm3fyo48+euqGDRvGbN++/VAAwzzP85IkkRS/COjZvS1gArjOZ0ROt58Fr3XgeOmY1o4mDxU1Ja/UojO/Iw5TZ6kBh3K7JUARQ+jrDIDDLEAZGD0OGDUaxXFj0TJkCLxigzh4Iv3tUgnlxla4DQ0oNA6C7Rek/i/ULHLxrijx5RuzAXJOiZ51LblHUyBz6OL068B4xAjUb3k0L7X7DO9A7ynti3TUUlrIEPGURxcT8LsSeVU697jajUrbDgSd7Qi7uqDCClQQIK51o9bdgfbNm4AX1gObNgI7tuoaOillKQaj6JQpThDDigNx2gIn5EIkwxswmaI7DOquPIvYiS3IWwf5V8EbyIrH6WnH1Gsk7qXLGnWgOj7t0HXdlYcccsiqSZMmrTzzzDNvP+WUU5bPmmVEZfrdi2IA3ZBx9APoYQ/EW33qqacan3vuuZELFy488pFHHpn+xBNPzNi2bdspSqlGUdRhHle/9fVGR+1kQOwsOtSOoXfTyfKsBq5dX4/bIDSNm7gROsecwI8Rvsjzuvq7kPnkiYGszz8X86HMHksBXAg0DYbd3IyGQcPg82dyAbieSO7ahQa4ja2yKCiXy/BKZRSKRfhcGDQ0wi0WpAafK7Rp/XU6yV4PmTt6SWTsFvkz+k7DGFFQRdhdRa27C2GthrBSQbW7grjWiSToQBpWEDH1HtWQBAGC7g4E7TuAzg5gKx15TfepiyOXInmWMqhL6TNKF2edoeGFjiZflOj+dO24e62dScNk9s7aDRn5C7Ay78vofa65vbPFmKwViP9LFcKGhoZFU6dOfezYY499Yfbs2Y/OmTNnxcyZM8k3r9MBZjMWOIAtYBz9AfzwzKXvuQXy/vwXXnhhyGOPPTb53nvvnbjwb4uOfX7N6jcqhREMtaXMSzeUIeF930Yc0rX0bj0ukmp6ddG7sJ47rtTV2QLG1jHpY3fqIknx9TZU3vuvejn+eA66KI0S4ILA0RgAMvaw3U/IfnJe1azowExBsUlnC3xyAviCA9DfKfbD9D+pgDOnV5fq1zeVpb6zf/bk6+X3WcjMnjYC3Wqh/k5AG7+HERAFQNihQW8CatPgP/m33COdOq85kt5D8sj1ROhZyVyq4xloUlrukqyjILvkgl9CELJDLesuqHsW5AjQuQsur3r/11OvyC8n+4ysszRxIukQqgXfXXLCKafcdeKJp6w+6aSTHj/ooIM2Tpo0qduoxe35vDJ7HhgWMI7+wHhO5ir3sgUI5tu8eXNhycKFw+ffd9/Uu/7857NWrFhxWjUIWxXQmCg0SNbX8ayU9WbHEbxVwnpxHSKb2fsc57XLJXJmMTLfjdBH9sla6TzPQhjmIX/WXsdcgET62dTMyGZ6awp1uYUezF32O/Fk4jkzedT897th83pmfaa6ljt6fWcZl3suNJDlzDWEP2tTy6JvOvT8ENKPvsuBdOQuWYqcGz6/x960u8MWRBIQZI5frj+/vrwywj86FlzLhkpSLRzDX+3GECBpestFqojtt1V2bGVbdpCqtOJ5XmXsqNFLZx995K/e/OY3PXniiSeunzJlClVqSGRj0PJ7eY6Zw/UdCxhH33eehbmS/WyBRYsWlR++774RDy964thnViw/Z+vWbSO27tg+OKhUxsFCE8HkUJIMt+j4GaUygGXrPQNv4WChDxIPlHkpgX/rkJq1cTqqXVYG9c4sc19SM5ZolMffFSavGfGynnXWzLP0f686Wl3L+O6z++/N9pd7C+zem5f9nPfESya+ju2uDjLwkqJAmvyHa4neA+cm0Eh5YvGzRvuXqMHzT8RV5OsKoSRmQUDkDSzleL6KoqQGWJuHDB6yZfiwkTsmTJq4eMaMmXecdNJRa88999wtJmLfzxPNnP41t4Bx9K+5yc0JDwQLkIhn/vz5g5cuXTn62dUr5jy9bNkhK1euHLJ27bpJUTWYAgstSGLfI0GdEo44CdRZWc6paOU+ZYblUPjszvNQVMrVGk3fu9X/pOll5TB2ntKu+/tu4L/8TL31bJ3Y1pXtOinA+rPtxrW/KxqhLhWff2Z3x/9SbxCh/6Oz7m2962HJy8J17dwpS8w++vquAV5nhrarayugc++t3xOOCOU5nooSLjXsyHHcDYOGtC49ePLkLVOnTd1w6PTpCw6befgz48eP2DZt2jRG7WYzFhiwFjCOfsA+enPjr8YCSqni008/XX527doxK597bsKSxU+MffqJJ8Y/teTJo9M4mmoBjY7t+mkaeylSNoVZBd+zgjCA47oS3UZUQss3CYN1OKrhZdr1CaGMbHVweFlGZFs+Y4nnY46ArWL1N5L15Pf45Swj0LtPL7NdfhZ9xnq4Yd3POS9+lkXIMw1577ztZmJCu6H3JcXRs9X/O1u45H9zKEqT5+35S1be2eaW3V9PgiIlB2BCBQEgDT3P29nU1Pzocccc99TMGYdtPHT6zFWHTBu7cuTIQ9smTWqtGNnXVzO6zb793QLG0ff3J2zub59YQCnlPfvsjlIUtbe+sHlt69OPPzV4yZLHm59c8vjU59esOrVt585DFdACoMB2bikfs9WbNDHiWTUyLOdZ351Brnc9oKfo7sI8L3L8L+lUM+aYuoVDD3FOtqDYrTKQkQe9lOPfdfHRW0bPm9Tq1yJZeUGwg7uvAHoJbIQUyHKlRq+V3whD7Cn0s2bOlVHN952OoSNHzp82bcZ9hx955LaZrzuiffyUSTuGDR26bZDvt48aNSowNfZ9MszNQfuJBYyj7ycP0tzG/rcAKXozN+YsWLCg9NxzT7U+ufDJ4c8sXzr7meXLj+9s75oQKzRXgrBQrYaFVMUNtp02KMBjK/puDWG7Buo9MLvM8Wc94DlLXk/dvl5fNk+h1zn6HivltfYXmU1H33legZz1lNHpKQH00O/umsNnk6GmIRBS2Z5D9Bwna2DM4HzchaX4GuBWCo5fLTaUoqJvhQXXbR85atjjh82a8aepU6c+O3P2rJ2zZo1vHzXqSKIgBTBnWOj2/1g3V3BgWcA4+gPreZmrPYAtsG7dutKzzz7bsGnTJn/VqlWDN2/efPDatWsP6+7uHNrW1jGora2t1NXV5VcqlYZKpTIsjuNWzbELcu3yi9B/3QKoJDdu8WehfWEGvyfM7uXLp6pcttXzyOyJFTMfzTo78QEZ6m/XT+ZJd1bjiXXPm/LokBPHceIkSdp939/c1NTU3tTUFDQ0NAQtLS2dra2t7c3NzasnTpz81IgRQ16YMGFC95gxY8Jisdgxc+ZM3dpgNmMBY4G9YgHj6PeKGc1BjAX+/y3ATMDmzZvLGzdu9Do7O701a9Y07tixY0xHKDuatAAAAiBJREFUR8foLVu2NARBUGpvby+3tbUV2tvbnR07drjt7e2FarXa2tXVNVIpNQRAybIs33EcP01TL03TfHGQf89Qbprkt8f510XfdYzwmgRAR9D5F1vQogyxHtq23Q1g/ZAhQ7aUy+WuxsbGqLW1NR40aFDS2toaNDY2dpdKpeqIESO2NDU1rRk2bNj28ePH11pbW6NJkybVDBHN//94MZ80Fni1FjCO/tVazOxvLPAaWyCL3p1nn31WHLTrulZHRwcdfimO4+adO3c2bNu2zW9ra3O7u7sdOnrP88Thd3d30+n7URRR6MeNosiO45hfVpIkQuiTfZHbnR9MXddNPM+LbduOi8UinTtr5fx32NTUFDc1NYkzLxaLbS0tLR3Nzc1hS0uLpNXjOFYTJkzgIoELg5co0L/GxjOnMxYwFniRQJcxibGAsUA/sUAdZoB31Iufe+X7q8fBSwrf1MVf2WhmD2OBvmoBE9H31SdjrstYwFjAWMBYwFhgL1jAOPq9YERzCGMBYwFjAWMBY4G+agHj6PvqkzHXZSxgLGAsYCxgLLAXLGAc/V4wojmEsYCxgLGAsYCxQF+1gHH0ffXJmOsyFjAWMBYwFjAW2AsWMI5+LxjRHMJYwFjAWMBYwFigr1rAOPq++mTMdRkLGAsYCxgLGAvsBQsYR78XjGgOYSxgLGAsYCxgLNBXLWAcfV99Mua6jAWMBYwFjAWMBfaCBf4fWy2P0UE2vSkAAAAASUVORK5CYII=;" vertex="1" parent="7">
                    <mxGeometry x="340" y="190.38" width="146" height="142.25" as="geometry"/>
                </mxCell>
                <mxCell id="9" value="" style="shape=image;verticalLabelPosition=bottom;labelBackgroundColor=default;verticalAlign=top;aspect=fixed;imageAspect=0;image=data:image/png,iVBORw0KGgoAAAANSUhEUgAAAMgAAADICAYAAACtWK6eAAAABHNCSVQICAgIfAhkiAAAAAlwSFlzAAALEwAACxMBAJqcGAAABXlJREFUeJzt3UuIZGcdxuF3jAYTL5EgukgU8QoKuhCEBDWLhIAbjRi8bYwmrgKiCxFEhGw0CG6MigjZiCKuDEEXImIWblQURURQUTFRJxoVb5NkkplxcboySTP9dl3OpZl+HvhgoKtP/b/i/Ka66TpVCQAAAAAAwMXpkqUH4AmXJXlDkquTPJTk8WXHgaPjtiT/THJub/0jyfsWnQiOiJtzPoz966YF54LFXZ7k/hwcyB8y/OgFx9IdOTiO1frkYtPBgl6c5FQOD+R/GX5xh2PlGzk8jtX62kIzwiLelPXjWK1rF5kUZva0JD/N5oH8OMmJBeaFWX0wm8exWu9fYF6YzRVJHsz2gfwlyXNmnxpm8tlsH8dq3Tn71DCDVyY5nd0DeSTJy2aeHSb37ewex2rdM/PsMKm3ZLw4Vuv6WXcAE3lGkl9l/EB+EZcrcBH4cMaPY7Vun3EfMLrn56nXeYy9/p7kytl2AyP7UqaLY7Xumm03MKLXJTmT6QN5LMmrZ9oTjOb7mT6O1frOTHuCUbTLaKdab51lZ7CjZyb5feYP5DdJLp1hf7CTT2T+OFbrozPsD7Z2VZL/ZrlA/pXkhZPvErb01SwXx2rdPfkuYQvXJDmb5QM5k+T1E+8VNnIiyY+yfByr9YNptwubuSXLR7F/vXvKDcO6np3kz1k+iP3rj/GujDvzcund3ZHheo+j5ooM7xB/38JzcIy9NMMlsEs/Wxy0TiV50WS7h0N8M8tHcNj6+mS7h+L6LH/yr7veONFjABd0SYZLXpc+8dddP8nwjo4wi9szzon7aPpbAZ3eu80Y93XrJI8E7HNlhktddz1hf5bktUlOltuc3LvNz0e4v5NJnjvB4wFPcVd2O1EfT/KpnH9p+mGBZO+2n9773l3u+zOjPhKwz2syXOK67Qn66wyv2XqydQJZuTbDdR/b3v+jSV6+42MAB/putjsxzyb5fIbPJNxvk0CS5FlJvrjlHOeS3Lv17qF4W7Y7Ie9PckM57qaBrNyY5IEtZ7pxg33DoS7Ndj/afCXJ8w459raBZO/Y21yD8sskT19j37CWD2SzE/CvSd6+5rF3CWTl5iR/23DG9655bDjU3Vn/xLsnyQs2OPYYgSTDpbb3bjDnFzY49rHlr6vreXiN2/w7w0ek3ZThGWRuD2Z4659bk/xnjds/Mu04HCc3pP9v/L0Mn3u+jbGeQZ7sJRle5t5mfvOWx4YLutD77J5K8qHs9umzUwSSvZk+kuHZb/9xP7fDceFA78nwSVE/zBDMK0Y45lSBrLwqyZczzPytJO8c4Zgwm6kDYQd+SYdCIFAIBAqBQCEQKAQChUCgEAgUAoFCIFAIBAqBQCEQKAQChUCgEAgUAoFCIFAIBAqBQCEQKAQChUCgEAgUAoFCIFAIBAqBQCEQKAQChUCgEAgUAoFCIFAIBAqBQCEQKAQChUCgEAgUAoFCIFAIBAqBQCEQKAQChUCgEAgUAoFCIFAIBAqBQCEQKAQChUCgEAgUAoFCIFAIBAqBQCEQKAQChUCgEAgUAoFCIFAIBAqBQCEQKAQChUCgEAgUAoFCIFAIBAqBQCEQKAQChUCgEAgUAoFCIFAIBAqBQCEQKAQChUCgEAgUAoFCIFAIBAqBQCEQKAQChUCgEAgUAoFCIFAIBAqBQCEQKAQChUCgEAgUAoFCIFAIBAqBQCEQKAQChUCgEAgUAoFCIFAIBAqBQCEQKAQChUCgEAgUAoFCIFAIBAqBQCEQKAQChUCgEAgUAoFCIFAIZHlny9fOzDYFFySQ5f2ufO23s00BR9S7kpw7YL1jwbngyPh4ksdyPozTST626EQkSU4sPQBPuDrJdXv/vi/Jn5YbBQAAAAAAgIvd/wFRUc8mX5bvpAAAAABJRU5ErkJggg==;" vertex="1" parent="7">
                    <mxGeometry x="348" y="332.63" width="130" height="130" as="geometry"/>
                </mxCell>
            </root>
        </mxGraphModel>
    </diagram>
</mxfile>